<?xml version="1.0" encoding="UTF-8" standalone="no"?>
<svg
   xmlns:dc="http://purl.org/dc/elements/1.1/"
   xmlns:cc="http://creativecommons.org/ns#"
   xmlns:rdf="http://www.w3.org/1999/02/22-rdf-syntax-ns#"
   xmlns:svg="http://www.w3.org/2000/svg"
   xmlns="http://www.w3.org/2000/svg"
   xmlns:xlink="http://www.w3.org/1999/xlink"
   xmlns:sodipodi="http://sodipodi.sourceforge.net/DTD/sodipodi-0.dtd"
   xmlns:inkscape="http://www.inkscape.org/namespaces/inkscape"
   width="256"
   height="256"
   viewBox="-72 -48 144 96"
   id="svg6159"
   sodipodi:version="0.32"
   inkscape:version="0.46"
   sodipodi:docname="Flag_of_South_Korea.svg"
   inkscape:output_extension="org.inkscape.output.svg.inkscape"
   version="1.0">
  <metadata
     id="metadata6204">
    <rdf:RDF>
      <cc:Work
         rdf:about="">
        <dc:format>image/svg+xml</dc:format>
        <dc:type
           rdf:resource="http://purl.org/dc/dcmitype/StillImage" />
      </cc:Work>
    </rdf:RDF>
  </metadata>
  <sodipodi:namedview
     inkscape:window-height="793"
     inkscape:window-width="916"
     inkscape:pageshadow="2"
     inkscape:pageopacity="0.0"
     guidetolerance="10.0"
     gridtolerance="10.0"
     objecttolerance="10.0"
     borderopacity="1.0"
     bordercolor="#666666"
     pagecolor="#ffffff"
     id="base"
     showgrid="false"
     inkscape:zoom="0.62111111"
     inkscape:cx="450"
     inkscape:cy="300"
     inkscape:window-x="-22"
     inkscape:window-y="21"
     inkscape:current-layer="svg6159" />
  <defs
     id="defs6161">
    <inkscape:perspective
       sodipodi:type="inkscape:persp3d"
       inkscape:vp_x="0 : 300 : 1"
       inkscape:vp_y="0 : 1000 : 0"
       inkscape:vp_z="900 : 300 : 1"
       inkscape:persp3d-origin="450 : 200 : 1"
       id="perspective6206" />
    <rect
       id="b1"
       width="24"
       height="4"
       x="-12"
       y="-2" />
    <g
       id="b2">
      <rect
         width="11"
         height="4"
         x="-12"
         y="-2"
         id="rect6165" />
      <rect
         width="11"
         height="4"
         x="1"
         y="-2"
         id="rect6167" />
    </g>
  </defs>
  <rect
     x="-72"
     y="-48"
     width="144"
     height="96"
     id="rect6169"
     style="fill:#ffffff" />
  <g
     transform="matrix(0.5546992,0.8320509,-0.8320509,0.5546992,0,0)"
     id="g6171">
<!--arctan(3/2)-->    <use
       xlink:href="#b2"
       transform="translate(0,-38)"
       id="use6173"
       x="0"
       y="0"
       width="144"
       height="96" />
    <use
       xlink:href="#b1"
       transform="translate(0,-44)"
       id="use6175"
       x="0"
       y="0"
       width="144"
       height="96" />
    <use
       xlink:href="#b2"
       transform="translate(0,-50)"
       id="use6177"
       x="0"
       y="0"
       width="144"
       height="96" />
    <use
       xlink:href="#b1"
       transform="translate(0,38)"
       id="use6179"
       x="0"
       y="0"
       width="144"
       height="96" />
    <use
       xlink:href="#b2"
       transform="translate(0,44)"
       id="use6181"
       x="0"
       y="0"
       width="144"
       height="96" />
    <use
       xlink:href="#b1"
       transform="translate(0,50)"
       id="use6183"
       x="0"
       y="0"
       width="144"
       height="96" />
  </g>
  <g
     transform="matrix(0.5546992,-0.8320509,0.8320509,0.5546992,0,0)"
     id="g6185">
<!--arctan(-3/2)-->    <use
       xlink:href="#b1"
       transform="translate(0,-38)"
       id="use6187"
       x="0"
       y="0"
       width="144"
       height="96" />
    <use
       xlink:href="#b1"
       transform="translate(0,-44)"
       id="use6189"
       x="0"
       y="0"
       width="144"
       height="96" />
    <use
       xlink:href="#b1"
       transform="translate(0,-50)"
       id="use6191"
       x="0"
       y="0"
       width="144"
       height="96" />
    <use
       xlink:href="#b2"
       transform="translate(0,38)"
       id="use6193"
       x="0"
       y="0"
       width="144"
       height="96" />
    <use
       xlink:href="#b2"
       transform="translate(0,44)"
       id="use6195"
       x="0"
       y="0"
       width="144"
       height="96" />
    <use
       xlink:href="#b2"
       transform="translate(0,50)"
       id="use6197"
       x="0"
       y="0"
       width="144"
       height="96" />
    <path
       d="M 0,24 C 13.254834,24 24,13.254834 24,0 C 24,-13.254834 13.254834,-24 1.4695762e-15,-24 C -9.9411255,-24 -18,-15.941125 -18,-6 C -18,3.9411255 -9.9411255,12 -3.3065464e-15,12"
       id="path6199"
       style="fill:#c60c30" />
    <path
       d="M 0,-24 C -6.627417,-24 -12,-18.627417 -12,-12 C -12,-5.372583 -6.627417,-1.2174368e-15 -2.2043642e-15,0 C 6.627417,4.0581225e-16 12,5.372583 12,12 C 12,18.627417 6.627417,24 7.3478808e-16,24 C -13.254834,24 -24,13.254834 -24,2.9391523e-15 C -24,-13.254834 -13.254834,-24 -4.4087285e-15,-24"
       id="path6201"
       style="fill:#003478" />
  </g>
</svg>
