<?xml version="1.0" encoding="UTF-8" standalone="no"?>
<svg
   xmlns:dc="http://purl.org/dc/elements/1.1/"
   xmlns:cc="http://creativecommons.org/ns#"
   xmlns:rdf="http://www.w3.org/1999/02/22-rdf-syntax-ns#"
   xmlns:svg="http://www.w3.org/2000/svg"
   xmlns="http://www.w3.org/2000/svg"
   xmlns:xlink="http://www.w3.org/1999/xlink"
   xmlns:sodipodi="http://sodipodi.sourceforge.net/DTD/sodipodi-0.dtd"
   xmlns:inkscape="http://www.inkscape.org/namespaces/inkscape"
   width="256"
   height="256"
   viewBox="0 0 200 100"
   id="svg2390"
   sodipodi:version="0.32"
   inkscape:version="0.46"
   sodipodi:docname="Flag_of_Bosnia_and_Herzegovina.svg"
   inkscape:output_extension="org.inkscape.output.svg.inkscape"
   version="1.0">
  <metadata
     id="metadata2414">
    <rdf:RDF>
      <cc:Work
         rdf:about="">
        <dc:format>image/svg+xml</dc:format>
        <dc:type
           rdf:resource="http://purl.org/dc/dcmitype/StillImage" />
      </cc:Work>
    </rdf:RDF>
  </metadata>
  <defs
     id="defs2412">
    <inkscape:perspective
       sodipodi:type="inkscape:persp3d"
       inkscape:vp_x="0 : 250 : 1"
       inkscape:vp_y="0 : 1000 : 0"
       inkscape:vp_z="1000 : 250 : 1"
       inkscape:persp3d-origin="500 : 166.66667 : 1"
       id="perspective2416" />
  </defs>
  <sodipodi:namedview
     inkscape:window-height="674"
     inkscape:window-width="640"
     inkscape:pageshadow="2"
     inkscape:pageopacity="0.0"
     guidetolerance="10.0"
     gridtolerance="10.0"
     objecttolerance="10.0"
     borderopacity="1.0"
     bordercolor="#666666"
     pagecolor="#ffffff"
     id="base"
     showgrid="false"
     inkscape:zoom="0.559"
     inkscape:cx="500"
     inkscape:cy="250"
     inkscape:window-x="56"
     inkscape:window-y="91"
     inkscape:current-layer="svg2390" />
  <rect
     width="200"
     height="100"
     style="fill:#0d2b88"
     id="rect2392"
     x="0"
     y="0" />
  <path
     d="M 116.91604,94.060661 L 122.5,76.875 L 128.08396,94.060662 L 113.46496,83.439338 L 131.53504,83.439339 L 116.91604,94.060661 z"
     id="star"
     style="fill:#ffffff" />
  <path
     d="M 53,0 L 153,0 L 153,100 L 53,0 z"
     style="fill:#ffd911"
     id="path2395" />
  <path
     d="M 31.53125,0 L 35,0 L 38.46875,0 L 40.58396,6.560662 L 35,2.5 L 29.41604,6.560661 L 31.53125,0 z"
     id="path11682"
     style="fill:#ffffff" />
  <path
     d="M 131.53125,100 L 125.96496,95.939338 L 132.875,95.9375 L 135,89.375 L 137.125,95.9375 L 144.03504,95.939339 L 138.46875,100 L 135,100 L 131.53125,100 z"
     id="path11689"
     style="fill:#ffffff" />
  <use
     transform="translate(-75,-75)"
     xlink:href="#star"
     id="use2399"
     x="0"
     y="0"
     width="200"
     height="100" />
  <use
     transform="translate(-62.5,-62.5)"
     xlink:href="#star"
     id="use2401"
     x="0"
     y="0"
     width="200"
     height="100" />
  <use
     transform="translate(-50,-50)"
     xlink:href="#star"
     id="use2403"
     x="0"
     y="0"
     width="200"
     height="100" />
  <use
     transform="translate(-37.5,-37.5)"
     xlink:href="#star"
     id="use2405"
     x="0"
     y="0"
     width="200"
     height="100" />
  <use
     transform="translate(-24.999998,-25)"
     xlink:href="#star"
     id="use2407"
     x="0"
     y="0"
     width="200"
     height="100" />
  <use
     transform="translate(-12.5,-12.5)"
     xlink:href="#star"
     id="use2409"
     x="0"
     y="0"
     width="200"
     height="100" />
</svg>
