<?xml version="1.0" encoding="UTF-8" standalone="no"?>
<svg
   xmlns:dc="http://purl.org/dc/elements/1.1/"
   xmlns:cc="http://creativecommons.org/ns#"
   xmlns:rdf="http://www.w3.org/1999/02/22-rdf-syntax-ns#"
   xmlns:svg="http://www.w3.org/2000/svg"
   xmlns="http://www.w3.org/2000/svg"
   xmlns:xlink="http://www.w3.org/1999/xlink"
   xmlns:sodipodi="http://sodipodi.sourceforge.net/DTD/sodipodi-0.dtd"
   xmlns:inkscape="http://www.inkscape.org/namespaces/inkscape"
   width="256"
   height="256"
   id="svg5687"
   sodipodi:version="0.32"
   inkscape:version="0.46"
   sodipodi:docname="Flag_of_Singapore.svg"
   inkscape:output_extension="org.inkscape.output.svg.inkscape"
   version="1.0">
  <metadata
     id="metadata5709">
    <rdf:RDF>
      <cc:Work
         rdf:about="">
        <dc:format>image/svg+xml</dc:format>
        <dc:type
           rdf:resource="http://purl.org/dc/dcmitype/StillImage" />
      </cc:Work>
    </rdf:RDF>
  </metadata>
  <defs
     id="defs5707">
    <inkscape:perspective
       sodipodi:type="inkscape:persp3d"
       inkscape:vp_x="0 : 1440 : 1"
       inkscape:vp_y="0 : 1000 : 0"
       inkscape:vp_z="4320 : 1440 : 1"
       inkscape:persp3d-origin="2160 : 960 : 1"
       id="perspective5711" />
  </defs>
  <sodipodi:namedview
     inkscape:window-height="737"
     inkscape:window-width="892"
     inkscape:pageshadow="2"
     inkscape:pageopacity="0.0"
     guidetolerance="10.0"
     gridtolerance="10.0"
     objecttolerance="10.0"
     borderopacity="1.0"
     bordercolor="#666666"
     pagecolor="#ffffff"
     id="base"
     showgrid="false"
     inkscape:zoom="0.12939815"
     inkscape:cx="2160"
     inkscape:cy="1440"
     inkscape:window-x="17"
     inkscape:window-y="80"
     inkscape:current-layer="svg5687" />
  <rect
     width="256"
     height="85.33342"
     id="rect5689"
     x="0"
     y="42.333"
     style="fill:#ed2939" />
  <rect
     y="127.66658"
     width="256"
     height="85.33342"
     id="rect5691"
     x="0"
     style="fill:#ffffff" />
  <path
     d="M 87.803141,84.99979 C 87.803141,102.72201 73.436456,117.08872 55.714251,117.08872 C 37.992047,117.08872 23.625362,102.72201 23.625362,84.99979 C 23.625362,67.277573 37.992047,52.910858 55.714251,52.910858 C 73.436456,52.910858 87.803141,67.277573 87.803141,84.99979 L 87.803141,84.99979 z"
     id="path5693"
     style="fill:#ffffff" />
  <path
     d="M 97.886519,84.99979 C 97.886519,101.74791 84.309535,115.32482 67.561481,115.32482 C 50.813426,115.32482 37.236444,101.74791 37.236444,84.99979 C 37.236444,68.251674 50.813426,54.67476 67.561481,54.67476 C 84.309535,54.67476 97.886519,68.251674 97.886519,84.99979 L 97.886519,84.99979 z"
     id="path5695"
     style="fill:#ed2939" />
  <path
     id="star"
     d="M 59.685636,85.773991 L 55.326498,82.429988 L 50.968462,85.775591 L 52.646274,80.383286 L 48.273272,77.059382 L 53.669357,77.070782 L 55.324735,71.670877 L 56.981887,77.070182 L 62.377967,77.056782 L 58.006056,80.382386 L 59.685636,85.773991 z"
     style="fill:#ffffff" />
  <use
     xlink:href="#star"
     transform="translate(34.203765,6.3706134e-6)"
     id="use5698"
     x="0"
     y="0"
     width="4320"
     height="2880" />
  <use
     xlink:href="#star"
     transform="translate(17.11932,-12.694006)"
     id="use5700"
     x="0"
     y="0"
     width="4320"
     height="2880" />
  <use
     xlink:href="#star"
     transform="translate(6.3999721,20.311026)"
     id="use5702"
     x="0"
     y="0"
     width="4320"
     height="2880" />
  <use
     xlink:href="#star"
     transform="translate(27.803765,20.311026)"
     id="use5704"
     x="0"
     y="0"
     width="4320"
     height="2880" />
</svg>
