<?xml version="1.0" encoding="UTF-8" standalone="no"?>
<svg
   xmlns:dc="http://purl.org/dc/elements/1.1/"
   xmlns:cc="http://creativecommons.org/ns#"
   xmlns:rdf="http://www.w3.org/1999/02/22-rdf-syntax-ns#"
   xmlns:svg="http://www.w3.org/2000/svg"
   xmlns="http://www.w3.org/2000/svg"
   xmlns:xlink="http://www.w3.org/1999/xlink"
   xmlns:sodipodi="http://sodipodi.sourceforge.net/DTD/sodipodi-0.dtd"
   xmlns:inkscape="http://www.inkscape.org/namespaces/inkscape"
   width="256"
   height="256"
   viewBox="-72 -28 144 96"
   preserveAspectRatio="xMidYMid meet"
   zoomAndPan="magnify"
   id="svg2439"
   sodipodi:version="0.32"
   inkscape:version="0.46"
   sodipodi:docname="Flag_of_Mauritania.svg"
   inkscape:output_extension="org.inkscape.output.svg.inkscape"
   version="1.0">
  <metadata
     id="metadata2464">
    <rdf:RDF>
      <cc:Work
         rdf:about="">
        <dc:format>image/svg+xml</dc:format>
        <dc:type
           rdf:resource="http://purl.org/dc/dcmitype/StillImage" />
      </cc:Work>
    </rdf:RDF>
  </metadata>
  <defs
     id="defs2462">
    <inkscape:perspective
       sodipodi:type="inkscape:persp3d"
       inkscape:vp_x="0 : 300 : 1"
       inkscape:vp_y="0 : 1000 : 0"
       inkscape:vp_z="900 : 300 : 1"
       inkscape:persp3d-origin="450 : 200 : 1"
       id="perspective2466" />
  </defs>
  <sodipodi:namedview
     inkscape:window-height="795"
     inkscape:window-width="957"
     inkscape:pageshadow="2"
     inkscape:pageopacity="0.0"
     guidetolerance="10.0"
     gridtolerance="10.0"
     objecttolerance="10.0"
     borderopacity="1.0"
     bordercolor="#666666"
     pagecolor="#ffffff"
     id="base"
     showgrid="false"
     inkscape:zoom="0.62111111"
     inkscape:cx="450"
     inkscape:cy="300"
     inkscape:window-x="19"
     inkscape:window-y="69"
     inkscape:current-layer="svg2439" />
  <rect
     x="-72"
     y="-28"
     width="144"
     height="96"
     id="rect2441"
     style="fill:#006233" />
  <circle
     r="31"
     cy="8"
     id="circle2443"
     cx="0"
     sodipodi:cx="0"
     sodipodi:cy="8"
     sodipodi:rx="31"
     sodipodi:ry="31"
     style="fill:#ffc400" />
  <path
     d="M -30,0 C -30,16.568542 -16.568542,30 1.8369702e-15,30 C 16.568542,30 30,16.568542 30,0 L 30,-24 L -30,-24"
     id="path2445"
     style="fill:#006233" />
  <g
     transform="scale(12,12)"
     id="g2447"
     style="fill:#ffc400">
    <g
       id="cone">
      <polygon
         id="triangle"
         points="0,0 0,1 0.5,1 0,0 "
         transform="matrix(0.9510565,0.309017,-0.309017,0.9510565,0,-1)" />
      <use
         xlink:href="#triangle"
         transform="scale(-1,1)"
         id="use2451"
         x="0"
         y="0"
         width="144"
         height="96" />
    </g>
    <use
       xlink:href="#cone"
       transform="matrix(0.309017,0.9510565,-0.9510565,0.309017,0,0)"
       id="use2453"
       x="0"
       y="0"
       width="144"
       height="96" />
    <use
       xlink:href="#cone"
       transform="matrix(0.309017,-0.9510565,0.9510565,0.309017,0,0)"
       id="use2455"
       x="0"
       y="0"
       width="144"
       height="96" />
    <use
       xlink:href="#cone"
       transform="matrix(-0.809017,0.5877853,-0.5877853,-0.809017,0,0)"
       id="use2457"
       x="0"
       y="0"
       width="144"
       height="96" />
    <use
       xlink:href="#cone"
       transform="matrix(-0.809017,-0.5877853,0.5877853,-0.809017,0,0)"
       id="use2459"
       x="0"
       y="0"
       width="144"
       height="96" />
  </g>
</svg>
