<?xml version="1.0" encoding="UTF-8" standalone="no"?>
<svg
   xmlns:dc="http://purl.org/dc/elements/1.1/"
   xmlns:cc="http://creativecommons.org/ns#"
   xmlns:rdf="http://www.w3.org/1999/02/22-rdf-syntax-ns#"
   xmlns:svg="http://www.w3.org/2000/svg"
   xmlns="http://www.w3.org/2000/svg"
   xmlns:sodipodi="http://sodipodi.sourceforge.net/DTD/sodipodi-0.dtd"
   xmlns:inkscape="http://www.inkscape.org/namespaces/inkscape"
   viewBox="0 0 27 18"
   width="256"
   height="256"
   id="svg2494"
   sodipodi:version="0.32"
   inkscape:version="0.46"
   sodipodi:docname="Flag_of_Greece.svg"
   inkscape:output_extension="org.inkscape.output.svg.inkscape"
   version="1.0">
  <metadata
     id="metadata2503">
    <rdf:RDF>
      <cc:Work
         rdf:about="">
        <dc:format>image/svg+xml</dc:format>
        <dc:type
           rdf:resource="http://purl.org/dc/dcmitype/StillImage" />
      </cc:Work>
    </rdf:RDF>
  </metadata>
  <defs
     id="defs2501">
    <inkscape:perspective
       sodipodi:type="inkscape:persp3d"
       inkscape:vp_x="0 : 270 : 1"
       inkscape:vp_y="0 : 1000 : 0"
       inkscape:vp_z="810 : 270 : 1"
       inkscape:persp3d-origin="405 : 180 : 1"
       id="perspective2505" />
  </defs>
  <sodipodi:namedview
     inkscape:window-height="674"
     inkscape:window-width="640"
     inkscape:pageshadow="2"
     inkscape:pageopacity="0.0"
     guidetolerance="10.0"
     gridtolerance="10.0"
     objecttolerance="10.0"
     borderopacity="1.0"
     bordercolor="#666666"
     pagecolor="#ffffff"
     id="base"
     showgrid="false"
     inkscape:zoom="0.69012346"
     inkscape:cx="405"
     inkscape:cy="270"
     inkscape:window-x="57"
     inkscape:window-y="182"
     inkscape:current-layer="svg2494" />
  <rect
     width="27"
     height="18"
     id="rect2496"
     x="0"
     y="0"
     style="fill:#000080" />
  <path
     d="M 4,0 L 6,0 L 6,4 L 10,4 L 10,6 L 6,6 L 6,10 L 27,10 L 27,12 L 0,12 L 0,10 L 4,10 L 4,6 L 0,6 L 0,4 L 4,4 L 4,0 z M 10,2 L 27,2 L 27,4 L 10,4 L 10,2 z M 10,6 L 27,6 L 27,8 L 10,8 L 10,6 z M 0,10 L 0,12 L 0,10 z M 0,14 L 27,14 L 27,16 L 0,16 L 0,14 z"
     id="path2498"
     style="fill:#ffffff" />
</svg>
