<?xml version="1.0" encoding="UTF-8" standalone="no"?>
<!-- Created with Inkscape (http://www.inkscape.org/) -->
<svg
   xmlns:dc="http://purl.org/dc/elements/1.1/"
   xmlns:cc="http://creativecommons.org/ns#"
   xmlns:rdf="http://www.w3.org/1999/02/22-rdf-syntax-ns#"
   xmlns:svg="http://www.w3.org/2000/svg"
   xmlns="http://www.w3.org/2000/svg"
   xmlns:xlink="http://www.w3.org/1999/xlink"
   xmlns:sodipodi="http://sodipodi.sourceforge.net/DTD/sodipodi-0.dtd"
   xmlns:inkscape="http://www.inkscape.org/namespaces/inkscape"
   version="1.0"
   width="256"
   height="256"
   id="svg2383"
   sodipodi:version="0.32"
   inkscape:version="0.46"
   sodipodi:docname="Flag_of_Iran.svg"
   inkscape:output_extension="org.inkscape.output.svg.inkscape">
  <metadata
     id="metadata4456">
    <rdf:RDF>
      <cc:Work
         rdf:about="">
        <dc:format>image/svg+xml</dc:format>
        <dc:type
           rdf:resource="http://purl.org/dc/dcmitype/StillImage" />
      </cc:Work>
    </rdf:RDF>
  </metadata>
  <sodipodi:namedview
     inkscape:window-height="728"
     inkscape:window-width="950"
     inkscape:pageshadow="2"
     inkscape:pageopacity="0.0"
     guidetolerance="10.0"
     gridtolerance="10.0"
     objecttolerance="10.0"
     borderopacity="1.0"
     bordercolor="#666666"
     pagecolor="#ffffff"
     id="base"
     showgrid="false"
     inkscape:zoom="0.36298701"
     inkscape:cx="770"
     inkscape:cy="440"
     inkscape:window-x="75"
     inkscape:window-y="156"
     inkscape:current-layer="svg2383" />
  <defs
     id="defs2385">
    <inkscape:perspective
       sodipodi:type="inkscape:persp3d"
       inkscape:vp_x="0 : 440 : 1"
       inkscape:vp_y="0 : 1000 : 0"
       inkscape:vp_z="1540 : 440 : 1"
       inkscape:persp3d-origin="770 : 293.33333 : 1"
       id="perspective4458" />
    <path
       d="M 0,0 L 1,0 L 1,-2 L 4,-2 L 4,0 L 9,0 L 9,-3 L 6,-3 L 6,-2 L 8,-2 L 8,-1 L 5,-1 L 5,-3 L 0,-3 L 0,0 z M 2,0 L 3,0 L 3,-1 L 2,-1 L 2,0 z M 0,-4 L 13,-4 L 13,-5 L 0,-5 L 0,-4 z M 13,0 L 10,0 L 10,-3 L 14,-3 L 14,-5 L 15,-5 L 15,-1 L 16,-1 L 16,-5 L 17,-5 L 17,-1 L 18,-1 L 18,-5 L 19,-5 L 19,0 L 14,0 L 14,-2 L 11,-2 L 11,-1 L 13,-1 L 13,0 z"
       transform="translate(-9.5,0)"
       id="Allahu_Akbar"
       style="fill:#ffffff" />
    <path
       d="M 0,0 L 9,0 L 9,-2 L 0,-2 L 0,0 z M 10,0 L 19,0 L 19,-2 L 10,-2 L 10,0 z"
       transform="translate(-9.5,0)"
       id="lines"
       style="fill:#ffffff" />
  </defs>
  <rect
     width="256"
     height="146.28572"
     x="0"
     y="54.714279"
     id="rect2389"
     style="fill:#ffffff" />
  <rect
     width="256"
     height="48.872726"
     x="0"
     y="54.714279"
     id="rect2391"
     style="fill:#239f40" />
  <rect
     width="256"
     height="48.872726"
     x="0"
     y="152.12724"
     id="rect2395"
     style="fill:#da0000" />
  <path
     d="M 128,112.48919 L 125.72685,114.33613 L 126.15306,143.88708 L 128,146.01816 L 129.84694,143.88708 L 130.27315,114.33613 L 128,112.48919 z"
     id="path2399"
     style="fill:#da0000" />
  <path
     d="M 132.5463,109.36361 C 132.08416,110.11323 131.32724,110.63312 130.4617,110.79541 C 129.59615,110.9577 128.70231,110.74733 128,110.21604 C 127.29769,110.74733 126.40385,110.9577 125.5383,110.79541 C 124.67276,110.63312 123.91584,110.11323 123.4537,109.36361 C 123.14929,110.54788 123.67895,111.78886 124.74468,112.38833 C 125.81041,112.98781 127.14601,112.79603 128,111.9209 C 128.85399,112.79603 130.18959,112.98781 131.25532,112.38833 C 132.32105,111.78886 132.85071,110.54788 132.5463,109.36361"
     id="path2401"
     style="fill:#da0000" />
  <path
     d="M 133.68288,113.48369 C 138.03056,119.41099 138.44941,127.35221 134.74936,133.70397 C 131.0493,140.05572 123.93485,143.60862 116.63425,142.7505 C 124.51401,145.90266 133.51372,142.80599 137.78557,135.47264 C 142.05742,128.13929 140.31176,118.78318 133.68288,113.48369"
     id="path2403"
     style="fill:#da0000" />
  <path
     d="M 122.31712,113.48369 C 117.96944,119.41099 117.55059,127.35221 121.25064,133.70397 C 124.9507,140.05572 132.06515,143.60862 139.36575,142.7505 C 131.48599,145.90266 122.48628,142.80599 118.21443,135.47264 C 113.94258,128.13929 115.68824,118.78318 122.31712,113.48369"
     id="path2405"
     style="fill:#da0000" />
  <path
     d="M 135.81395,112.91541 C 139.98901,115.95242 142.70231,120.5983 143.29615,125.72683 C 143.88997,130.85537 142.31011,135.99835 138.93953,139.90907 C 144.20307,137.06263 147.20323,131.2983 146.51496,125.35413 C 145.82669,119.40995 141.58867,114.48373 135.81395,112.91541"
     id="path2407"
     style="fill:#da0000" />
  <path
     d="M 120.18605,112.91541 C 116.01099,115.95242 113.29769,120.5983 112.70385,125.72683 C 112.11003,130.85537 113.68989,135.99835 117.06047,139.90907 C 111.79693,137.06263 108.79677,131.2983 109.48504,125.35413 C 110.17331,119.40995 114.41133,114.48373 120.18605,112.91541"
     id="path2409"
     style="fill:#da0000" />
  <use
     transform="matrix(1.1636364,0,0,1.1636364,11.636364,101.25972)"
     id="use2412"
     x="0"
     y="0"
     width="1540"
     height="880"
     xlink:href="#Allahu_Akbar" />
  <use
     transform="matrix(1.1636364,0,0,1.1636364,34.909091,101.25972)"
     id="use2414"
     x="0"
     y="0"
     width="1540"
     height="880"
     xlink:href="#Allahu_Akbar" />
  <use
     transform="matrix(1.1636364,0,0,1.1636364,58.181818,101.25972)"
     id="use2416"
     x="0"
     y="0"
     width="1540"
     height="880"
     xlink:href="#Allahu_Akbar" />
  <use
     transform="matrix(1.1636364,0,0,1.1636364,81.454545,101.25972)"
     id="use2418"
     x="0"
     y="0"
     width="1540"
     height="880"
     xlink:href="#Allahu_Akbar" />
  <use
     transform="matrix(1.1636364,0,0,1.1636364,104.72727,101.25972)"
     id="use2420"
     x="0"
     y="0"
     width="1540"
     height="880"
     xlink:href="#Allahu_Akbar" />
  <use
     transform="matrix(1.1636364,0,0,1.1636364,128,101.25972)"
     id="use2422"
     x="0"
     y="0"
     width="1540"
     height="880"
     xlink:href="#Allahu_Akbar" />
  <use
     transform="matrix(1.1636364,0,0,1.1636364,151.27273,101.25972)"
     id="use2424"
     x="0"
     y="0"
     width="1540"
     height="880"
     xlink:href="#Allahu_Akbar" />
  <use
     transform="matrix(1.1636364,0,0,1.1636364,174.54545,101.25972)"
     id="use2426"
     x="0"
     y="0"
     width="1540"
     height="880"
     xlink:href="#Allahu_Akbar" />
  <use
     transform="matrix(1.1636364,0,0,1.1636364,197.81818,101.25972)"
     id="use2428"
     x="0"
     y="0"
     width="1540"
     height="880"
     xlink:href="#Allahu_Akbar" />
  <use
     transform="matrix(1.1636364,0,0,1.1636364,221.09091,101.25972)"
     id="use2430"
     x="0"
     y="0"
     width="1540"
     height="880"
     xlink:href="#Allahu_Akbar" />
  <use
     transform="matrix(1.1636364,0,0,1.1636364,244.36364,101.25972)"
     id="use2432"
     x="0"
     y="0"
     width="1540"
     height="880"
     xlink:href="#Allahu_Akbar" />
  <use
     transform="matrix(1.1636364,0,0,1.1636364,11.636364,104.75063)"
     id="use2435"
     x="0"
     y="0"
     width="1540"
     height="880"
     xlink:href="#lines" />
  <use
     transform="matrix(1.1636364,0,0,1.1636364,34.909091,104.75063)"
     id="use2437"
     x="0"
     y="0"
     width="1540"
     height="880"
     xlink:href="#lines" />
  <use
     transform="matrix(1.1636364,0,0,1.1636364,58.181818,104.75063)"
     id="use2439"
     x="0"
     y="0"
     width="1540"
     height="880"
     xlink:href="#lines" />
  <use
     transform="matrix(1.1636364,0,0,1.1636364,81.454545,104.75063)"
     id="use2441"
     x="0"
     y="0"
     width="1540"
     height="880"
     xlink:href="#lines" />
  <use
     transform="matrix(1.1636364,0,0,1.1636364,104.72727,104.75063)"
     id="use2443"
     x="0"
     y="0"
     width="1540"
     height="880"
     xlink:href="#lines" />
  <use
     transform="matrix(1.1636364,0,0,1.1636364,128,104.75063)"
     id="use2445"
     x="0"
     y="0"
     width="1540"
     height="880"
     xlink:href="#lines" />
  <use
     transform="matrix(1.1636364,0,0,1.1636364,151.27273,104.75063)"
     id="use2447"
     x="0"
     y="0"
     width="1540"
     height="880"
     xlink:href="#lines" />
  <use
     transform="matrix(1.1636364,0,0,1.1636364,174.54545,104.75063)"
     id="use2449"
     x="0"
     y="0"
     width="1540"
     height="880"
     xlink:href="#lines" />
  <use
     transform="matrix(1.1636364,0,0,1.1636364,197.81818,104.75063)"
     id="use2451"
     x="0"
     y="0"
     width="1540"
     height="880"
     xlink:href="#lines" />
  <use
     transform="matrix(1.1636364,0,0,1.1636364,221.09091,104.75063)"
     id="use2453"
     x="0"
     y="0"
     width="1540"
     height="880"
     xlink:href="#lines" />
  <use
     transform="matrix(1.1636364,0,0,1.1636364,244.36364,104.75063)"
     id="use2455"
     x="0"
     y="0"
     width="1540"
     height="880"
     xlink:href="#lines" />
  <use
     transform="matrix(1.1636364,0,0,1.1636364,11.636364,160.27271)"
     id="use2579"
     x="0"
     y="0"
     width="1540"
     height="880"
     xlink:href="#Allahu_Akbar" />
  <use
     transform="matrix(1.1636364,0,0,1.1636364,34.909091,160.27271)"
     id="use2581"
     x="0"
     y="0"
     width="1540"
     height="880"
     xlink:href="#Allahu_Akbar" />
  <use
     transform="matrix(1.1636364,0,0,1.1636364,58.181818,160.27271)"
     id="use2583"
     x="0"
     y="0"
     width="1540"
     height="880"
     xlink:href="#Allahu_Akbar" />
  <use
     transform="matrix(1.1636364,0,0,1.1636364,81.454545,160.27271)"
     id="use2585"
     x="0"
     y="0"
     width="1540"
     height="880"
     xlink:href="#Allahu_Akbar" />
  <use
     transform="matrix(1.1636364,0,0,1.1636364,104.72727,160.27271)"
     id="use2587"
     x="0"
     y="0"
     width="1540"
     height="880"
     xlink:href="#Allahu_Akbar" />
  <use
     transform="matrix(1.1636364,0,0,1.1636364,128,160.27271)"
     id="use2589"
     x="0"
     y="0"
     width="1540"
     height="880"
     xlink:href="#Allahu_Akbar" />
  <use
     transform="matrix(1.1636364,0,0,1.1636364,151.27273,160.27271)"
     id="use2591"
     x="0"
     y="0"
     width="1540"
     height="880"
     xlink:href="#Allahu_Akbar" />
  <use
     transform="matrix(1.1636364,0,0,1.1636364,174.54545,160.27271)"
     id="use2593"
     x="0"
     y="0"
     width="1540"
     height="880"
     xlink:href="#Allahu_Akbar" />
  <use
     transform="matrix(1.1636364,0,0,1.1636364,197.81818,160.27271)"
     id="use2595"
     x="0"
     y="0"
     width="1540"
     height="880"
     xlink:href="#Allahu_Akbar" />
  <use
     transform="matrix(1.1636364,0,0,1.1636364,221.09091,160.27271)"
     id="use2597"
     x="0"
     y="0"
     width="1540"
     height="880"
     xlink:href="#Allahu_Akbar" />
  <use
     transform="matrix(1.1636364,0,0,1.1636364,244.36364,160.27271)"
     id="use2599"
     x="0"
     y="0"
     width="1540"
     height="880"
     xlink:href="#Allahu_Akbar" />
  <use
     transform="matrix(1.1636364,0,0,1.1636364,11.636364,153.29089)"
     id="use2544"
     x="0"
     y="0"
     width="1540"
     height="880"
     xlink:href="#lines" />
  <use
     transform="matrix(1.1636364,0,0,1.1636364,34.909091,153.29089)"
     id="use2546"
     x="0"
     y="0"
     width="1540"
     height="880"
     xlink:href="#lines" />
  <use
     transform="matrix(1.1636364,0,0,1.1636364,58.181818,153.29089)"
     id="use2548"
     x="0"
     y="0"
     width="1540"
     height="880"
     xlink:href="#lines" />
  <use
     transform="matrix(1.1636364,0,0,1.1636364,81.454545,153.29089)"
     id="use2550"
     x="0"
     y="0"
     width="1540"
     height="880"
     xlink:href="#lines" />
  <use
     transform="matrix(1.1636364,0,0,1.1636364,104.72727,153.29089)"
     id="use2552"
     x="0"
     y="0"
     width="1540"
     height="880"
     xlink:href="#lines" />
  <use
     transform="matrix(1.1636364,0,0,1.1636364,128,153.29089)"
     id="use2554"
     x="0"
     y="0"
     width="1540"
     height="880"
     xlink:href="#lines" />
  <use
     transform="matrix(1.1636364,0,0,1.1636364,151.27273,153.29089)"
     id="use2556"
     x="0"
     y="0"
     width="1540"
     height="880"
     xlink:href="#lines" />
  <use
     transform="matrix(1.1636364,0,0,1.1636364,174.54545,153.29089)"
     id="use2558"
     x="0"
     y="0"
     width="1540"
     height="880"
     xlink:href="#lines" />
  <use
     transform="matrix(1.1636364,0,0,1.1636364,197.81818,153.29089)"
     id="use2560"
     x="0"
     y="0"
     width="1540"
     height="880"
     xlink:href="#lines" />
  <use
     transform="matrix(1.1636364,0,0,1.1636364,221.09091,153.29089)"
     id="use2562"
     x="0"
     y="0"
     width="1540"
     height="880"
     xlink:href="#lines" />
  <use
     transform="matrix(1.1636364,0,0,1.1636364,244.36364,153.29089)"
     id="use2564"
     x="0"
     y="0"
     width="1540"
     height="880"
     xlink:href="#lines" />
</svg>
