<?xml version="1.0" encoding="UTF-8" standalone="no"?>
<svg
   xmlns:dc="http://purl.org/dc/elements/1.1/"
   xmlns:cc="http://creativecommons.org/ns#"
   xmlns:rdf="http://www.w3.org/1999/02/22-rdf-syntax-ns#"
   xmlns:svg="http://www.w3.org/2000/svg"
   xmlns="http://www.w3.org/2000/svg"
   xmlns:xlink="http://www.w3.org/1999/xlink"
   xmlns:sodipodi="http://sodipodi.sourceforge.net/DTD/sodipodi-0.dtd"
   xmlns:inkscape="http://www.inkscape.org/namespaces/inkscape"
   version="1.0"
   baseProfile="full"
   preserveAspectRatio="xMidYMid meet"
   zoomAndPan="magnify"
   id="Flag_of_the_Cook_Islands"
   viewBox="-15 -7.5 30 15"
   width="256"
   height="256"
   sodipodi:version="0.32"
   inkscape:version="0.46"
   sodipodi:docname="Flag_of_the_Cook_Islands.svg"
   inkscape:output_extension="org.inkscape.output.svg.inkscape">
  <metadata
     id="metadata3931">
    <rdf:RDF>
      <cc:Work
         rdf:about="">
        <dc:format>image/svg+xml</dc:format>
        <dc:type
           rdf:resource="http://purl.org/dc/dcmitype/StillImage" />
      </cc:Work>
    </rdf:RDF>
  </metadata>
  <sodipodi:namedview
     inkscape:window-height="786"
     inkscape:window-width="864"
     inkscape:pageshadow="2"
     inkscape:pageopacity="0.0"
     guidetolerance="10.0"
     gridtolerance="10.0"
     objecttolerance="10.0"
     borderopacity="1.0"
     bordercolor="#666666"
     pagecolor="#ffffff"
     id="base"
     showgrid="false"
     inkscape:zoom="0.93166667"
     inkscape:cx="300"
     inkscape:cy="150"
     inkscape:window-x="4"
     inkscape:window-y="197"
     inkscape:current-layer="Flag_of_the_Cook_Islands" />
  <defs
     id="defs3868">
    <inkscape:perspective
       sodipodi:type="inkscape:persp3d"
       inkscape:vp_x="0 : 150 : 1"
       inkscape:vp_y="0 : 1000 : 0"
       inkscape:vp_z="600 : 150 : 1"
       inkscape:persp3d-origin="300 : 100 : 1"
       id="perspective3933" />
    <clipPath
       id="border">
      <rect
         x="-15"
         y="-7.5"
         width="30"
         height="15"
         id="rect3871" />
    </clipPath>
  </defs>
  <rect
     x="-15"
     y="-7.5"
     width="30"
     height="15"
     id="rect3873"
     style="fill:#00247d" />
  <comment
     id="comment3875">The above line is the ensign field color: #CF142B red and #00247D blue</comment>
  <g
     id="canton"
     transform="matrix(0.5,0,0,0.5,-7.5,-3.75)">
    <g
       clip-path="url(#border)"
       id="g3878">
      <circle
         r="20"
         id="circle3880"
         cx="0"
         cy="0"
         sodipodi:cx="0"
         sodipodi:cy="0"
         sodipodi:rx="20"
         sodipodi:ry="20"
         style="fill:#00247d" />
      <path
         d="M -20,-10 L 20,10 M -20,10 L 20,-10"
         id="diags_white"
         style="stroke:#ffffff;stroke-width:3" />
      <path
         d="M -20,-10 L 20,10 M -20,10 L 20,-10"
         id="diags_red"
         style="stroke:#cf142b;stroke-width:2" />
      <path
         d="M 0,0 L 20,10 L 17,10 L -3,0 M 0,0 L 20,-10 L 23,-10 L 3,0 M 0,0 L -20,10 L -23,10 L -3,0 M 0,0 L -20,-10 L -17,-10 L 3,0"
         id="eraser_white"
         style="fill:#ffffff;stroke:none" />
      <comment
         id="comment3885">I think the above two lines give the simplest way to make the diagonals</comment>
      <path
         d="M -20,0 L 20,0 M 0,-10 L 0,10"
         id="cross_white"
         style="stroke:#ffffff;stroke-width:5" />
      <path
         d="M -20,0 L 20,0 M 0,-10 L 0,10"
         id="cross_red"
         style="stroke:#cf142b;stroke-width:3" />
    </g>
  </g>
  <g
     id="star"
     transform="matrix(1.125,0,0,1.125,7.5,-5.1)"
     style="fill:#ffffff">
    <g
       id="cone">
      <polygon
         id="triangle"
         points="0,0 0,1 0.5,1 0,0 "
         transform="matrix(0.9510565,0.309017,-0.309017,0.9510565,0,-1)" />
      <use
         xlink:href="#triangle"
         transform="scale(-1,1)"
         id="use3892"
         x="0"
         y="0"
         width="30"
         height="15" />
    </g>
    <use
       xlink:href="#cone"
       transform="matrix(0.309017,0.9510565,-0.9510565,0.309017,0,0)"
       id="use3894"
       x="0"
       y="0"
       width="30"
       height="15" />
    <use
       xlink:href="#cone"
       transform="matrix(0.309017,-0.9510565,0.9510565,0.309017,0,0)"
       id="use3896"
       x="0"
       y="0"
       width="30"
       height="15" />
    <use
       xlink:href="#cone"
       transform="matrix(-0.809017,0.5877853,-0.5877853,-0.809017,0,0)"
       id="use3898"
       x="0"
       y="0"
       width="30"
       height="15" />
    <use
       xlink:href="#cone"
       transform="matrix(-0.809017,-0.5877853,0.5877853,-0.809017,0,0)"
       id="use3900"
       x="0"
       y="0"
       width="30"
       height="15" />
  </g>
  <use
     xlink:href="#star"
     transform="matrix(0.9135455,0.4067366,-0.4067366,0.9135455,0.6484091,-3.0505248)"
     id="use3902"
     x="0"
     y="0"
     width="30"
     height="15" />
  <use
     xlink:href="#star"
     transform="matrix(0.6691306,0.7431448,-0.7431448,0.6691306,2.4815205,-5.5735862)"
     id="use3904"
     x="0"
     y="0"
     width="30"
     height="15" />
  <use
     xlink:href="#star"
     transform="matrix(0.309017,0.9510565,-0.9510565,0.309017,5.1823725,-7.1329239)"
     id="use3906"
     x="0"
     y="0"
     width="30"
     height="15" />
  <use
     xlink:href="#star"
     transform="matrix(-0.1045285,0.9945219,-0.9945219,-0.1045285,8.2839635,-7.4589142)"
     id="use3908"
     x="0"
     y="0"
     width="30"
     height="15" />
  <use
     xlink:href="#star"
     transform="matrix(-0.5,0.8660254,-0.8660254,-0.5,11.25,-6.4951905)"
     id="use3910"
     x="0"
     y="0"
     width="30"
     height="15" />
  <use
     xlink:href="#star"
     transform="matrix(-0.809017,0.5877853,-0.5877853,-0.809017,13.567627,-4.4083894)"
     id="use3912"
     x="0"
     y="0"
     width="30"
     height="15" />
  <use
     xlink:href="#star"
     transform="matrix(-0.9781476,0.2079117,-0.2079117,-0.9781476,14.836107,-1.5593377)"
     id="use3914"
     x="0"
     y="0"
     width="30"
     height="15" />
  <use
     xlink:href="#star"
     transform="matrix(-0.9781476,-0.2079117,0.2079117,-0.9781476,14.836107,1.5593377)"
     id="use3916"
     x="0"
     y="0"
     width="30"
     height="15" />
  <use
     xlink:href="#star"
     transform="matrix(-0.809017,-0.5877853,0.5877853,-0.809017,13.567627,4.4083894)"
     id="use3918"
     x="0"
     y="0"
     width="30"
     height="15" />
  <use
     xlink:href="#star"
     transform="matrix(-0.5,-0.8660254,0.8660254,-0.5,11.25,6.4951905)"
     id="use3920"
     x="0"
     y="0"
     width="30"
     height="15" />
  <use
     xlink:href="#star"
     transform="matrix(-0.1045285,-0.9945219,0.9945219,-0.1045285,8.2839635,7.4589142)"
     id="use3922"
     x="0"
     y="0"
     width="30"
     height="15" />
  <use
     xlink:href="#star"
     transform="matrix(0.309017,-0.9510565,0.9510565,0.309017,5.1823725,7.1329239)"
     id="use3924"
     x="0"
     y="0"
     width="30"
     height="15" />
  <use
     xlink:href="#star"
     transform="matrix(0.6691306,-0.7431448,0.7431448,0.6691306,2.4815205,5.5735862)"
     id="use3926"
     x="0"
     y="0"
     width="30"
     height="15" />
  <use
     xlink:href="#star"
     transform="matrix(0.9135455,-0.4067366,0.4067366,0.9135455,0.6484091,3.0505248)"
     id="use3928"
     x="0"
     y="0"
     width="30"
     height="15" />
</svg>
