<?xml version="1.0" encoding="UTF-8" standalone="no"?>
<svg
   xmlns:dc="http://purl.org/dc/elements/1.1/"
   xmlns:cc="http://creativecommons.org/ns#"
   xmlns:rdf="http://www.w3.org/1999/02/22-rdf-syntax-ns#"
   xmlns:svg="http://www.w3.org/2000/svg"
   xmlns="http://www.w3.org/2000/svg"
   xmlns:xlink="http://www.w3.org/1999/xlink"
   xmlns:sodipodi="http://sodipodi.sourceforge.net/DTD/sodipodi-0.dtd"
   xmlns:inkscape="http://www.inkscape.org/namespaces/inkscape"
   width="256"
   height="256"
   viewBox="-150 -100 300 200"
   id="svg2"
   sodipodi:version="0.32"
   inkscape:version="0.46"
   sodipodi:docname="Flag_of_Georgia.svg"
   inkscape:output_extension="org.inkscape.output.svg.inkscape"
   version="1.0">
  <metadata
     id="metadata29">
    <rdf:RDF>
      <cc:Work
         rdf:about="">
        <dc:format>image/svg+xml</dc:format>
        <dc:type
           rdf:resource="http://purl.org/dc/dcmitype/StillImage" />
      </cc:Work>
    </rdf:RDF>
  </metadata>
  <sodipodi:namedview
     inkscape:window-height="674"
     inkscape:window-width="640"
     inkscape:pageshadow="2"
     inkscape:pageopacity="0.0"
     guidetolerance="10.0"
     gridtolerance="10.0"
     objecttolerance="10.0"
     borderopacity="1.0"
     bordercolor="#666666"
     pagecolor="#ffffff"
     id="base"
     showgrid="false"
     inkscape:zoom="0.62111111"
     inkscape:cx="450"
     inkscape:cy="300"
     inkscape:window-x="26"
     inkscape:window-y="164"
     inkscape:current-layer="svg2" />
  <defs
     id="defs4">
    <inkscape:perspective
       sodipodi:type="inkscape:persp3d"
       inkscape:vp_x="0 : 300 : 1"
       inkscape:vp_y="0 : 1000 : 0"
       inkscape:vp_z="900 : 300 : 1"
       inkscape:persp3d-origin="450 : 200 : 1"
       id="perspective31" />
    <g
       id="smallcross">
      <clipPath
         id="vclip">
        <path
           d="M -109,104 C -51.562386,104 -5,57.437614 -5,0 C -5,-57.437614 -51.562386,-104 -109,-104 L 109,-104 C 51.562386,-104 5,-57.437614 5,-1.2736327e-14 C 5,57.437614 51.562386,104 109,104 L -109,104 z"
           id="path8" />
      </clipPath>
      <path
         id="varm"
         d="M -55,74 C -55,43.624339 -30.375661,19 -1.0103336e-14,19 C 30.375661,19 55,43.624339 55,74 L 55,-74 C 55,-43.624339 30.375661,-19 3.3677787e-15,-19 C -30.375661,-19 -55,-43.624339 -55,-74 L -55,74 z"
         clip-path="url(#vclip)" />
      <use
         xlink:href="#varm"
         transform="matrix(0,1,-1,0,0,0)"
         id="use11"
         x="0"
         y="0"
         width="300"
         height="200" />
    </g>
  </defs>
  <rect
     x="-150"
     y="-100"
     width="300"
     height="200"
     id="rect13"
     style="fill:#ffffff" />
  <g
     id="bigcross"
     style="fill:#ff0000">
    <rect
       x="-20"
       y="-100"
       width="40"
       height="200"
       id="rect16" />
    <rect
       x="-150"
       y="-20"
       width="300"
       height="40"
       id="rect18" />
  </g>
  <use
     xlink:href="#smallcross"
     transform="translate(-85,-60)"
     id="use20"
     style="fill:#ff0000"
     x="0"
     y="0"
     width="300"
     height="200" />
  <use
     xlink:href="#smallcross"
     transform="translate(85,-60)"
     id="use22"
     style="fill:#ff0000"
     x="0"
     y="0"
     width="300"
     height="200" />
  <use
     xlink:href="#smallcross"
     transform="translate(-85,60)"
     id="use24"
     style="fill:#ff0000"
     x="0"
     y="0"
     width="300"
     height="200" />
  <use
     xlink:href="#smallcross"
     transform="translate(85,60)"
     id="use26"
     style="fill:#ff0000"
     x="0"
     y="0"
     width="300"
     height="200" />
</svg>
