<?xml version="1.0" encoding="UTF-8" standalone="no"?>
<svg
   xmlns:dc="http://purl.org/dc/elements/1.1/"
   xmlns:cc="http://creativecommons.org/ns#"
   xmlns:rdf="http://www.w3.org/1999/02/22-rdf-syntax-ns#"
   xmlns:svg="http://www.w3.org/2000/svg"
   xmlns="http://www.w3.org/2000/svg"
   xmlns:sodipodi="http://sodipodi.sourceforge.net/DTD/sodipodi-0.dtd"
   xmlns:inkscape="http://www.inkscape.org/namespaces/inkscape"
   viewBox="0 0 60 30"
   width="256"
   height="256"
   id="svg2739"
   sodipodi:version="0.32"
   inkscape:version="0.46"
   sodipodi:docname="Flag_of_the_United_Kingdom.svg"
   inkscape:output_extension="org.inkscape.output.svg.inkscape"
   version="1.0">
  <metadata
     id="metadata2757">
    <rdf:RDF>
      <cc:Work
         rdf:about="">
        <dc:format>image/svg+xml</dc:format>
        <dc:type
           rdf:resource="http://purl.org/dc/dcmitype/StillImage" />
      </cc:Work>
    </rdf:RDF>
  </metadata>
  <defs
     id="defs2755">
    <inkscape:perspective
       sodipodi:type="inkscape:persp3d"
       inkscape:vp_x="0 : 300 : 1"
       inkscape:vp_y="0 : 1000 : 0"
       inkscape:vp_z="1200 : 300 : 1"
       inkscape:persp3d-origin="600 : 200 : 1"
       id="perspective2759" />
  </defs>
  <sodipodi:namedview
     inkscape:window-height="734"
     inkscape:window-width="916"
     inkscape:pageshadow="2"
     inkscape:pageopacity="0.0"
     guidetolerance="10.0"
     gridtolerance="10.0"
     objecttolerance="10.0"
     borderopacity="1.0"
     bordercolor="#666666"
     pagecolor="#ffffff"
     id="base"
     showgrid="false"
     inkscape:zoom="0.46583333"
     inkscape:cx="600"
     inkscape:cy="300"
     inkscape:window-x="70"
     inkscape:window-y="108"
     inkscape:current-layer="svg2739" />
  <clipPath
     id="t">
    <path
       d="M 30,15 L 60,15 L 60,30 L 30,15 z M 30,15 L 30,30 L 0,30 L 30,15 z M 30,15 L 0,15 L 0,0 L 30,15 z M 30,15 L 30,0 L 60,0 L 30,15 z"
       id="path2742" />
  </clipPath>
  <path
     d="M 0,0 L 0,30 L 60,30 L 60,0 L 0,0 z"
     id="path2744"
     style="fill:#00247d" />
  <path
     d="M 0,0 L 60,30 M 60,0 L 0,30"
     id="path2746"
     style="stroke:#ffffff;stroke-width:6" />
  <path
     d="M 0,0 L 60,30 M 60,0 L 0,30"
     clip-path="url(#t)"
     id="path2748"
     style="stroke:#cf142b;stroke-width:4" />
  <path
     d="M 30,0 L 30,30 M 0,15 L 60,15"
     id="path2750"
     style="stroke:#ffffff;stroke-width:10" />
  <path
     d="M 30,0 L 30,30 M 0,15 L 60,15"
     id="path2752"
     style="stroke:#cf142b;stroke-width:6" />
</svg>
