<?xml version="1.0" encoding="UTF-8" standalone="no"?>
<!-- Created with Inkscape (http://www.inkscape.org/) -->
<svg
   xmlns:dc="http://purl.org/dc/elements/1.1/"
   xmlns:cc="http://creativecommons.org/ns#"
   xmlns:rdf="http://www.w3.org/1999/02/22-rdf-syntax-ns#"
   xmlns:svg="http://www.w3.org/2000/svg"
   xmlns="http://www.w3.org/2000/svg"
   xmlns:sodipodi="http://sodipodi.sourceforge.net/DTD/sodipodi-0.dtd"
   xmlns:inkscape="http://www.inkscape.org/namespaces/inkscape"
   version="1.0"
   width="256"
   height="256"
   id="Flag of Macedonia"
   sodipodi:version="0.32"
   inkscape:version="0.46"
   sodipodi:docname="Flag_of_Macedonia.svg"
   inkscape:output_extension="org.inkscape.output.svg.inkscape">
  <metadata
     id="metadata3028">
    <rdf:RDF>
      <cc:Work
         rdf:about="">
        <dc:format>image/svg+xml</dc:format>
        <dc:type
           rdf:resource="http://purl.org/dc/dcmitype/StillImage" />
      </cc:Work>
    </rdf:RDF>
  </metadata>
  <sodipodi:namedview
     inkscape:window-height="743"
     inkscape:window-width="843"
     inkscape:pageshadow="2"
     inkscape:pageopacity="0.0"
     guidetolerance="10.0"
     gridtolerance="10.0"
     objecttolerance="10.0"
     borderopacity="1.0"
     bordercolor="#666666"
     pagecolor="#ffffff"
     id="base"
     showgrid="false"
     inkscape:zoom="0.69875"
     inkscape:cx="400"
     inkscape:cy="200"
     inkscape:window-x="36"
     inkscape:window-y="0"
     inkscape:current-layer="Flag of Macedonia" />
  <defs
     id="defs15">
    <inkscape:perspective
       sodipodi:type="inkscape:persp3d"
       inkscape:vp_x="0 : 200 : 1"
       inkscape:vp_y="0 : 1000 : 0"
       inkscape:vp_z="800 : 200 : 1"
       inkscape:persp3d-origin="400 : 133.33333 : 1"
       id="perspective3030" />
  </defs>
  <rect
     width="256"
     height="127.99999"
     x="0"
     y="64"
     id="red background"
     style="fill:#d20000" />
  <polygon
     points="0,0 120,0 680,400 800,400 0,0 "
     transform="matrix(0.32,0,0,0.32,0,64.00001)"
     id="yellow ray 1"
     style="fill:#ffe600" />
  <polygon
     points="360,0 440,0 360,400 440,400 360,0 "
     transform="matrix(0.32,0,0,0.32,0,64.00001)"
     id="yellow ray 2"
     style="fill:#ffe600" />
  <polygon
     points="680,0 800,0 0,400 120,400 680,0 "
     transform="matrix(0.32,0,0,0.32,0,64.00001)"
     id="yellow ray 3"
     style="fill:#ffe600" />
  <polygon
     points="0,160 0,240 800,160 800,240 0,160 "
     transform="matrix(0.32,0,0,0.32,0,64.00001)"
     id="yellow ray 4"
     style="fill:#ffe600" />
  <circle
     cx="400"
     cy="200"
     r="60"
     transform="matrix(0.3809524,0,0,0.3809524,-24.380965,51.809531)"
     id="outer circle"
     style="fill:#d20000"
     sodipodi:cx="400"
     sodipodi:cy="200"
     sodipodi:rx="60"
     sodipodi:ry="60" />
  <circle
     cx="400"
     cy="200"
     r="50"
     transform="matrix(0.3657143,0,0,0.3657143,-18.285715,54.857161)"
     id="inner circle"
     style="fill:#ffe600"
     sodipodi:cx="400"
     sodipodi:cy="200"
     sodipodi:rx="50"
     sodipodi:ry="50" />
</svg>
