<?xml version="1.0" encoding="UTF-8" standalone="no"?>
<svg
   xmlns:dc="http://purl.org/dc/elements/1.1/"
   xmlns:cc="http://creativecommons.org/ns#"
   xmlns:rdf="http://www.w3.org/1999/02/22-rdf-syntax-ns#"
   xmlns:svg="http://www.w3.org/2000/svg"
   xmlns="http://www.w3.org/2000/svg"
   xmlns:xlink="http://www.w3.org/1999/xlink"
   xmlns:sodipodi="http://sodipodi.sourceforge.net/DTD/sodipodi-0.dtd"
   xmlns:inkscape="http://www.inkscape.org/namespaces/inkscape"
   width="256"
   height="256"
   viewBox="-30 -20 60 40"
   id="svg3289"
   sodipodi:version="0.32"
   inkscape:version="0.46"
   sodipodi:docname="Flag_of_Algeria.svg"
   inkscape:output_extension="org.inkscape.output.svg.inkscape"
   version="1.0">
  <metadata
     id="metadata3318">
    <rdf:RDF>
      <cc:Work
         rdf:about="">
        <dc:format>image/svg+xml</dc:format>
        <dc:type
           rdf:resource="http://purl.org/dc/dcmitype/StillImage" />
      </cc:Work>
    </rdf:RDF>
  </metadata>
  <sodipodi:namedview
     inkscape:window-height="674"
     inkscape:window-width="640"
     inkscape:pageshadow="2"
     inkscape:pageopacity="0.0"
     guidetolerance="10.0"
     gridtolerance="10.0"
     objecttolerance="10.0"
     borderopacity="1.0"
     bordercolor="#666666"
     pagecolor="#ffffff"
     id="base"
     showgrid="false"
     inkscape:zoom="0.62111111"
     inkscape:cx="450"
     inkscape:cy="300"
     inkscape:window-x="24"
     inkscape:window-y="241"
     inkscape:current-layer="svg3289" />
  <desc
     id="desc3291">Flag of Algeria</desc>
  <defs
     id="defs3293">
    <inkscape:perspective
       sodipodi:type="inkscape:persp3d"
       inkscape:vp_x="0 : 300 : 1"
       inkscape:vp_y="0 : 1000 : 0"
       inkscape:vp_z="900 : 300 : 1"
       inkscape:persp3d-origin="450 : 200 : 1"
       id="perspective3320" />
  </defs>
  <rect
     x="-30"
     y="-20"
     width="60"
     height="40"
     id="rect3295"
     style="fill:#ffffff" />
  <rect
     x="-30"
     y="-20"
     width="30"
     height="40"
     id="rect3297"
     style="fill:#007229" />
  <g
     id="g3299"
     style="fill:#d21034">
<!-- sqrt(75) -->    <path
       d="M 8.660254,5 C 6.3972256,8.9196802 1.7836447,10.830688 -2.5881905,9.6592583 C -6.9600256,8.4878286 -10,4.5260568 -10,1.2246468e-15 C -10,-4.5260568 -6.9600256,-8.4878286 -2.5881905,-9.6592583 C 1.7836447,-10.830688 6.3972256,-8.9196802 8.660254,-5 C 6.5371707,-7.6517302 2.9709491,-8.6735438 -0.23427373,-7.5485093 C -3.4394966,-6.4234748 -5.584744,-3.3969334 -5.584744,-9.7971744e-16 C -5.584744,3.3969334 -3.4394966,6.4234748 -0.23427373,7.5485093 C 2.9709491,8.6735438 6.5371707,7.6517302 8.660254,5"
       id="path3301" />
<!-- cos(Pi/5) -->    <g
       transform="matrix(5,0,0,5,4.045085,0)"
       id="g3303">
      <g
         id="cone">
        <polygon
           id="triangle"
           points="0,0 -1,0 -1,0.5 0,0 "
           transform="matrix(0.9510565,0.309017,-0.309017,0.9510565,1,0)" />
        <use
           xlink:href="#triangle"
           transform="scale(1,-1)"
           id="use3307"
           x="0"
           y="0"
           width="60"
           height="40" />
      </g>
      <use
         xlink:href="#cone"
         transform="matrix(0.309017,0.9510565,-0.9510565,0.309017,0,0)"
         id="use3309"
         x="0"
         y="0"
         width="60"
         height="40" />
      <use
         xlink:href="#cone"
         transform="matrix(0.309017,-0.9510565,0.9510565,0.309017,0,0)"
         id="use3311"
         x="0"
         y="0"
         width="60"
         height="40" />
      <use
         xlink:href="#cone"
         transform="matrix(-0.809017,0.5877853,-0.5877853,-0.809017,0,0)"
         id="use3313"
         x="0"
         y="0"
         width="60"
         height="40" />
      <use
         xlink:href="#cone"
         transform="matrix(-0.809017,-0.5877853,0.5877853,-0.809017,0,0)"
         id="use3315"
         x="0"
         y="0"
         width="60"
         height="40" />
    </g>
  </g>
</svg>
