<?xml version="1.0" encoding="UTF-8" standalone="no"?>
<!-- Created with Inkscape (http://www.inkscape.org/) -->
<svg
   xmlns:dc="http://purl.org/dc/elements/1.1/"
   xmlns:cc="http://creativecommons.org/ns#"
   xmlns:rdf="http://www.w3.org/1999/02/22-rdf-syntax-ns#"
   xmlns:svg="http://www.w3.org/2000/svg"
   xmlns="http://www.w3.org/2000/svg"
   xmlns:xlink="http://www.w3.org/1999/xlink"
   xmlns:sodipodi="http://sodipodi.sourceforge.net/DTD/sodipodi-0.dtd"
   xmlns:inkscape="http://www.inkscape.org/namespaces/inkscape"
   version="1.0"
   width="256"
   height="256"
   viewBox="0 0 250 125"
   id="svg2"
   sodipodi:version="0.32"
   inkscape:version="0.46"
   sodipodi:docname="Flag_of_Uzbekistan.svg"
   inkscape:output_extension="org.inkscape.output.svg.inkscape">
  <metadata
     id="metadata2527">
    <rdf:RDF>
      <cc:Work
         rdf:about="">
        <dc:format>image/svg+xml</dc:format>
        <dc:type
           rdf:resource="http://purl.org/dc/dcmitype/StillImage" />
      </cc:Work>
    </rdf:RDF>
  </metadata>
  <sodipodi:namedview
     inkscape:window-height="702"
     inkscape:window-width="879"
     inkscape:pageshadow="2"
     inkscape:pageopacity="0.0"
     guidetolerance="10.0"
     gridtolerance="10.0"
     objecttolerance="10.0"
     borderopacity="1.0"
     bordercolor="#666666"
     pagecolor="#ffffff"
     id="base"
     showgrid="false"
     inkscape:zoom="1.118"
     inkscape:cx="250"
     inkscape:cy="125"
     inkscape:window-x="307"
     inkscape:window-y="27"
     inkscape:current-layer="svg2" />
  <defs
     id="defs9">
    <inkscape:perspective
       sodipodi:type="inkscape:persp3d"
       inkscape:vp_x="0 : 125 : 1"
       inkscape:vp_y="0 : 1000 : 0"
       inkscape:vp_z="500 : 125 : 1"
       inkscape:persp3d-origin="250 : 83.333333 : 1"
       id="perspective2529" />
    <g
       id="star"
       style="fill:#ffffff">
      <g
         id="cone">
        <polygon
           points="0,0 0,1 0.5,1 0,0 "
           transform="matrix(0.9510565,0.309017,-0.309017,0.9510565,0,-1)"
           id="triangle" />
        <use
           transform="scale(-1,1)"
           id="use14"
           x="0"
           y="0"
           width="500"
           height="250"
           xlink:href="#triangle" />
      </g>
      <use
         transform="matrix(0.309017,0.9510565,-0.9510565,0.309017,0,0)"
         id="use16"
         x="0"
         y="0"
         width="500"
         height="250"
         xlink:href="#cone" />
      <use
         transform="matrix(0.309017,-0.9510565,0.9510565,0.309017,0,0)"
         id="use18"
         x="0"
         y="0"
         width="500"
         height="250"
         xlink:href="#cone" />
      <use
         transform="matrix(-0.809017,0.5877853,-0.5877853,-0.809017,0,0)"
         id="use20"
         x="0"
         y="0"
         width="500"
         height="250"
         xlink:href="#cone" />
      <use
         transform="matrix(-0.809017,-0.5877853,0.5877853,-0.809017,0,0)"
         id="use22"
         x="0"
         y="0"
         width="500"
         height="250"
         xlink:href="#cone" />
    </g>
  </defs>
  <rect
     width="250"
     height="40"
     x="0"
     y="0"
     id="blue_stripe"
     style="fill:#0099b5" />
  <rect
     width="250"
     height="45"
     x="0"
     y="40"
     id="lower_red_stripe"
     style="fill:#ce1126" />
  <rect
     width="250"
     height="40"
     x="0"
     y="42.5"
     id="white_stripe"
     style="fill:#ffffff" />
  <rect
     width="250"
     height="40"
     x="0"
     y="85"
     id="green_stripe"
     style="fill:#1eb53a" />
  <circle
     cx="70"
     cy="40"
     r="30"
     transform="scale(0.5,0.5)"
     id="circle24"
     style="fill:#ffffff"
     sodipodi:cx="70"
     sodipodi:cy="40"
     sodipodi:rx="30"
     sodipodi:ry="30" />
  <circle
     cx="83.5"
     cy="40"
     r="25"
     transform="matrix(0.6,0,0,0.6,-10.1,-4)"
     id="circle26"
     style="fill:#0099b5"
     sodipodi:cx="83.5"
     sodipodi:cy="40"
     sodipodi:rx="25"
     sodipodi:ry="25" />
  <use
     transform="matrix(3.1543867,0,0,3.3167184,44,32.316719)"
     id="use42"
     x="0"
     y="0"
     width="500"
     height="250"
     xlink:href="#star" />
  <use
     transform="translate(12,-4.3333003e-7)"
     id="use2922"
     x="0"
     y="0"
     width="250"
     height="125"
     xlink:href="#use42" />
  <use
     transform="translate(24,-4.3333003e-7)"
     id="use2924"
     x="0"
     y="0"
     width="250"
     height="125"
     xlink:href="#use42" />
  <use
     transform="translate(36,-4.3333003e-7)"
     id="use2926"
     x="0"
     y="0"
     width="250"
     height="125"
     xlink:href="#use42" />
  <use
     transform="translate(48,-4.3333003e-7)"
     id="use2928"
     x="0"
     y="0"
     width="250"
     height="125"
     xlink:href="#use42" />
  <use
     transform="translate(12,-12)"
     id="use2930"
     x="0"
     y="0"
     width="250"
     height="125"
     xlink:href="#use42" />
  <use
     transform="translate(24,-12)"
     id="use2932"
     x="0"
     y="0"
     width="250"
     height="125"
     xlink:href="#use42" />
  <use
     transform="translate(36,-12)"
     id="use2934"
     x="0"
     y="0"
     width="250"
     height="125"
     xlink:href="#use42" />
  <use
     transform="translate(48,-12)"
     id="use2936"
     x="0"
     y="0"
     width="250"
     height="125"
     xlink:href="#use42" />
  <use
     transform="translate(24,-24)"
     id="use2938"
     x="0"
     y="0"
     width="250"
     height="125"
     xlink:href="#use42" />
  <use
     transform="translate(36,-24)"
     id="use2940"
     x="0"
     y="0"
     width="250"
     height="125"
     xlink:href="#use42" />
  <use
     transform="translate(48,-24)"
     id="use2942"
     x="0"
     y="0"
     width="250"
     height="125"
     xlink:href="#use42" />
</svg>
