<?xml version="1.0" encoding="UTF-8" standalone="no"?>
<!-- Created with Inkscape (http://www.inkscape.org/) -->
<svg
   xmlns:dc="http://purl.org/dc/elements/1.1/"
   xmlns:cc="http://creativecommons.org/ns#"
   xmlns:rdf="http://www.w3.org/1999/02/22-rdf-syntax-ns#"
   xmlns:svg="http://www.w3.org/2000/svg"
   xmlns="http://www.w3.org/2000/svg"
   xmlns:sodipodi="http://sodipodi.sourceforge.net/DTD/sodipodi-0.dtd"
   xmlns:inkscape="http://www.inkscape.org/namespaces/inkscape"
   version="1.0"
   x="0.0000000"
   y="0.0000000"
   width="256"
   height="256"
   id="svg1"
   sodipodi:version="0.32"
   inkscape:version="0.46"
   sodipodi:docname="Flag_of_the_Marshall_Islands.svg"
   inkscape:output_extension="org.inkscape.output.svg.inkscape">
  <metadata
     id="metadata4675">
    <rdf:RDF>
      <cc:Work
         rdf:about="">
        <dc:format>image/svg+xml</dc:format>
        <dc:type
           rdf:resource="http://purl.org/dc/dcmitype/StillImage" />
      </cc:Work>
    </rdf:RDF>
  </metadata>
  <sodipodi:namedview
     inkscape:window-height="726"
     inkscape:window-width="830"
     inkscape:pageshadow="2"
     inkscape:pageopacity="0.0"
     guidetolerance="10.0"
     gridtolerance="10.0"
     objecttolerance="10.0"
     borderopacity="1.0"
     bordercolor="#666666"
     pagecolor="#ffffff"
     id="base"
     showgrid="false"
     inkscape:zoom="0.98070175"
     inkscape:cx="285"
     inkscape:cy="150"
     inkscape:window-x="6"
     inkscape:window-y="50"
     inkscape:current-layer="svg1" />
  <defs
     id="defs3">
    <inkscape:perspective
       sodipodi:type="inkscape:persp3d"
       inkscape:vp_x="0 : 150 : 1"
       inkscape:vp_y="0 : 1000 : 0"
       inkscape:vp_z="570 : 150 : 1"
       inkscape:persp3d-origin="285 : 100 : 1"
       id="perspective4677" />
  </defs>
  <g
     id="layer1"
     transform="matrix(0.4491228,0,0,0.4491228,0,60.263053)">
    <rect
       width="237.5"
       height="125"
       x="125"
       y="552.36218"
       transform="matrix(2.4,0,0,2.4,-300,-1325.669)"
       style="fill:#003893;fill-opacity:1;stroke:none;stroke-width:1.25;stroke-linecap:butt;stroke-linejoin:miter;stroke-miterlimit:4;stroke-opacity:1"
       id="rect1061" />
    <path
       d="M 170.63751,636.74966 L 169.03856,610.14486 L 163.45528,624.8041 L 165.94964,609.31718 L 156.76251,622.03186 L 163.18018,607.71824 L 151.0153,617.62187 L 160.91893,605.45699 L 146.60531,611.87466 L 159.31999,602.68753 L 143.83307,605.18189 L 158.49231,599.59861 L 131.88751,597.99966 L 158.49231,596.40071 L 143.83307,590.81743 L 159.31999,593.31179 L 146.60531,584.12466 L 160.91893,590.54233 L 151.0153,578.37745 L 163.18018,588.28108 L 156.76251,573.96746 L 165.94964,586.68214 L 163.45528,571.19522 L 169.03856,585.85446 L 170.63751,559.24966 L 172.23646,585.85446 L 177.81974,571.19522 L 175.32538,586.68214 L 184.51251,573.96746 L 178.09484,588.28108 L 190.25972,578.37745 L 180.35609,590.54233 L 194.66971,584.12466 L 181.95503,593.31179 L 197.44195,590.81743 L 182.78271,596.40071 L 209.38751,597.99966 L 182.78271,599.59861 L 197.44195,605.18189 L 181.95503,602.68753 L 194.66971,611.87466 L 180.35609,605.45699 L 190.25972,617.62187 L 178.09484,607.71824 L 184.51251,622.03186 L 175.32538,609.31718 L 177.81974,624.8041 L 172.23646,610.14486 L 170.63751,636.74966 z"
       transform="matrix(2.4,0,0,2.4,-300,-1325.669)"
       style="fill:#ffffff;fill-opacity:1;fill-rule:evenodd;stroke:none;stroke-width:0.25pt;stroke-linecap:butt;stroke-linejoin:miter;stroke-opacity:1"
       id="path1683" />
    <path
       d="M 125,675.36218 L 362.5,603.36218 L 362.5,554.36218 L 125,671.36218 L 125,675.36218 z"
       transform="matrix(2.4,0,0,2.4,-300,-1325.669)"
       style="fill:#ffffff;fill-opacity:1;fill-rule:evenodd;stroke:none;stroke-width:0.25pt;stroke-linecap:butt;stroke-linejoin:miter;stroke-opacity:1"
       id="path2926" />
    <path
       d="M 125,673.36218 L 362.5,578.86218 L 362.5,554.36218 L 125,671.36218 L 125,673.36218 z"
       transform="matrix(2.4,0,0,2.4,-300,-1325.669)"
       style="fill:#dd7500;fill-opacity:1;fill-rule:evenodd;stroke:none;stroke-width:0.25pt;stroke-linecap:butt;stroke-linejoin:miter;stroke-opacity:1"
       id="path5411" />
  </g>
</svg>
