<?xml version="1.0" encoding="UTF-8" standalone="no"?>
<!-- Created with Inkscape (http://www.inkscape.org/) -->
<svg
   xmlns:dc="http://purl.org/dc/elements/1.1/"
   xmlns:cc="http://creativecommons.org/ns#"
   xmlns:rdf="http://www.w3.org/1999/02/22-rdf-syntax-ns#"
   xmlns:svg="http://www.w3.org/2000/svg"
   xmlns="http://www.w3.org/2000/svg"
   xmlns:xlink="http://www.w3.org/1999/xlink"
   xmlns:sodipodi="http://sodipodi.sourceforge.net/DTD/sodipodi-0.dtd"
   xmlns:inkscape="http://www.inkscape.org/namespaces/inkscape"
   version="1.0"
   width="256"
   height="256"
   id="svg1353"
   sodipodi:version="0.32"
   inkscape:version="0.46"
   sodipodi:docname="Flag_of_Samoa.svg"
   inkscape:output_extension="org.inkscape.output.svg.inkscape">
  <metadata
     id="metadata3940">
    <rdf:RDF>
      <cc:Work
         rdf:about="">
        <dc:format>image/svg+xml</dc:format>
        <dc:type
           rdf:resource="http://purl.org/dc/dcmitype/StillImage" />
      </cc:Work>
    </rdf:RDF>
  </metadata>
  <sodipodi:namedview
     inkscape:window-height="690"
     inkscape:window-width="958"
     inkscape:pageshadow="2"
     inkscape:pageopacity="0.0"
     guidetolerance="10.0"
     gridtolerance="10.0"
     objecttolerance="10.0"
     borderopacity="1.0"
     bordercolor="#666666"
     pagecolor="#ffffff"
     id="base"
     showgrid="false"
     inkscape:zoom="0.19409722"
     inkscape:cx="1440"
     inkscape:cy="720"
     inkscape:window-x="5"
     inkscape:window-y="139"
     inkscape:current-layer="svg1353" />
  <defs
     id="defs1358">
    <inkscape:perspective
       sodipodi:type="inkscape:persp3d"
       inkscape:vp_x="0 : 720 : 1"
       inkscape:vp_y="0 : 1000 : 0"
       inkscape:vp_z="2880 : 720 : 1"
       inkscape:persp3d-origin="1440 : 480 : 1"
       id="perspective3942" />
  </defs>
  <rect
     width="256"
     height="128"
     x="0"
     y="64"
     id="red area"
     style="fill:#ce1126" />
  <rect
     width="128"
     height="64"
     x="0"
     y="64"
     id="blue quarter"
     style="fill:#002b7f" />
  <polygon
     points="0,-1 0.58778525,0.80901699 -0.95105652,-0.30901699 0.95105652,-0.30901699 -0.58778525,0.80901699 0,-1 "
     transform="matrix(9.3463307,0,0,9.3463307,63.999994,117.772)"
     id="polygon1441"
     style="fill:#ffffff" />
  <polygon
     points="0,-1 0.58778525,0.80901699 -0.95105652,-0.30901699 0.95105652,-0.30901699 -0.58778525,0.80901699 0,-1 "
     transform="matrix(7.4770629,0,0,7.3704854,44.44444,90.0372)"
     id="polygon1449"
     style="fill:#ffffff" />
  <polygon
     points="0,-1 0.58778525,0.80901699 -0.95105652,-0.30901699 0.95105652,-0.30901699 -0.58778525,0.80901699 0,-1 "
     transform="matrix(7.0097475,0,0,6.8791197,83.999992,86.8791)"
     id="polygon1451"
     style="fill:#ffffff" />
  <use
     transform="translate(19.555556,-16)"
     id="use2402"
     x="0"
     y="0"
     width="288"
     height="144"
     xlink:href="#polygon1449" />
  <polygon
     points="0,-1 0.58778525,0.80901699 -0.95105652,-0.30901699 0.95105652,-0.30901699 -0.58778525,0.80901699 0,-1 "
     transform="matrix(4.673164,0,0,4.673164,73.777771,101.1082)"
     id="polygon1455"
     style="fill:#ffffff" />
</svg>
