<?xml version="1.0" encoding="UTF-8" standalone="no"?>
<svg
   xmlns:dc="http://purl.org/dc/elements/1.1/"
   xmlns:cc="http://creativecommons.org/ns#"
   xmlns:rdf="http://www.w3.org/1999/02/22-rdf-syntax-ns#"
   xmlns:svg="http://www.w3.org/2000/svg"
   xmlns="http://www.w3.org/2000/svg"
   xmlns:xlink="http://www.w3.org/1999/xlink"
   xmlns:sodipodi="http://sodipodi.sourceforge.net/DTD/sodipodi-0.dtd"
   xmlns:inkscape="http://www.inkscape.org/namespaces/inkscape"
   width="256"
   height="256"
   viewBox="-910 -585 1820 1170"
   id="svg2474"
   sodipodi:version="0.32"
   inkscape:version="0.46"
   sodipodi:docname="Flag_of_Argentina.svg"
   inkscape:output_extension="org.inkscape.output.svg.inkscape"
   version="1.0">
  <metadata
     id="metadata2523">
    <rdf:RDF>
      <cc:Work
         rdf:about="">
        <dc:format>image/svg+xml</dc:format>
        <dc:type
           rdf:resource="http://purl.org/dc/dcmitype/StillImage" />
      </cc:Work>
    </rdf:RDF>
  </metadata>
  <defs
     id="defs2521">
    <inkscape:perspective
       sodipodi:type="inkscape:persp3d"
       inkscape:vp_x="0 : 252 : 1"
       inkscape:vp_y="0 : 1000 : 0"
       inkscape:vp_z="784 : 252 : 1"
       inkscape:persp3d-origin="392 : 168 : 1"
       id="perspective2525" />
  </defs>
  <sodipodi:namedview
     inkscape:window-height="674"
     inkscape:window-width="640"
     inkscape:pageshadow="2"
     inkscape:pageopacity="0.0"
     guidetolerance="10.0"
     gridtolerance="10.0"
     objecttolerance="10.0"
     borderopacity="1.0"
     bordercolor="#666666"
     pagecolor="#ffffff"
     id="base"
     showgrid="false"
     inkscape:zoom="0.7130102"
     inkscape:cx="392"
     inkscape:cy="252"
     inkscape:window-x="113"
     inkscape:window-y="243"
     inkscape:current-layer="svg2474" />
  <title
     id="title2476">Flag of Argentina</title>
  <rect
     id="blue"
     x="-910"
     y="-585"
     width="1820"
     height="1170"
     style="fill:#75aadb" />
  <rect
     id="white"
     x="-910"
     y="-195"
     width="1820"
     height="390"
     style="fill:#ffffff" />
  <g
     id="sun"
     style="fill:#fcbf49;stroke:#843511;stroke-width:1.5">
    <g
       id="16rays">
      <g
         id="8rays">
        <g
           id="4rays">
          <g
             id="2rays">
            <path
               d="M -8,0 L -2,159.5 C -2,159.5 -2,162.5 0,162.5 C 2,162.5 2,159.5 2,159.5 L 8,0"
               id="path2485" />
            <path
               d="M -4,0 L 0,109.5 L 4,0"
               id="path2487"
               style="fill:#843511;stroke:none" />
            <g
               transform="matrix(0.9799247,0.1993679,-0.1993679,0.9799247,0,0)"
               id="g2489">
              <path
                 d="M -4.5,53.5 C -9.5,75 1.5,89.5 -4,108.5 C -9.5,127.5 -1,140.5 0,148.5 C 1,156.5 -5,160 -3,161.5 C -1,163 5,158 5.5,147 C 6,136 -1.5,131.25 5,108 C 11.5,84.75 1,77 8,56"
                 id="path2491" />
              <path
                 d="M -1,58 C -4,79 6,90.5 0,109 C 8,95 -2,81 3,59"
                 id="path2493"
                 style="fill:#843511;stroke:none" />
            </g>
          </g>
          <use
             xlink:href="#2rays"
             transform="scale(-1,-1)"
             id="use2495"
             x="0"
             y="0"
             width="1820"
             height="1170" />
        </g>
        <use
           xlink:href="#4rays"
           transform="matrix(0,1,-1,0,0,0)"
           id="use2497"
           x="0"
           y="0"
           width="1820"
           height="1170" />
      </g>
      <use
         xlink:href="#8rays"
         transform="matrix(0.7071068,0.7071068,-0.7071068,0.7071068,0,0)"
         id="use2499"
         x="0"
         y="0"
         width="1820"
         height="1170" />
    </g>
    <use
       xlink:href="#16rays"
       transform="matrix(0.9238795,0.3826834,-0.3826834,0.9238795,0,0)"
       id="use2501"
       x="0"
       y="0"
       width="1820"
       height="1170" />
    <circle
       r="65"
       id="circle2503"
       cx="0"
       cy="0"
       sodipodi:cx="0"
       sodipodi:cy="0"
       sodipodi:rx="65"
       sodipodi:ry="65"
       style="stroke-width:1" />
    <g
       id="face_right"
       style="fill:#843511;stroke:none">
      <path
         id="eyebrow_nose"
         d="M 41,-14 C 29.5,-24 15,-25.5 7,-18 C 1.1936273,-10.23694 1.7110236,-1.0962716 8.5,8.5 C 8,8.5 7,9 6.5,9.5 C 1.457445,-0.10281648 0.59005143,-9.991103 4,-19 C 15,-28 30,-29 41,-14" />
      <path
         id="uppalpebra"
         d="M 23,-17 C 16.5,-17 15,-15.5 12,-13 C 9,-10.5 7.5,-11 7,-10.5 C 6.5,-10 7,-8.5 8,-9 C 9,-9.5 11,-10.5 14,-13 C 17,-15.5 20,-15.5 23,-15.5 C 32,-15.5 37,-8 38,-8.5 C 39,-9 33,-17 23,-17" />
      <path
         id="upeyecontour"
         d="M 34.5,-8.5 C 28,-15.5 16,-16 11,-8 L 13,-8 C 18,-16 30,-12.5 31,-9 L 31,-8" />
      <circle
         id="pupil"
         cx="22"
         cy="-9"
         r="4.5"
         sodipodi:cx="22"
         sodipodi:cy="-9"
         sodipodi:rx="4.5"
         sodipodi:ry="4.5" />
      <path
         id="loweyecontour"
         d="M 11,-8 C 16,-3.5 27,-3 34.5,-8.5 L 31,-9 C 26,-3.5 18,-4 13,-8 L 13,-9" />
      <path
         id="lowpalpebra"
         d="M 35,-6 C 26.5,0.5 18,0 13,-3 C 8,-6 8,-7 9,-7 C 10,-7 11,-6 15,-4 C 19,-2 25,-2 35,-6" />
      <path
         id="nose"
         d="M 10.5,9 C 11.91609,9.5034893 12.741084,10.977139 12.430035,12.447534 C 12.118986,13.917928 10.767895,14.931246 9.2692225,14.818143 C 7.7705501,14.70504 6.5868446,13.500423 6.5,12 C 6,13 4,16 0,16 L -1,16 L 0,17.5 C 1,17.5 4,17.5 6,16 C 7.1633883,17.669092 9.3019644,18.349966 11.216194,17.660715 C 13.130424,16.971465 14.344072,15.083568 14.176399,13.055952 C 14.008726,11.028336 12.501448,9.3654448 10.5,9" />
      <path
         id="uplip"
         d="M 16.5,30 C 12,27 10,22.5 5,22.5 C 4,22.5 2,23 0,24 L -1,24 L 0,25.5 C 2,25.5 5,23 8.5,25 C 12,27 14,29 16.5,30" />
      <path
         id="midlip"
         d="M 15,30 C 5,27 3,29 0,29 L -1,29 L 0,31 C 4,31 6,28 15,30" />
      <path
         id="path2515"
         d="M 16.5,30 C 5.5,29 9,35.5 0,35.5 L -1,35.5 L 0,37 C 11,37 6,31 16.5,30" />
      <path
         id="chin"
         d="M 9,46 C 9,41.029437 4.9705627,37 5.5109106e-16,37 C -4.9705627,37 -9,41.029437 -9,46 C -8.0103271,41.830032 -4.2858007,38.886001 5.6639914e-16,38.886001 C 4.2858007,38.886001 8.0103271,41.830032 9,46" />
    </g>
    <use
       xlink:href="#face_right"
       transform="scale(-1,1)"
       id="use2518"
       x="0"
       y="0"
       width="1820"
       height="1170" />
  </g>
</svg>
