<?xml version="1.0" encoding="UTF-8" standalone="no"?>
<!-- Created with Inkscape (http://www.inkscape.org/) -->
<svg
   xmlns:dc="http://purl.org/dc/elements/1.1/"
   xmlns:cc="http://creativecommons.org/ns#"
   xmlns:rdf="http://www.w3.org/1999/02/22-rdf-syntax-ns#"
   xmlns:svg="http://www.w3.org/2000/svg"
   xmlns="http://www.w3.org/2000/svg"
   xmlns:sodipodi="http://sodipodi.sourceforge.net/DTD/sodipodi-0.dtd"
   xmlns:inkscape="http://www.inkscape.org/namespaces/inkscape"
   version="1.0"
   width="256"
   height="256"
   id="svg15340"
   sodipodi:version="0.32"
   inkscape:version="0.46"
   sodipodi:docname="Flag_of_Niue.svg"
   inkscape:output_extension="org.inkscape.output.svg.inkscape"
   sodipodi:docbase="C:\Documents and Settings\Zoran\Desktop">
  <metadata
     id="metadata2240">
    <rdf:RDF>
      <cc:Work
         rdf:about="">
        <dc:format>image/svg+xml</dc:format>
        <dc:type
           rdf:resource="http://purl.org/dc/dcmitype/StillImage" />
      </cc:Work>
    </rdf:RDF>
  </metadata>
  <sodipodi:namedview
     inkscape:window-height="674"
     inkscape:window-width="744"
     inkscape:pageshadow="2"
     inkscape:pageopacity="0.0"
     guidetolerance="10.0"
     gridtolerance="10.0"
     objecttolerance="10.0"
     borderopacity="1.0"
     bordercolor="#666666"
     pagecolor="#ffffff"
     id="base"
     inkscape:zoom="0.77663895"
     inkscape:cx="269.53819"
     inkscape:cy="204.62822"
     inkscape:window-x="-28"
     inkscape:window-y="117"
     inkscape:current-layer="svg15340"
     showgrid="false" />
  <defs
     id="defs15342">
    <inkscape:perspective
       sodipodi:type="inkscape:persp3d"
       inkscape:vp_x="0 : 150 : 1"
       inkscape:vp_y="0 : 1000 : 0"
       inkscape:vp_z="600 : 150 : 1"
       inkscape:persp3d-origin="300 : 100 : 1"
       id="perspective4441" />
  </defs>
  <rect
     width="256"
     height="127.99998"
     x="0"
     y="64.000015"
     style="fill:#fcd116;fill-opacity:1;fill-rule:evenodd;stroke:none;stroke-width:1pt;stroke-linecap:butt;stroke-linejoin:miter;stroke-opacity:1"
     id="rect15349" />
  <rect
     width="128"
     height="63.999992"
     x="0"
     y="64"
     style="fill:#002868;fill-opacity:1;fill-rule:evenodd;stroke:none;stroke-width:1pt;stroke-linecap:butt;stroke-linejoin:miter;stroke-opacity:1"
     id="rect908" />
  <path
     d="M 0,127.99999 L 14.3104,127.99999 L 128,71.1552 L 128,64.000001 L 113.6896,64.000001 L 0,120.84479 L 0,127.99999 z"
     style="fill:#ffffff;fill-opacity:1;fill-rule:evenodd;stroke:none;stroke-width:1pt;stroke-linecap:butt;stroke-linejoin:miter;stroke-opacity:1"
     id="path4640" />
  <path
     d="M 128,127.99999 L 113.6896,127.99999 L 0,71.1552 L 0,64.000001 L 14.3104,64.000001 L 128,120.84479 L 128,127.99999 z"
     style="fill:#ffffff;fill-opacity:1;fill-rule:evenodd;stroke:none;stroke-width:1pt;stroke-linecap:butt;stroke-linejoin:miter;stroke-opacity:1"
     id="path6505" />
  <rect
     width="21.333334"
     height="63.999992"
     x="53.333332"
     y="64"
     style="fill:#ffffff;fill-opacity:1;fill-rule:evenodd;stroke:none;stroke-width:1pt;stroke-linecap:butt;stroke-linejoin:miter;stroke-opacity:1"
     id="rect1530" />
  <rect
     width="128"
     height="21.333332"
     x="0"
     y="85.333328"
     style="fill:#ffffff;fill-opacity:1;fill-rule:evenodd;stroke:none;stroke-width:1pt;stroke-linecap:butt;stroke-linejoin:miter;stroke-opacity:1"
     id="rect2152" />
  <rect
     width="128"
     height="12.799998"
     x="0"
     y="89.599991"
     style="fill:#ce1126;fill-opacity:1;fill-rule:evenodd;stroke:none;stroke-width:1pt;stroke-linecap:butt;stroke-linejoin:miter;stroke-opacity:1"
     id="rect3395" />
  <rect
     width="12.8"
     height="63.999992"
     x="57.599998"
     y="64"
     style="fill:#ce1126;fill-opacity:1;fill-rule:evenodd;stroke:none;stroke-width:1pt;stroke-linecap:butt;stroke-linejoin:miter;stroke-opacity:1"
     id="rect4017" />
  <path
     d="M 0,127.99999 L 9.5402667,127.99999 L 52.206933,106.66666 L 42.666667,106.66666 L 0,127.99999 z"
     style="fill:#ce1126;fill-opacity:1;fill-rule:evenodd;stroke:none;stroke-width:1pt;stroke-linecap:butt;stroke-linejoin:miter;stroke-opacity:1"
     id="path7127" />
  <path
     d="M 75.793067,85.333328 L 85.333333,85.333328 L 128,64.000001 L 118.45973,64.000001 L 75.793067,85.333328 z"
     style="fill:#ce1126;fill-opacity:1;fill-rule:evenodd;stroke:none;stroke-width:1pt;stroke-linecap:butt;stroke-linejoin:miter;stroke-opacity:1"
     id="path8371" />
  <path
     d="M 128,127.99999 L 128,123.22985 L 94.8736,106.66666 L 85.333333,106.66666 L 128,127.99999 z"
     style="fill:#ce1126;fill-opacity:1;fill-rule:evenodd;stroke:none;stroke-width:1pt;stroke-linecap:butt;stroke-linejoin:miter;stroke-opacity:1"
     id="path8994" />
  <path
     d="M 0,64.000001 L 0,68.77013 L 33.1264,85.333328 L 42.666667,85.333328 L 0,64.000001 z"
     style="fill:#ce1126;fill-opacity:1;fill-rule:evenodd;stroke:none;stroke-width:1pt;stroke-linecap:butt;stroke-linejoin:miter;stroke-opacity:1"
     id="path9616" />
  <path
     d="M 74.666686,96.000027 C 74.666686,90.108997 69.891057,85.333378 64.000018,85.333378 C 58.108981,85.333378 53.333352,90.108997 53.333352,96.000027 C 53.333352,101.89106 58.108981,106.66668 64.000018,106.66668 C 69.891057,106.66668 74.666686,101.89106 74.666686,96.000027 L 74.666686,96.000027 z"
     style="fill:#002868;fill-opacity:1;fill-rule:evenodd;stroke:none;stroke-width:1pt;stroke-linecap:butt;stroke-linejoin:miter;stroke-opacity:1"
     id="path16014" />
  <path
     d="M 53.856021,92.704037 L 61.606037,92.704037 L 64.000021,85.333368 L 66.394005,92.704037 L 74.144021,92.704037 L 67.875029,97.258707 L 70.269013,104.62937 L 64.000021,100.0747 L 57.731029,104.62937 L 60.125013,97.258707 L 53.856021,92.704037 z"
     style="fill:#fcd116;fill-opacity:1;fill-rule:evenodd;stroke:none;stroke-width:1pt;stroke-linecap:butt;stroke-linejoin:miter;stroke-opacity:1"
     id="path2203" />
  <path
     d="M 57.913587,115.96947 L 62.563597,115.96947 L 63.999987,111.54667 L 65.436378,115.96947 L 70.086387,115.96947 L 66.324992,118.70253 L 67.761382,123.12533 L 63.999987,120.39228 L 60.238592,123.12533 L 61.674982,118.70253 L 57.913587,115.96947 z"
     style="fill:#fcd116;fill-opacity:1;fill-rule:evenodd;stroke:none;stroke-width:1pt;stroke-linecap:butt;stroke-linejoin:miter;stroke-opacity:1"
     id="path988" />
  <path
     d="M 57.913587,73.302819 L 62.563597,73.302819 L 63.999987,68.88001 L 65.436378,73.302819 L 70.086387,73.302819 L 66.324992,76.035869 L 67.761382,80.458679 L 63.999987,77.725619 L 60.238592,80.458679 L 61.674982,76.035869 L 57.913587,73.302819 z"
     style="fill:#fcd116;fill-opacity:1;fill-rule:evenodd;stroke:none;stroke-width:1pt;stroke-linecap:butt;stroke-linejoin:miter;stroke-opacity:1"
     id="path1616" />
  <path
     d="M 20.580262,94.633487 L 25.230272,94.633487 L 26.666662,90.210677 L 28.103053,94.633487 L 32.753062,94.633487 L 28.991667,97.366537 L 30.428058,101.78935 L 26.666662,99.056286 L 22.905267,101.78935 L 24.341658,97.366537 L 20.580262,94.633487 z"
     style="fill:#fcd116;fill-opacity:1;fill-rule:evenodd;stroke:none;stroke-width:1pt;stroke-linecap:butt;stroke-linejoin:miter;stroke-opacity:1"
     id="path1626" />
  <path
     d="M 95.246912,94.633487 L 99.896922,94.633487 L 101.33331,90.210677 L 102.7697,94.633487 L 107.41971,94.633487 L 103.65832,97.366537 L 105.09471,101.78935 L 101.33331,99.056286 L 97.571917,101.78935 L 99.008307,97.366537 L 95.246912,94.633487 z"
     style="fill:#fcd116;fill-opacity:1;fill-rule:evenodd;stroke:none;stroke-width:1pt;stroke-linecap:butt;stroke-linejoin:miter;stroke-opacity:1"
     id="path1631" />
</svg>
