<?xml version="1.0" encoding="UTF-8" standalone="no"?>
<svg
   xmlns:dc="http://purl.org/dc/elements/1.1/"
   xmlns:cc="http://creativecommons.org/ns#"
   xmlns:rdf="http://www.w3.org/1999/02/22-rdf-syntax-ns#"
   xmlns:svg="http://www.w3.org/2000/svg"
   xmlns="http://www.w3.org/2000/svg"
   xmlns:sodipodi="http://sodipodi.sourceforge.net/DTD/sodipodi-0.dtd"
   xmlns:inkscape="http://www.inkscape.org/namespaces/inkscape"
   width="256"
   height="256"
   version="1.0"
   id="svg1375"
   sodipodi:version="0.32"
   inkscape:version="0.46"
   sodipodi:docname="Flag_of_the_French_Southern_and_Antarctic_Lands.svg"
   sodipodi:docbase="C:\Documents and Settings\Joshua.JOSHPC\Desktop"
   inkscape:output_extension="org.inkscape.output.svg.inkscape">
  <metadata
     id="metadata1399">
    <rdf:RDF>
      <cc:Work
         rdf:about="">
        <dc:format>image/svg+xml</dc:format>
        <dc:type
           rdf:resource="http://purl.org/dc/dcmitype/StillImage" />
      </cc:Work>
    </rdf:RDF>
  </metadata>
  <sodipodi:namedview
     inkscape:window-height="674"
     inkscape:window-width="800"
     inkscape:pageshadow="2"
     inkscape:pageopacity="0.0"
     borderopacity="1.0"
     bordercolor="#666666"
     pagecolor="#ffffff"
     id="base"
     showgrid="true"
     gridtolerance="10px"
     inkscape:zoom="0.49866183"
     inkscape:cx="393.30184"
     inkscape:cy="170.67278"
     inkscape:window-x="17"
     inkscape:window-y="66"
     inkscape:current-layer="g3291"
     inkscape:grid-bbox="false"
     inkscape:grid-points="false">
    <inkscape:grid
       id="GridFromPre046Settings"
       type="xygrid"
       originx="0px"
       originy="0px"
       spacingx="10px"
       spacingy="10px"
       color="#00ff00"
       empcolor="#00ff00"
       opacity="0.14509804"
       empopacity="0.37647059"
       empspacing="5"
       visible="true"
       enabled="true" />
  </sodipodi:namedview>
  <desc
     id="desc1377">Flag of Wallis and Futuna</desc>
  <defs
     id="defs1387">
    <inkscape:perspective
       sodipodi:type="inkscape:persp3d"
       inkscape:vp_x="0 : 200 : 1"
       inkscape:vp_y="0 : 1000 : 0"
       inkscape:vp_z="600 : 200 : 1"
       inkscape:persp3d-origin="300 : 133.33333 : 1"
       id="perspective4539" />
    <polygon
       id="triangle"
       points="0,-40 120,-160 -120,-160 0,-40 "
       style="fill:#ffffff" />
  </defs>
  <g
     id="g3291">
    <rect
       y="46.707809"
       x="5.0618153"
       style="fill:#002654;fill-opacity:1"
       id="rect1379"
       height="167.29219"
       width="250.93819" />
    <rect
       style="fill:#ffffff;fill-opacity:1"
       y="46.707809"
       id="rect1383"
       height="66.916862"
       width="66.916847"
       x="38.520241" />
    <rect
       y="46.707809"
       x="71.978668"
       height="66.916862"
       width="33.458424"
       id="rect2278"
       style="fill:#ce1126;fill-opacity:1;fill-rule:evenodd;stroke:none;stroke-width:2;stroke-linecap:butt;stroke-linejoin:miter;stroke-miterlimit:4;stroke-dasharray:none;stroke-dashoffset:0;stroke-opacity:1" />
    <rect
       y="42.525513"
       x="0.87951189"
       height="71.046501"
       width="104.52301"
       id="rect3170"
       style="fill:none;fill-opacity:1;fill-rule:evenodd;stroke:#ffffff;stroke-width:1.75902379;stroke-linecap:butt;stroke-linejoin:miter;stroke-miterlimit:4;stroke-dasharray:none;stroke-dashoffset:0;stroke-opacity:1" />
    <path
       sodipodi:nodetypes="cccccccccccccccccccccccccccccccc"
       id="path3219"
       d="M 153.53246,123.23389 L 158.91717,131.80761 L 174.23486,131.80761 L 174.23486,161.71109 L 162.73352,143.72718 L 147.259,168.40278 L 156.8783,168.40278 L 158.31597,165.68428 L 167.94833,165.68428 L 179.04451,183.45908 L 190.14068,165.68428 L 199.77305,165.68428 L 201.21071,168.40278 L 210.83001,168.40278 L 195.35549,143.72718 L 183.85415,161.71109 L 183.85415,145.19099 L 190.75495,145.19099 L 195.87828,137.03549 L 183.85415,137.03549 L 183.85415,131.80761 L 199.17184,131.80761 L 204.55655,123.23389 L 153.53246,123.23389 z M 162.80766,154.05787 L 166.56097,159.89268 L 159.8805,159.92975 L 162.80766,154.05787 z M 195.13309,154.65093 L 198.13438,159.89268 L 192.04696,159.85562 L 195.13309,154.65093 z"
       style="fill:#ffffff;fill-opacity:1;fill-rule:evenodd;stroke:none;stroke-width:1px;stroke-linecap:butt;stroke-linejoin:miter;stroke-opacity:1" />
    <path
       d="M 456,298.63999 L 460.73445,313.48359 L 476.31458,313.39939 L 463.6605,322.48905 L 468.5551,337.28061 L 456,328.05473 L 443.4449,337.28061 L 448.3395,322.48905 L 435.68543,313.39939 L 451.26555,313.48359 L 456,298.63999 z"
       inkscape:randomized="0"
       inkscape:rounded="0"
       inkscape:flatsided="false"
       sodipodi:arg2="-0.9424778"
       sodipodi:arg1="-1.5707963"
       sodipodi:r2="8.0547266"
       sodipodi:r1="21.360008"
       sodipodi:cy="320"
       sodipodi:cx="456"
       sodipodi:sides="5"
       id="path3255"
       style="fill:#ffffff;fill-opacity:1;fill-rule:evenodd;stroke:none;stroke-width:4;stroke-linecap:butt;stroke-linejoin:miter;stroke-miterlimit:4;stroke-dasharray:none;stroke-dashoffset:0;stroke-opacity:1"
       sodipodi:type="star"
       transform="matrix(0.4182303,0,0,0.4182305,6.9892416,50.113511)" />
    <path
       transform="matrix(0.4182303,0,0,0.4182305,-11.878757,64.521396)"
       sodipodi:type="star"
       style="fill:#ffffff;fill-opacity:1;fill-rule:evenodd;stroke:none;stroke-width:4;stroke-linecap:butt;stroke-linejoin:miter;stroke-miterlimit:4;stroke-dasharray:none;stroke-dashoffset:0;stroke-opacity:1"
       id="path3257"
       sodipodi:sides="5"
       sodipodi:cx="456"
       sodipodi:cy="320"
       sodipodi:r1="21.360008"
       sodipodi:r2="8.0547266"
       sodipodi:arg1="-1.5707963"
       sodipodi:arg2="-0.9424778"
       inkscape:flatsided="false"
       inkscape:rounded="0"
       inkscape:randomized="0"
       d="M 456,298.63999 L 460.73445,313.48359 L 476.31458,313.39939 L 463.6605,322.48905 L 468.5551,337.28061 L 456,328.05473 L 443.4449,337.28061 L 448.3395,322.48905 L 435.68543,313.39939 L 451.26555,313.48359 L 456,298.63999 z" />
    <path
       transform="matrix(-0.4182303,0,0,0.4182305,351.19715,50.138951)"
       sodipodi:type="star"
       style="fill:#ffffff;fill-opacity:1;fill-rule:evenodd;stroke:none;stroke-width:4;stroke-linecap:butt;stroke-linejoin:miter;stroke-miterlimit:4;stroke-dasharray:none;stroke-dashoffset:0;stroke-opacity:1"
       id="path3263"
       sodipodi:sides="5"
       sodipodi:cx="456"
       sodipodi:cy="320"
       sodipodi:r1="21.360008"
       sodipodi:r2="8.0547266"
       sodipodi:arg1="-1.5707963"
       sodipodi:arg2="-0.9424778"
       inkscape:flatsided="false"
       inkscape:rounded="0"
       inkscape:randomized="0"
       d="M 456,298.63999 L 460.73445,313.48359 L 476.31458,313.39939 L 463.6605,322.48905 L 468.5551,337.28061 L 456,328.05473 L 443.4449,337.28061 L 448.3395,322.48905 L 435.68543,313.39939 L 451.26555,313.48359 L 456,298.63999 z" />
    <path
       d="M 456,298.63999 L 460.73445,313.48359 L 476.31458,313.39939 L 463.6605,322.48905 L 468.5551,337.28061 L 456,328.05473 L 443.4449,337.28061 L 448.3395,322.48905 L 435.68543,313.39939 L 451.26555,313.48359 L 456,298.63999 z"
       inkscape:randomized="0"
       inkscape:rounded="0"
       inkscape:flatsided="false"
       sodipodi:arg2="-0.9424778"
       sodipodi:arg1="-1.5707963"
       sodipodi:r2="8.0547266"
       sodipodi:r1="21.360008"
       sodipodi:cy="320"
       sodipodi:cx="456"
       sodipodi:sides="5"
       id="path2191"
       style="fill:#ffffff;fill-opacity:1;fill-rule:evenodd;stroke:none;stroke-width:4;stroke-linecap:butt;stroke-linejoin:miter;stroke-miterlimit:4;stroke-dasharray:none;stroke-dashoffset:0;stroke-opacity:1"
       sodipodi:type="star"
       transform="matrix(0.4182303,0,0,0.4182305,22.843903,7.8324456)" />
    <path
       transform="matrix(0.4182303,0,0,0.4182305,-45.879059,7.7096256)"
       sodipodi:type="star"
       style="fill:#ffffff;fill-opacity:1;fill-rule:evenodd;stroke:none;stroke-width:4;stroke-linecap:butt;stroke-linejoin:miter;stroke-miterlimit:4;stroke-dasharray:none;stroke-dashoffset:0;stroke-opacity:1"
       id="path2193"
       sodipodi:sides="5"
       sodipodi:cx="456"
       sodipodi:cy="320"
       sodipodi:r1="21.360008"
       sodipodi:r2="8.0547266"
       sodipodi:arg1="-1.5707963"
       sodipodi:arg2="-0.9424778"
       inkscape:flatsided="false"
       inkscape:rounded="0"
       inkscape:randomized="0"
       d="M 456,298.63999 L 460.73445,313.48359 L 476.31458,313.39939 L 463.6605,322.48905 L 468.5551,337.28061 L 456,328.05473 L 443.4449,337.28061 L 448.3395,322.48905 L 435.68543,313.39939 L 451.26555,313.48359 L 456,298.63999 z" />
  </g>
</svg>
