<?xml version="1.0" encoding="UTF-8" standalone="no"?>
<!-- Created with Inkscape (http://www.inkscape.org/) -->
<svg
   xmlns:dc="http://purl.org/dc/elements/1.1/"
   xmlns:cc="http://creativecommons.org/ns#"
   xmlns:rdf="http://www.w3.org/1999/02/22-rdf-syntax-ns#"
   xmlns:svg="http://www.w3.org/2000/svg"
   xmlns="http://www.w3.org/2000/svg"
   xmlns:xlink="http://www.w3.org/1999/xlink"
   xmlns:sodipodi="http://sodipodi.sourceforge.net/DTD/sodipodi-0.dtd"
   xmlns:inkscape="http://www.inkscape.org/namespaces/inkscape"
   sodipodi:docbase="C:\Documents and Settings\Zoran\Desktop"
   sodipodi:docname="Flag_of_Tuvalu.svg"
   inkscape:version="0.46"
   sodipodi:version="0.32"
   id="svg1"
   height="256"
   width="256"
   y="0.00000000"
   x="0.00000000"
   version="1.0"
   inkscape:output_extension="org.inkscape.output.svg.inkscape">
  <metadata
     id="metadata1995">
    <rdf:RDF>
      <cc:Work
         rdf:about="">
        <dc:format>image/svg+xml</dc:format>
        <dc:type
           rdf:resource="http://purl.org/dc/dcmitype/StillImage" />
      </cc:Work>
    </rdf:RDF>
  </metadata>
  <sodipodi:namedview
     inkscape:current-layer="svg1"
     inkscape:window-y="11"
     inkscape:window-x="0"
     inkscape:cy="249.99995"
     inkscape:cx="500.00014"
     inkscape:zoom="1.1889997"
     inkscape:window-height="968"
     inkscape:window-width="1278"
     inkscape:pageshadow="2"
     inkscape:pageopacity="0.0"
     borderopacity="1.0"
     bordercolor="#666666"
     pagecolor="#ffffff"
     id="base"
     showgrid="false" />
  <defs
     id="defs3">
    <inkscape:perspective
       sodipodi:type="inkscape:persp3d"
       inkscape:vp_x="0 : 250 : 1"
       inkscape:vp_y="0 : 1000 : 0"
       inkscape:vp_z="1000 : 250 : 1"
       inkscape:persp3d-origin="500 : 166.66667 : 1"
       id="perspective4410" />
  </defs>
  <g
     id="g2309"
     transform="matrix(0.4266666,0,0,0.4266666,0,64.000004)">
    <g
       id="g2296">
      <g
         id="g1333" />
      <path
         style="fill:#75aadb;fill-opacity:1;fill-rule:evenodd;stroke:none;stroke-width:1px;stroke-linecap:butt;stroke-linejoin:miter;stroke-opacity:1"
         d="M 300.00002,-1e-05 L 600.00005,-1e-05 L 600.00005,300.00001 L 0,300.00001 L 0,150 L 300.00002,150 L 300.00002,-1e-05 z"
         id="path4861" />
    </g>
    <g
       transform="matrix(0.604757,0,0,0.604757,-7.315296e-3,3.329625e-3)"
       id="g2095">
      <polygon
         transform="matrix(0.498761,0,0,0.469385,657.6627,-98.2599)"
         style="font-size:12px;fill:#fcd116;fill-opacity:1;fill-rule:evenodd;stroke-width:1pt"
         points="591.041,433.161 533.774,391.476 476.501,433.151 498.449,365.806 441.115,324.214 511.946,324.278 533.785,256.897 555.613,324.281 626.445,324.23 569.104,365.812 591.041,433.161 "
         id="polygon136" />
      <polygon
         transform="matrix(0.498761,0,0,0.469385,569.0006,153.8731)"
         style="font-size:12px;fill:#fcd116;fill-opacity:1;fill-rule:evenodd;stroke-width:1pt"
         points="591.041,433.161 533.774,391.476 476.501,433.151 498.449,365.806 441.115,324.214 511.946,324.278 533.785,256.897 555.613,324.281 626.445,324.23 569.104,365.812 591.041,433.161 "
         id="polygon3314" />
      <polygon
         transform="matrix(0.498761,0,0,0.469385,657.6628,96.79682)"
         style="font-size:12px;fill:#fcd116;fill-opacity:1;fill-rule:evenodd;stroke-width:1pt"
         points="591.041,433.161 533.774,391.476 476.501,433.151 498.449,365.806 441.115,324.214 511.946,324.278 533.785,256.897 555.613,324.281 626.445,324.23 569.104,365.812 591.041,433.161 "
         id="polygon3315" />
      <polygon
         transform="matrix(0.498761,0,0,0.469385,276.4154,279.6626)"
         style="font-size:12px;fill:#fcd116;fill-opacity:1;fill-rule:evenodd;stroke-width:1pt"
         points="591.041,433.161 533.774,391.476 476.501,433.151 498.449,365.806 441.115,324.214 511.946,324.278 533.785,256.897 555.613,324.281 626.445,324.23 569.104,365.812 591.041,433.161 "
         id="polygon3317" />
      <polygon
         transform="matrix(-0.498761,0,0,-0.469385,910.834,486.0882)"
         style="font-size:12px;fill:#fcd116;fill-opacity:1;fill-rule:evenodd;stroke-width:1pt"
         points="591.041,433.161 533.774,391.476 476.501,433.151 498.449,365.806 441.115,324.214 511.946,324.278 533.785,256.897 555.613,324.281 626.445,324.23 569.104,365.812 591.041,433.161 "
         id="polygon3319" />
      <polygon
         transform="matrix(-0.498761,0,0,-0.469385,1015.012,342.0122)"
         style="font-size:12px;fill:#fcd116;fill-opacity:1;fill-rule:evenodd;stroke-width:1pt"
         points="591.041,433.161 533.774,391.476 476.501,433.151 498.449,365.806 441.115,324.214 511.946,324.278 533.785,256.897 555.613,324.281 626.445,324.23 569.104,365.812 591.041,433.161 "
         id="polygon3320" />
      <polygon
         transform="matrix(-0.498761,0,0,-0.469385,1102.566,312.0887)"
         style="font-size:12px;fill:#fcd116;fill-opacity:1;fill-rule:evenodd;stroke-width:1pt"
         points="591.041,433.161 533.774,391.476 476.501,433.151 498.449,365.806 441.115,324.214 511.946,324.278 533.785,256.897 555.613,324.281 626.445,324.23 569.104,365.812 591.041,433.161 "
         id="polygon3321" />
      <polygon
         transform="matrix(-0.498761,0,0,-0.469385,1015.012,561.451)"
         style="font-size:12px;fill:#fcd116;fill-opacity:1;fill-rule:evenodd;stroke-width:1pt"
         points="591.041,433.161 533.774,391.476 476.501,433.151 498.449,365.806 441.115,324.214 511.946,324.278 533.785,256.897 555.613,324.281 626.445,324.23 569.104,365.812 591.041,433.161 "
         id="polygon3322" />
      <polygon
         transform="matrix(-0.498761,0,0,-0.469385,910.834,586.9413)"
         style="font-size:12px;fill:#fcd116;fill-opacity:1;fill-rule:evenodd;stroke-width:1pt"
         points="591.041,433.161 533.774,391.476 476.501,433.151 498.449,365.806 441.115,324.214 511.946,324.278 533.785,256.897 555.613,324.281 626.445,324.23 569.104,365.812 591.041,433.161 "
         id="polygon3323" />
    </g>
  </g>
  <g
     id="g3845"
     transform="matrix(0.2133332,0,0,0.2133332,0,64.000024)">
    <g
       id="g3847">
      <g
         id="g3849">
        <rect
           id="rect1764"
           style="fill:#00267f;fill-opacity:1;fill-rule:evenodd;stroke:none;stroke-width:1pt;stroke-linecap:butt;stroke-linejoin:miter;stroke-opacity:1"
           y="-7.8124995e-06"
           x="0"
           height="300"
           width="600" />
        <path
           id="path4640"
           style="fill:#ffffff;fill-opacity:1;fill-rule:evenodd;stroke:none;stroke-width:1pt;stroke-linecap:butt;stroke-linejoin:miter;stroke-opacity:1"
           d="M 1.110223e-14,299.99999 L 67.08,299.99999 L 600,33.539988 L 600,-1.2e-05 L 532.92,-1.2e-05 L 1.110223e-14,266.45999 L 1.110223e-14,299.99999 z" />
        <path
           id="path6505"
           style="fill:#ffffff;fill-opacity:1;fill-rule:evenodd;stroke:none;stroke-width:1pt;stroke-linecap:butt;stroke-linejoin:miter;stroke-opacity:1"
           d="M 600,299.99999 L 532.92,299.99999 L 1.110223e-14,33.539988 L 1.110223e-14,-1.2e-05 L 67.08,-1.2e-05 L 600,266.45999 L 600,299.99999 z" />
        <path
           id="rect1530"
           style="fill:#ffffff;fill-opacity:1;fill-rule:evenodd;stroke:none;stroke-width:1pt;stroke-linecap:butt;stroke-linejoin:miter;stroke-opacity:1"
           d="M 250,0 L 250,100 L 0,100 L 0,200 L 250,200 L 250,300 L 350,300 L 350,200 L 600,200 L 600,100 L 350,100 L 350,0 L 250,0 z" />
        <path
           id="rect3395"
           style="fill:#d21034;fill-opacity:1;fill-rule:evenodd;stroke:none;stroke-width:1pt;stroke-linecap:butt;stroke-linejoin:miter;stroke-opacity:1"
           d="M 270,0 L 270,120 L 0,120 L 0,180 L 270,180 L 270,300 L 330,300 L 330,180 L 600,180 L 600,120 L 330,120 L 330,0 L 270,0 z" />
        <path
           id="path8371"
           style="fill:#d21034;fill-opacity:1;fill-rule:evenodd;stroke:none;stroke-width:1pt;stroke-linecap:butt;stroke-linejoin:miter;stroke-opacity:1"
           d="M 355.28,99.999988 L 400,99.999988 L 600,-1.2e-05 L 555.28,-1.2e-05 L 355.28,99.999988 z" />
        <path
           id="path9616"
           style="fill:#d21034;fill-opacity:1;fill-rule:evenodd;stroke:none;stroke-width:1pt;stroke-linecap:butt;stroke-linejoin:miter;stroke-opacity:1"
           d="M 1.110223e-14,-1.2e-05 L 1.110223e-14,22.359988 L 155.28,99.999988 L 200,99.999988 L 1.110223e-14,-1.2e-05 z" />
        <use
           xlink:href="#path9616"
           height="300"
           width="600"
           y="0"
           x="0"
           id="use3668"
           transform="matrix(-1,0,0,-1,600,300)" />
        <use
           xlink:href="#path8371"
           height="300"
           width="600"
           y="0"
           x="0"
           id="use3711"
           transform="translate(-355.28,200)" />
      </g>
    </g>
    <g
       transform="matrix(0.604757,0,0,0.604757,-7.315296e-3,3.329625e-3)"
       id="g3862" />
  </g>
</svg>
