<?xml version="1.0" encoding="UTF-8" standalone="no"?>
<svg
   xmlns:dc="http://purl.org/dc/elements/1.1/"
   xmlns:cc="http://creativecommons.org/ns#"
   xmlns:rdf="http://www.w3.org/1999/02/22-rdf-syntax-ns#"
   xmlns:svg="http://www.w3.org/2000/svg"
   xmlns="http://www.w3.org/2000/svg"
   xmlns:xlink="http://www.w3.org/1999/xlink"
   xmlns:sodipodi="http://sodipodi.sourceforge.net/DTD/sodipodi-0.dtd"
   xmlns:inkscape="http://www.inkscape.org/namespaces/inkscape"
   width="256"
   height="256"
   viewBox="-18 -5 72 88"
   id="svg4159"
   sodipodi:version="0.32"
   inkscape:version="0.46"
   sodipodi:docname="Flag_of_Nepal.svg"
   inkscape:output_extension="org.inkscape.output.svg.inkscape"
   version="1.0">
  <metadata
     id="metadata4210">
    <rdf:RDF>
      <cc:Work
         rdf:about="">
        <dc:format>image/svg+xml</dc:format>
        <dc:type
           rdf:resource="http://purl.org/dc/dcmitype/StillImage" />
      </cc:Work>
    </rdf:RDF>
  </metadata>
  <sodipodi:namedview
     inkscape:window-height="674"
     inkscape:window-width="640"
     inkscape:pageshadow="2"
     inkscape:pageopacity="0.0"
     guidetolerance="10.0"
     gridtolerance="10.0"
     objecttolerance="10.0"
     borderopacity="1.0"
     bordercolor="#666666"
     pagecolor="#ffffff"
     id="base"
     showgrid="false"
     inkscape:zoom="0.6025974"
     inkscape:cx="315"
     inkscape:cy="385"
     inkscape:window-x="117"
     inkscape:window-y="211"
     inkscape:current-layer="svg4159" />
  <defs
     id="defs4161">
    <inkscape:perspective
       sodipodi:type="inkscape:persp3d"
       inkscape:vp_x="0 : 385 : 1"
       inkscape:vp_y="0 : 1000 : 0"
       inkscape:vp_z="630 : 385 : 1"
       inkscape:persp3d-origin="315 : 256.66667 : 1"
       id="perspective4212" />
    <clipPath
       id="helper1">
      <rect
         width="50"
         height="30"
         x="-20"
         y="21"
         id="rect4164" />
    </clipPath>
    <clipPath
       id="helper2">
      <rect
         width="50"
         height="30"
         x="-20"
         y="20"
         id="rect4167" />
    </clipPath>
  </defs>
  <path
     d="M -15,0 L -15,80 L 45,80 L 2.5735931,37.573593 L 45,37.573593 L -15,0 z"
     id="path4169"
     style="stroke:#003893;stroke-width:5.16467524" />
<!--E 2TN-->  <path
     d="M -15,0 L -15,80 L 45,80 L 2.5735931,37.573593 L 45,37.573593 L -15,0 z"
     id="path4171"
     style="fill:#ce1126;stroke:none" />
<!--E-->  <g
     id="g4173"
     style="fill:#ffffff">
    <circle
       clip-path="url(#helper1)"
       cy="23.483496"
       r="11.950277"
       id="circle4175"
       cx="0"
       sodipodi:cx="0"
       sodipodi:cy="23.483496"
       sodipodi:rx="11.950277"
       sodipodi:ry="11.950277" />
<!--MQ-->    <circle
       clip-path="url(#helper2)"
       cy="18.786797"
       r="12.840097"
       id="circle4177"
       cx="0"
       sodipodi:cx="0"
       sodipodi:cy="18.786797"
       sodipodi:rx="12.840097"
       sodipodi:ry="12.840097"
       style="fill:#ce1126" />
<!--LN-->    <g
       transform="matrix(5.5610606,0,0,5.5610606,0,29.044556)"
       id="g4179">
<!--TM-->      <circle
         r="1"
         id="circle4181"
         cx="0"
         cy="0"
         sodipodi:cx="0"
         sodipodi:cy="0"
         sodipodi:rx="1"
         sodipodi:ry="1" />
      <g
         id="6jags">
        <g
           id="3jags">
          <path
             id="jag"
             d="M 0.19509032,-0.98078528 L 0,-1.3887841 L -0.19509032,-0.98078528"
             transform="matrix(0.9807853,0.1950903,-0.1950903,0.9807853,0,0)" />
<!--sin(Pi/16) cos(Pi/16) TS/TM-->          <use
             xlink:href="#jag"
             transform="matrix(0.9238795,0.3826834,-0.3826834,0.9238795,0,0)"
             id="use4186"
             x="0"
             y="0"
             width="72"
             height="88" />
          <use
             xlink:href="#jag"
             transform="matrix(0.7071068,0.7071068,-0.7071068,0.7071068,0,0)"
             id="use4188"
             x="0"
             y="0"
             width="72"
             height="88" />
        </g>
        <use
           xlink:href="#3jags"
           transform="matrix(0.3826834,0.9238795,-0.9238795,0.3826834,0,0)"
           id="use4190"
           x="0"
           y="0"
           width="72"
           height="88" />
      </g>
      <use
         xlink:href="#6jags"
         transform="scale(-1,1)"
         id="use4192"
         x="0"
         y="0"
         width="72"
         height="88" />
    </g>
    <g
       transform="matrix(8.1433983,0,0,8.1433983,0,58.786797)"
       id="g4194">
<!--W NM-->      <circle
         r="1"
         id="circle4196"
         cx="0"
         cy="0"
         sodipodi:cx="0"
         sodipodi:cy="0"
         sodipodi:rx="1"
         sodipodi:ry="1" />
      <g
         id="4rays">
        <g
           id="2rays">
          <path
             id="ray"
             d="M 0.25881905,0.96592583 L 0,1.5767493 L -0.25881905,0.96592583" />
<!--sin(Pi/12) cos(Pi/12) LN/NM-->          <use
             xlink:href="#ray"
             transform="scale(-1,-1)"
             id="use4201"
             x="0"
             y="0"
             width="72"
             height="88" />
        </g>
        <use
           xlink:href="#2rays"
           transform="matrix(0,1,-1,0,0,0)"
           id="use4203"
           x="0"
           y="0"
           width="72"
           height="88" />
      </g>
      <use
         xlink:href="#4rays"
         transform="matrix(0.8660254,0.5,-0.5,0.8660254,0,0)"
         id="use4205"
         x="0"
         y="0"
         width="72"
         height="88" />
      <use
         xlink:href="#4rays"
         transform="matrix(0.5,0.8660254,-0.8660254,0.5,0,0)"
         id="use4207"
         x="0"
         y="0"
         width="72"
         height="88" />
    </g>
  </g>
</svg>
