<?xml version="1.0" encoding="UTF-8" standalone="no"?>
<svg
   xmlns:dc="http://purl.org/dc/elements/1.1/"
   xmlns:cc="http://creativecommons.org/ns#"
   xmlns:rdf="http://www.w3.org/1999/02/22-rdf-syntax-ns#"
   xmlns:svg="http://www.w3.org/2000/svg"
   xmlns="http://www.w3.org/2000/svg"
   xmlns:xlink="http://www.w3.org/1999/xlink"
   xmlns:sodipodi="http://sodipodi.sourceforge.net/DTD/sodipodi-0.dtd"
   xmlns:inkscape="http://www.inkscape.org/namespaces/inkscape"
   width="256"
   height="256"
   viewBox="-125 -75 250 150"
   id="svg2692"
   sodipodi:version="0.32"
   inkscape:version="0.46"
   sodipodi:docname="Flag_of_Burundi.svg"
   inkscape:output_extension="org.inkscape.output.svg.inkscape"
   version="1.0">
  <metadata
     id="metadata2742">
    <rdf:RDF>
      <cc:Work
         rdf:about="">
        <dc:format>image/svg+xml</dc:format>
        <dc:type
           rdf:resource="http://purl.org/dc/dcmitype/StillImage" />
      </cc:Work>
    </rdf:RDF>
  </metadata>
  <sodipodi:namedview
     inkscape:window-height="674"
     inkscape:window-width="640"
     inkscape:pageshadow="2"
     inkscape:pageopacity="0.0"
     guidetolerance="10.0"
     gridtolerance="10.0"
     objecttolerance="10.0"
     borderopacity="1.0"
     bordercolor="#666666"
     pagecolor="#ffffff"
     id="base"
     showgrid="false"
     inkscape:zoom="0.69875"
     inkscape:cx="400"
     inkscape:cy="240"
     inkscape:window-x="91"
     inkscape:window-y="129"
     inkscape:current-layer="svg2692" />
  <defs
     id="defs2694">
    <inkscape:perspective
       sodipodi:type="inkscape:persp3d"
       inkscape:vp_x="0 : 240 : 1"
       inkscape:vp_y="0 : 1000 : 0"
       inkscape:vp_z="800 : 240 : 1"
       inkscape:persp3d-origin="400 : 160 : 1"
       id="perspective2744" />
    <clipPath
       id="frame">
      <rect
         width="250"
         height="150"
         x="-125"
         y="-75"
         id="rect2697" />
    </clipPath>
    <g
       id="star">
      <g
         id="triangle">
        <g
           id="cone">
          <path
             id="helper"
             d="M 0,0 L 0,10 L 10,10"
             transform="matrix(0.8660254,0.5,-0.5,0.8660254,0,-10)" />
          <use
             xlink:href="#helper"
             transform="scale(-1,1)"
             id="use2703"
             x="0"
             y="0"
             width="250"
             height="150" />
        </g>
        <use
           xlink:href="#cone"
           transform="matrix(-0.5,0.8660254,-0.8660254,-0.5,0,0)"
           id="use2705"
           x="0"
           y="0"
           width="250"
           height="150" />
        <use
           xlink:href="#cone"
           transform="matrix(-0.5,-0.8660254,0.8660254,-0.5,0,0)"
           id="use2707"
           x="0"
           y="0"
           width="250"
           height="150" />
      </g>
      <use
         xlink:href="#triangle"
         transform="scale(-1,-1)"
         id="use2709"
         x="0"
         y="0"
         width="250"
         height="150" />
    </g>
  </defs>
  <path
     d="M 0,0 L -125,-75 L 125,-75 L 0,0 z M 0,0 L 125,75 L -125,75 L 0,0 z"
     id="path2711"
     style="fill:#ce1126" />
  <path
     d="M 0,0 L -125,-75 L -125,75 L 0,0 z M 0,0 L 125,75 L 125,-75 L 0,0 z"
     id="path2713"
     style="fill:#1eb53a" />
  <g
     clip-path="url(#frame)"
     id="g2715"
     style="stroke:#ffffff;stroke-width:20">
    <line
       x1="-150"
       y1="-90"
       x2="150"
       y2="90"
       id="line2717" />
    <line
       x1="-150"
       y1="90"
       x2="150"
       y2="-90"
       id="line2719" />
  </g>
  <circle
     r="42.5"
     id="circle2721"
     cx="0"
     cy="0"
     sodipodi:cx="0"
     sodipodi:cy="0"
     sodipodi:rx="42.5"
     sodipodi:ry="42.5"
     style="fill:#ffffff" />
  <g
     id="g2723"
     style="fill:#1eb53a">
    <use
       xlink:href="#star"
       transform="translate(0,-22)"
       id="use2725"
       x="0"
       y="0"
       width="250"
       height="150" />
    <use
       xlink:href="#star"
       transform="matrix(-0.5,0.8660254,-0.8660254,-0.5,19.052559,11)"
       id="use2727"
       x="0"
       y="0"
       width="250"
       height="150" />
    <use
       xlink:href="#star"
       transform="matrix(-0.5,-0.8660254,0.8660254,-0.5,-19.052559,11)"
       id="use2729"
       x="0"
       y="0"
       width="250"
       height="150" />
  </g>
  <comment
     id="comment2731">The size of the red stars needs to be precisely 82% of the size of the green stars</comment>
  <g
     id="g2733"
     style="fill:#ce1126">
    <use
       xlink:href="#star"
       transform="matrix(0.82,0,0,0.82,0,-22)"
       id="use2735"
       x="0"
       y="0"
       width="250"
       height="150" />
    <use
       xlink:href="#star"
       transform="matrix(-0.41,0.7101408,-0.7101408,-0.41,19.052559,11)"
       id="use2737"
       x="0"
       y="0"
       width="250"
       height="150" />
    <use
       xlink:href="#star"
       transform="matrix(-0.41,-0.7101408,0.7101408,-0.41,-19.052559,11)"
       id="use2739"
       x="0"
       y="0"
       width="250"
       height="150" />
  </g>
</svg>
