<?xml version="1.0" encoding="UTF-8" standalone="no"?>
<svg
   xmlns:dc="http://purl.org/dc/elements/1.1/"
   xmlns:cc="http://creativecommons.org/ns#"
   xmlns:rdf="http://www.w3.org/1999/02/22-rdf-syntax-ns#"
   xmlns:svg="http://www.w3.org/2000/svg"
   xmlns="http://www.w3.org/2000/svg"
   xmlns:xlink="http://www.w3.org/1999/xlink"
   xmlns:sodipodi="http://sodipodi.sourceforge.net/DTD/sodipodi-0.dtd"
   xmlns:inkscape="http://www.inkscape.org/namespaces/inkscape"
   width="256"
   height="256"
   viewBox="-120 -80 240 160"
   id="svg2567"
   sodipodi:version="0.32"
   inkscape:version="0.46"
   sodipodi:docname="Flag_of_Kenya.svg"
   inkscape:output_extension="org.inkscape.output.svg.inkscape"
   version="1.0">
  <metadata
     id="metadata2602">
    <rdf:RDF>
      <cc:Work
         rdf:about="">
        <dc:format>image/svg+xml</dc:format>
        <dc:type
           rdf:resource="http://purl.org/dc/dcmitype/StillImage" />
      </cc:Work>
    </rdf:RDF>
  </metadata>
  <sodipodi:namedview
     inkscape:window-height="868"
     inkscape:window-width="887"
     inkscape:pageshadow="2"
     inkscape:pageopacity="0.0"
     guidetolerance="10.0"
     gridtolerance="10.0"
     objecttolerance="10.0"
     borderopacity="1.0"
     bordercolor="#666666"
     pagecolor="#ffffff"
     id="base"
     showgrid="false"
     inkscape:zoom="0.62111111"
     inkscape:cx="450"
     inkscape:cy="300"
     inkscape:window-x="23"
     inkscape:window-y="33"
     inkscape:current-layer="svg2567" />
  <defs
     id="defs2569">
    <inkscape:perspective
       sodipodi:type="inkscape:persp3d"
       inkscape:vp_x="0 : 300 : 1"
       inkscape:vp_y="0 : 1000 : 0"
       inkscape:vp_z="900 : 300 : 1"
       inkscape:persp3d-origin="450 : 200 : 1"
       id="perspective2604" />
    <path
       id="spearshape"
       d="M -1,55.425626 L 1,55.425626 L 1,-38 C 3,-40 3,-43 3,-46 C 3,-48 3,-56 0,-64.66323 C -3,-56 -3,-48 -3,-46 C -3,-43 -3,-40 -1,-38 L -1,55.425626 z"
       stroke-miterlimit="10"
       transform="matrix(0.8660254,0.5,-0.5,0.8660254,0,0)"
       style="stroke-miterlimit:10" />
<!-- 32*sqrt(3), -112/sqrt(3)-->  </defs>
  <rect
     x="-120"
     y="-80"
     width="240"
     height="160"
     id="rect2572"
     style="fill:#ffffff" />
  <rect
     x="-120"
     y="-80"
     width="240"
     height="48"
     id="rect2574" />
  <rect
     x="-120"
     y="32"
     width="240"
     height="48"
     id="rect2576"
     style="fill:#006600" />
  <g
     id="spear">
    <use
       xlink:href="#spearshape"
       id="use2579"
       x="0"
       y="0"
       width="240"
       height="160" />
    <use
       xlink:href="#spearshape"
       id="use2581"
       style="fill:#ffffff"
       x="0"
       y="0"
       width="240"
       height="160" />
  </g>
  <use
     xlink:href="#spear"
     transform="scale(-1,1)"
     id="use2583"
     x="0"
     y="0"
     width="240"
     height="160" />
  <path
     d="M -120,-24 L -120,24 L -19,24 C -16,32 -6,48 0,48 C 6,48 16,32 19,24 L 120,24 L 120,-24 L 19,-24 C 16,-32 6,-48 0,-48 C -6,-48 -16,-32 -19,-24 L -120,-24 z"
     id="path2585"
     style="fill:#bb0000" />
  <path
     id="deco_r"
     d="M 19,24 C 22,16 24,8 24,0 C 24,-8 22,-16 19,-24 C 16,-16 14,-8 14,0 C 14,8 16,16 19,24" />
  <use
     xlink:href="#deco_r"
     transform="scale(-1,1)"
     id="use2588"
     x="0"
     y="0"
     width="240"
     height="160" />
  <g
     id="g2590"
     style="fill:#ffffff">
    <ellipse
       rx="4"
       ry="6"
       id="ellipse2592"
       cx="0"
       cy="0"
       sodipodi:cx="0"
       sodipodi:cy="0"
       sodipodi:rx="4"
       sodipodi:ry="6" />
    <path
       id="deco_br"
       d="M 1,5.85 C 1,5.85 5,13.85 5,26.85 C 5,39.85 1,47.85 1,47.85 L 1,5.85 z" />
    <use
       xlink:href="#deco_br"
       transform="scale(-1,-1)"
       id="use2595"
       x="0"
       y="0"
       width="240"
       height="160" />
    <use
       xlink:href="#deco_br"
       transform="scale(-1,1)"
       id="use2597"
       x="0"
       y="0"
       width="240"
       height="160" />
    <use
       xlink:href="#deco_br"
       transform="scale(1,-1)"
       id="use2599"
       x="0"
       y="0"
       width="240"
       height="160" />
  </g>
</svg>
