<?xml version="1.0" encoding="UTF-8" standalone="no"?>
<svg
   xmlns:dc="http://purl.org/dc/elements/1.1/"
   xmlns:cc="http://creativecommons.org/ns#"
   xmlns:rdf="http://www.w3.org/1999/02/22-rdf-syntax-ns#"
   xmlns:svg="http://www.w3.org/2000/svg"
   xmlns="http://www.w3.org/2000/svg"
   xmlns:sodipodi="http://sodipodi.sourceforge.net/DTD/sodipodi-0.dtd"
   xmlns:inkscape="http://www.inkscape.org/namespaces/inkscape"
   width="256"
   height="256"
   viewBox="0 0 224 112"
   id="svg3074"
   sodipodi:version="0.32"
   inkscape:version="0.46"
   sodipodi:docname="Flag_of_Malaysia.svg"
   inkscape:output_extension="org.inkscape.output.svg.inkscape"
   version="1.0">
  <metadata
     id="metadata3094">
    <rdf:RDF>
      <cc:Work
         rdf:about="">
        <dc:format>image/svg+xml</dc:format>
        <dc:type
           rdf:resource="http://purl.org/dc/dcmitype/StillImage" />
      </cc:Work>
    </rdf:RDF>
  </metadata>
  <sodipodi:namedview
     inkscape:window-height="726"
     inkscape:window-width="828"
     inkscape:pageshadow="2"
     inkscape:pageopacity="0.0"
     guidetolerance="10.0"
     gridtolerance="10.0"
     objecttolerance="10.0"
     borderopacity="1.0"
     bordercolor="#666666"
     pagecolor="#ffffff"
     id="base"
     showgrid="false"
     inkscape:zoom="0.62388393"
     inkscape:cx="448"
     inkscape:cy="224"
     inkscape:window-x="0"
     inkscape:window-y="75"
     inkscape:current-layer="svg3074" />
  <defs
     id="defs3076">
    <inkscape:perspective
       sodipodi:type="inkscape:persp3d"
       inkscape:vp_x="0 : 224 : 1"
       inkscape:vp_y="0 : 1000 : 0"
       inkscape:vp_z="896 : 224 : 1"
       inkscape:persp3d-origin="448 : 149.33333 : 1"
       id="perspective3096" />
    <pattern
       id="str"
       patternUnits="userSpaceOnUse"
       width="99"
       height="16">
      <rect
         fill="#fff"
         width="99"
         height="16"
         id="rect3079" />
      <rect
         fill="#dc241f"
         width="99"
         height="8"
         id="rect3081" />
    </pattern>
  </defs>
  <rect
     width="224"
     height="112"
     id="rect3083"
     x="0"
     y="0"
     style="fill:url(#str)" />
  <rect
     width="112"
     height="64"
     id="rect3085"
     x="0"
     y="0"
     style="fill:#0035ad" />
  <circle
     cx="46"
     cy="32"
     r="24"
     id="circle3087"
     sodipodi:cx="46"
     sodipodi:cy="32"
     sodipodi:rx="24"
     sodipodi:ry="24"
     style="fill:#ffd100" />
  <circle
     cx="51"
     cy="32"
     r="21"
     id="circle3089"
     sodipodi:cx="51"
     sodipodi:cy="32"
     sodipodi:rx="21"
     sodipodi:ry="21"
     style="fill:#0035ad" />
  <polygon
     points="70,52 68.2198,39.7994 61.3223,50.0194 65.0121,38.2547 54.3634,44.4698 62.7922,35.4711 50.5014,36.4504 62,32 50.5014,27.5496 62.7922,28.5289 54.3634,19.5302 65.0121,25.7453 61.3223,13.9806 68.2198,24.2006 70,12 71.7802,24.2006 78.6777,13.9806 74.9879,25.7453 85.6366,19.5302 77.2078,28.5289 89.4986,27.5496 78,32 89.4986,36.4504 77.2078,35.4711 85.6366,44.4698 74.9879,38.2547 78.6777,50.0194 71.7802,39.7994 70,52 "
     id="polygon3091"
     style="fill:#ffd100" />
</svg>
