<?xml version="1.0" encoding="UTF-8" standalone="no"?>
<svg
   xmlns:dc="http://purl.org/dc/elements/1.1/"
   xmlns:cc="http://creativecommons.org/ns#"
   xmlns:rdf="http://www.w3.org/1999/02/22-rdf-syntax-ns#"
   xmlns:svg="http://www.w3.org/2000/svg"
   xmlns="http://www.w3.org/2000/svg"
   xmlns:xlink="http://www.w3.org/1999/xlink"
   xmlns:sodipodi="http://sodipodi.sourceforge.net/DTD/sodipodi-0.dtd"
   xmlns:inkscape="http://www.inkscape.org/namespaces/inkscape"
   width="256"
   height="256"
   viewBox="0 0 30240 15120"
   id="svg2555"
   sodipodi:version="0.32"
   inkscape:version="0.46"
   sodipodi:docname="Flag_of_Australia.svg"
   inkscape:output_extension="org.inkscape.output.svg.inkscape"
   version="1.0">
  <metadata
     id="metadata2575">
    <rdf:RDF>
      <cc:Work
         rdf:about="">
        <dc:format>image/svg+xml</dc:format>
        <dc:type
           rdf:resource="http://purl.org/dc/dcmitype/StillImage" />
      </cc:Work>
    </rdf:RDF>
  </metadata>
  <sodipodi:namedview
     inkscape:window-height="715"
     inkscape:window-width="771"
     inkscape:pageshadow="2"
     inkscape:pageopacity="0.0"
     guidetolerance="10.0"
     gridtolerance="10.0"
     objecttolerance="10.0"
     borderopacity="1.0"
     bordercolor="#666666"
     pagecolor="#ffffff"
     id="base"
     showgrid="false"
     inkscape:zoom="0.43671875"
     inkscape:cx="640"
     inkscape:cy="320"
     inkscape:window-x="161"
     inkscape:window-y="221"
     inkscape:current-layer="svg2555" />
  <defs
     id="defs6">
    <inkscape:perspective
       sodipodi:type="inkscape:persp3d"
       inkscape:vp_x="0 : 320 : 1"
       inkscape:vp_y="0 : 1000 : 0"
       inkscape:vp_z="1280 : 320 : 1"
       inkscape:persp3d-origin="640 : 213.33333 : 1"
       id="perspective2577" />
    <polygon
       points="0,-9 1.735535,-3.6038755 7.0364833,-5.6114082 3.8997116,-0.89008374 8.7743512,2.0026884 3.1273259,2.4939592 3.9049537,8.1087198 0,4 -3.9049537,8.1087198 -3.1273259,2.4939592 -8.7743512,2.0026884 -3.8997116,-0.89008374 -7.0364833,-5.6114082 -1.735535,-3.6038755 0,-9 "
       id="Star7" />
    <polygon
       points="0,-9 2.351141,-3.236068 8.5595086,-2.7811529 3.8042261,1.236068 5.2900673,7.2811529 0,4 -5.2900673,7.2811529 -3.8042261,1.236068 -8.5595086,-2.7811529 -2.351141,-3.236068 0,-9 "
       id="Star5" />
  </defs>
  <path
     d="M 0,0 L 30240,0 L 30240,15120 L 0,15120 L 0,0 z"
     style="fill:#00008b"
     id="path2560" />
  <use
     transform="matrix(252,0,0,252,7560,11340)"
     id="Commonwealth_Star"
     style="fill:#ffffff"
     xlink:href="#Star7"
     x="0"
     y="0"
     width="30240"
     height="15120" />
  <use
     transform="matrix(120,0,0,120,22680,12600)"
     id="Star_Alpha_Crucis"
     style="fill:#ffffff"
     xlink:href="#Star7"
     x="0"
     y="0"
     width="30240"
     height="15120" />
  <use
     transform="matrix(120,0,0,120,18900,6615)"
     id="Star_Beta_Crucis"
     style="fill:#ffffff"
     xlink:href="#Star7"
     x="0"
     y="0"
     width="30240"
     height="15120" />
  <use
     transform="matrix(120,0,0,120,22680,2520)"
     id="Star_Gamma_Crucis"
     style="fill:#ffffff"
     xlink:href="#Star7"
     x="0"
     y="0"
     width="30240"
     height="15120" />
  <use
     transform="matrix(120,0,0,120,26040,5607)"
     id="Star_Delta_Crucis"
     style="fill:#ffffff"
     xlink:href="#Star7"
     x="0"
     y="0"
     width="30240"
     height="15120" />
  <use
     transform="matrix(70,0,0,70,24192,8190)"
     id="Star_Epsilon_Crucis"
     style="fill:#ffffff"
     xlink:href="#Star5"
     x="0"
     y="0"
     width="30240"
     height="15120" />
  <path
     d="M 6300,0 L 8820,0 L 8820,2520 L 15120,2520 L 15120,5040 L 8820,5040 L 8820,7560 L 6300,7560 L 6300,5040 L 0,5040 L 0,2520 L 6300,2520 L 6300,0 z"
     id="White_Cross"
     style="fill:#ffffff" />
  <path
     d="M 0,0 L 1690.4674,0 L 15120,6714.7663 L 15120,7560 L 13429.533,7560 L 0,845.2337 L 0,0 z"
     id="White_Diagonal"
     style="fill:#ffffff" />
  <use
     transform="matrix(-1,0,0,1,15120,0)"
     id="White_Diagonal_Flipped"
     style="fill:#ffffff"
     xlink:href="#White_Diagonal"
     x="0"
     y="0"
     width="30240"
     height="15120" />
  <path
     d="M 6804,0 L 8316,0 L 8316,3024 L 15120,3024 L 15120,4536 L 8316,4536 L 8316,7560 L 6804,7560 L 6804,4536 L 0,4536 L 0,3024 L 6804,3024 L 6804,0 z"
     id="Red_Cross"
     style="fill:#ff0000" />
  <path
     d="M 0,0 L 5040,2520 L 3913.0217,2520 L 0,563.48913 L 0,0 z M 15120,0 L 13993.022,0 L 8953.0217,2520 L 10080,2520 L 15120,0 z"
     id="Red_Diagonals"
     style="fill:#ff0000" />
  <use
     transform="matrix(-1,0,0,-1,15120,7560)"
     id="Red_Diagonals_Rotated"
     style="fill:#ff0000"
     xlink:href="#Red_Diagonals"
     x="0"
     y="0"
     width="30240"
     height="15120" />
</svg>
