<?xml version="1.0" encoding="UTF-8" standalone="no"?>
<svg
   xmlns:dc="http://purl.org/dc/elements/1.1/"
   xmlns:cc="http://creativecommons.org/ns#"
   xmlns:rdf="http://www.w3.org/1999/02/22-rdf-syntax-ns#"
   xmlns:svg="http://www.w3.org/2000/svg"
   xmlns="http://www.w3.org/2000/svg"
   xmlns:xlink="http://www.w3.org/1999/xlink"
   xmlns:sodipodi="http://sodipodi.sourceforge.net/DTD/sodipodi-0.dtd"
   xmlns:inkscape="http://www.inkscape.org/namespaces/inkscape"
   version="1.0"
   width="256"
   height="256"
   viewBox="0 0 36 24"
   id="svg2734"
   sodipodi:version="0.32"
   inkscape:version="0.46"
   sodipodi:docname="Flag_of_Panama.svg"
   inkscape:output_extension="org.inkscape.output.svg.inkscape">
  <metadata
     id="metadata2768">
    <rdf:RDF>
      <cc:Work
         rdf:about="">
        <dc:format>image/svg+xml</dc:format>
        <dc:type
           rdf:resource="http://purl.org/dc/dcmitype/StillImage" />
      </cc:Work>
    </rdf:RDF>
  </metadata>
  <sodipodi:namedview
     inkscape:window-height="723"
     inkscape:window-width="943"
     inkscape:pageshadow="2"
     inkscape:pageopacity="0.0"
     guidetolerance="10.0"
     gridtolerance="10.0"
     objecttolerance="10.0"
     borderopacity="1.0"
     bordercolor="#666666"
     pagecolor="#ffffff"
     id="base"
     showgrid="false"
     inkscape:zoom="1.2422222"
     inkscape:cx="225"
     inkscape:cy="150"
     inkscape:window-x="82"
     inkscape:window-y="196"
     inkscape:current-layer="svg2734" />
  <desc
     id="desc2736">Flag of Panama</desc>
  <defs
     id="defs2738">
    <inkscape:perspective
       sodipodi:type="inkscape:persp3d"
       inkscape:vp_x="0 : 150 : 1"
       inkscape:vp_y="0 : 1000 : 0"
       inkscape:vp_z="450 : 150 : 1"
       inkscape:persp3d-origin="225 : 100 : 1"
       id="perspective2770" />
    <g
       id="star"
       transform="scale(3,3)">
      <g
         id="c">
        <path
           id="t"
           d="M 0,0 L 0,1 L 0.5,1 L 0,0 z"
           transform="matrix(0.9510565,0.309017,-0.309017,0.9510565,0,-1)" />
        <use
           xlink:href="#t"
           transform="scale(-1,1)"
           id="use2743"
           x="0"
           y="0"
           width="36"
           height="24" />
      </g>
      <use
         xlink:href="#c"
         transform="matrix(0.309017,0.9510565,-0.9510565,0.309017,0,0)"
         id="use2745"
         x="0"
         y="0"
         width="36"
         height="24" />
      <use
         xlink:href="#c"
         transform="matrix(0.309017,-0.9510565,0.9510565,0.309017,0,0)"
         id="use2747"
         x="0"
         y="0"
         width="36"
         height="24" />
      <use
         xlink:href="#c"
         transform="matrix(-0.809017,0.5877853,-0.5877853,-0.809017,0,0)"
         id="use2749"
         x="0"
         y="0"
         width="36"
         height="24" />
      <use
         xlink:href="#c"
         transform="matrix(-0.809017,-0.5877853,0.5877853,-0.809017,0,0)"
         id="use2751"
         x="0"
         y="0"
         width="36"
         height="24" />
    </g>
  </defs>
  <path
     d="M 0,0 L 36,0 L 36,24 L 0,24 L 0,0 z"
     id="path2753"
     style="fill:#ffffff" />
  <g
     id="g2755"
     style="fill:#0067c6">
    <use
       xlink:href="#star"
       x="9"
       y="6"
       id="use2757"
       width="36"
       height="24" />
    <path
       d="M 0,12 L 18,12 L 18,24 L 0,24 L 0,12 z"
       id="path2759" />
  </g>
  <g
     id="g2761"
     style="fill:#d21034">
    <path
       d="M 18,0 L 36,0 L 36,12 L 18,12 L 18,0 z"
       id="path2763" />
    <use
       xlink:href="#star"
       x="27"
       y="18"
       id="use2765"
       width="36"
       height="24" />
  </g>
</svg>
