<?xml version="1.0" encoding="UTF-8" standalone="no"?>
<!-- Created with Inkscape (http://www.inkscape.org/) -->
<svg
   xmlns:dc="http://purl.org/dc/elements/1.1/"
   xmlns:cc="http://web.resource.org/cc/"
   xmlns:rdf="http://www.w3.org/1999/02/22-rdf-syntax-ns#"
   xmlns:svg="http://www.w3.org/2000/svg"
   xmlns="http://www.w3.org/2000/svg"
   xmlns:sodipodi="http://inkscape.sourceforge.net/DTD/sodipodi-0.dtd"
   xmlns:inkscape="http://www.inkscape.org/namespaces/inkscape"
   width="800"
   height="500"
   id="svg4072"
   sodipodi:version="0.32"
   inkscape:version="0.43"
   version="1.0"
   sodipodi:docbase="C:\Documents and Settings\David Nelson\Archives\Svg"
   sodipodi:docname="Flag_of_Sint_Maarten.svg">
  <defs
     id="defs4074" />
  <sodipodi:namedview
     id="base"
     pagecolor="#ffffff"
     bordercolor="#666666"
     borderopacity="1.0"
     inkscape:pageopacity="0.0"
     inkscape:pageshadow="2"
     inkscape:zoom="0.74599982"
     inkscape:cx="400.0001"
     inkscape:cy="368.18497"
     inkscape:document-units="px"
     inkscape:current-layer="layer1"
     showgrid="true"
     inkscape:grid-bbox="true"
     inkscape:grid-points="true"
     gridspacingx="25px"
     gridspacingy="25px"
     gridtolerance="12.5px"
     inkscape:window-width="756"
     inkscape:window-height="540"
     inkscape:window-x="47"
     inkscape:window-y="66" />
  <metadata
     id="metadata4077">
    <rdf:RDF>
      <cc:Work
         rdf:about="">
        <dc:format>image/svg+xml</dc:format>
        <dc:type
           rdf:resource="http://purl.org/dc/dcmitype/StillImage" />
      </cc:Work>
    </rdf:RDF>
  </metadata>
  <g
     inkscape:label="Layer 1"
     inkscape:groupmode="layer"
     id="layer1">
    <path
       style="fill:#000000;stroke:none"
       d="M -1374.5482,4220.5097 L -1374.5482,4220.5097 L -1374.5482,4220.5097 L -1374.5482,4220.5097"
       id="path14" />
    <path
       sodipodi:nodetypes="ccccc"
       style="fill:#ffffff;fill-opacity:1;stroke:none"
       d="M 800,500 L 800,0 L 0,0 L 0,500 L 800,500"
       id="path180" />
    <path
       style="fill:#ffff00;stroke:none"
       d="M 157.17462,189.31685 L 157.26593,185.85863 C 157.26593,185.85863 155.40929,182.90079 157.56421,179.72258 C 157.56421,179.72258 152.98653,177.30043 154.05181,173.5074 C 154.05181,173.5074 149.91242,172.44881 150.21678,167.89486 C 150.21678,167.89486 145.74867,167.58502 145.28603,163.78043 C 145.28603,163.78043 140.81792,164.51639 138.8517,160.80919 C 138.8517,160.80919 134.49316,161.66142 133.26352,158.60557 C 133.26352,158.60557 129.02672,160.07323 126.51265,156.48109 C 126.51265,156.48109 122.03845,158.28903 120.16355,154.89838 C 118.31299,158.27746 113.83879,156.48109 113.83879,156.48109 C 111.35515,160.06045 107.08792,158.57513 107.08792,158.57513 C 105.90089,161.64316 101.55452,160.77267 101.55452,160.77267 C 99.594397,164.48047 95.132371,163.74329 95.132371,163.74329 C 94.694082,167.53632 90.232056,167.84617 90.232056,167.84617 C 90.585122,172.41168 86.451813,173.44713 86.451813,173.44713 C 87.541448,177.23955 82.96985,179.65562 82.96985,179.65562 C 85.179557,182.85209 83.341178,185.78619 83.341178,185.78619 L 83.237693,188.97535 L 157.1868,189.31685"
       id="path182" />
    <path
       style="fill:none;stroke:#000000;stroke-width:0.09109616"
       d="M 157.17462,189.31685 L 157.26593,185.85863 C 157.26593,185.85863 155.40929,182.90079 157.56421,179.72258 C 157.56421,179.72258 152.98653,177.30043 154.05181,173.5074 C 154.05181,173.5074 149.91242,172.44881 150.21678,167.89486 C 150.21678,167.89486 145.74867,167.58502 145.28603,163.78043 C 145.28603,163.78043 140.81792,164.51639 138.8517,160.80919 C 138.8517,160.80919 134.49316,161.66142 133.26352,158.60557 C 133.26352,158.60557 129.02672,160.07323 126.51265,156.48109 C 126.51265,156.48109 122.03845,158.28903 120.16355,154.89838 C 118.31299,158.27746 113.83879,156.48109 113.83879,156.48109 C 111.35515,160.06045 107.08792,158.57513 107.08792,158.57513 C 105.90089,161.64316 101.55452,160.77267 101.55452,160.77267 C 99.594397,164.48047 95.132371,163.74329 95.132371,163.74329 C 94.694082,167.53632 90.232056,167.84617 90.232056,167.84617 C 90.585122,172.41168 86.451813,173.44713 86.451813,173.44713 C 87.541448,177.23955 82.96985,179.65562 82.96985,179.65562 C 85.179557,182.85209 83.341178,185.78619 83.341178,185.78619 L 83.237693,188.97535 L 157.1868,189.31685 L 157.17462,189.31685 z "
       id="path184" />
    <path
       style="fill:#ff0000;stroke:none"
       d="M 155.44582,185.00031 C 143.83116,183.83763 130.45725,181.08006 120.13311,186.89409 C 113.21179,182.81495 103.57552,183.06454 95.369778,183.86259 C 90.913839,184.66003 85.672632,184.66003 81.015811,185.42095 L 80.285329,185.52382 C 71.83609,186.08447 64.172119,183.58805 56.830778,180.30697 C 59.162232,193.54086 61.749355,207.10408 63.02161,220.95889 C 65.791354,241.47873 53.31229,258.70653 58.43175,278.9774 C 61.487599,288.70437 72.183069,294.35952 81.971525,295.4802 C 91.449526,296.03963 101.25624,297.59251 110.02811,299.49724 C 111.69605,299.84422 113.67443,300.61792 114.82494,301.11647 C 117.24162,302.12697 119.01304,303.6129 120.56531,305.20169 C 125.8613,299.68595 133.62267,298.15194 141.28056,297.34232 C 155.08057,295.72917 172.09471,296.60636 180.54395,284.10295 L 180.54395,283.3962 C 185.13381,276.48098 184.52508,265.93221 182.53451,258.09719 C 182.40059,255.36397 181.67011,252.95338 181.27443,250.3486 C 172.84346,228.08047 180.06305,203.03712 183.69111,180.59307 C 179.25952,183.01584 174.31659,184.16026 169.38584,185.37225 C 165.45342,185.89576 161.07052,185.65835 157.0894,185.44469 L 155.43973,185.00031"
       id="path186" />
    <path
       style="fill:#80cfe1;stroke:none"
       d="M 172.79476,248.9059 C 172.73997,250.37234 173.53133,251.52346 173.81743,252.88033 C 175.43058,262.614 176.98894,275.50761 166.96916,281.54626 C 155.8841,288.5948 141.34752,285.57608 128.52147,289.30702 C 125.9587,290.01924 122.42804,292.37565 120.62618,294.04298 C 119.46959,293.28206 118.3069,292.11329 116.8155,291.42603 C 106.26004,285.81349 92.539161,287.69387 80.626221,284.66237 C 74.642358,282.76982 68.402826,278.10691 66.887076,271.98243 C 62.991174,255.91244 72.323078,242.2159 71.221268,226.27314 C 70.509048,214.09844 68.4637,202.41074 65.651345,190.99696 C 74.964987,195.33663 85.745681,196.06102 96.215919,193.97976 C 103.9712,192.8956 112.99874,192.87186 120.26703,196.15294 C 124.27251,194.42961 128.95976,193.65652 133.27569,193.18171 C 141.48144,193.97976 150.30201,195.46446 158.75125,195.4042 C 164.39422,195.1114 169.51976,193.47999 174.42617,191.3068 C 171.51641,210.1715 165.92823,229.93164 172.78867,248.9059"
       id="path188" />
    <path
       style="fill:#ffffff;stroke:none"
       d="M 156.04238,252.66727 L 155.95107,234.92874 L 158.13642,234.92874 L 131.02337,217.41544 L 130.97468,208.31485 L 133.59224,208.31485 L 120.03571,198.60614 L 106.54615,208.30938 L 109.15762,208.30938 L 109.20632,217.40327 L 82.239368,234.89282 L 84.394289,234.90439 L 84.485599,252.63136 L 156.03629,252.68006"
       id="path190" />
    <path
       style="fill:none;stroke:#000000;stroke-width:0.39099982;stroke-miterlimit:4;stroke-dasharray:none"
       d="M 156.04238,252.66727 L 155.95107,234.92874 L 158.13642,234.92874 L 131.02337,217.41544 L 130.97468,208.31485 L 133.59224,208.31485 L 120.03571,198.60614 L 106.54615,208.30938 L 109.15762,208.30938 L 109.20632,217.40327 L 82.239368,234.89282 L 84.394289,234.90439 L 84.485599,252.63136 L 156.03629,252.68006 L 156.04238,252.66727 z "
       id="path192" />
    <path
       style="fill:#dc171d;stroke:none;fill-opacity:1"
       d="M 800,250 L 800,0 L 0,0 L 375,250"
       id="path194"
       sodipodi:nodetypes="cccc" />
    <path
       sodipodi:nodetypes="cccc"
       style="fill:#00007b;stroke:none;fill-opacity:1"
       d="M 800,500 L 800,250 L 375,250 L 0,500"
       id="path196" />
    <path
       style="fill:#ffffff;stroke:none"
       d="M 164.37595,275.97025 L 164.38204,281.5213 L 77.034686,281.4239 L 76.998161,275.89659 L 164.38204,275.97025"
       id="path198" />
    <path
       style="fill:none;stroke:#000000;stroke-width:0.39099982;stroke-miterlimit:4;stroke-dasharray:none"
       d="M 164.37595,275.97025 L 164.38204,281.5213 L 77.034686,281.4239 L 76.998161,275.89659 L 164.38204,275.97025 L 164.37595,275.97025 z "
       id="path200" />
    <path
       sodipodi:nodetypes="cccccccccccccc"
       style="fill:#ffffff;stroke:none"
       d="M 82.835928,275.63544 L 82.76288,256.84989 L 86.299409,256.84315 L 86.104834,275.84789 L 86.317803,256.99594 L 81.222781,256.84989 L 81.222781,252.81946 L 159.28693,252.90529 L 159.32346,256.89859 L 154.50836,256.89859 L 154.59967,275.92155 L 154.42923,256.89859 L 158.01468,256.89859 L 158.09381,275.70788"
       id="path202" />
    <path
       sodipodi:nodetypes="cccccccccccccc"
       style="fill:none;stroke:#000000;stroke-width:0.39099982;stroke-miterlimit:4;stroke-dasharray:none"
       d="M 82.835928,275.63544 L 82.76288,256.84989 L 86.299409,256.84315 L 86.104834,275.84789 L 86.317803,256.99594 L 81.222781,256.84989 L 81.222781,252.81946 L 159.28693,252.90529 L 159.32346,256.89859 L 154.50836,256.89859 L 154.59967,275.92155 L 154.42923,256.89859 L 158.01468,256.89859 L 158.09381,275.70788"
       id="path204" />
    <path
       style="fill:none;stroke:#000000;stroke-width:0.39099982;stroke-miterlimit:4;stroke-dasharray:none"
       d="M 99.618747,271.00906 L 99.56396,257.90909 L 89.081547,257.90909 L 89.142421,270.99628 L 99.618747,271.00906"
       id="path206" />
    <path
       style="fill:none;stroke:#000000;stroke-width:0.39099982;stroke-miterlimit:4;stroke-dasharray:none"
       d="M 91.936513,260.6417 L 91.96695,268.25088 L 96.76378,268.25088 L 96.739431,260.6417 L 91.936513,260.6417"
       id="path208" />
    <path
       style="fill:none;stroke:#000000;stroke-width:0.39099982;stroke-miterlimit:4;stroke-dasharray:none"
       d="M 150.86204,271.04498 L 150.80117,257.95779 L 140.35528,257.94561 L 140.40398,271.04498 L 150.86204,271.04498"
       id="path210" />
    <path
       style="fill:none;stroke:#000000;stroke-width:0.39099982;stroke-miterlimit:4;stroke-dasharray:none"
       d="M 143.17981,260.6904 L 143.2346,268.27523 L 148.02534,268.27523 L 147.98273,260.6904 L 143.17981,260.6904"
       id="path212" />
    <path
       style="fill:none;stroke:#000000;stroke-width:0.39099982;stroke-miterlimit:4;stroke-dasharray:none"
       d="M 150.78291,249.71552 L 150.72203,236.61494 L 140.26397,236.61494 L 140.30049,249.71552 L 150.78899,249.71552 L 150.78291,249.71552 z "
       id="path214" />
    <path
       style="fill:none;stroke:#000000;stroke-width:0.39099982;stroke-miterlimit:4;stroke-dasharray:none"
       d="M 143.10067,239.3725 L 143.13111,246.96951 L 147.92185,246.96951 L 147.91577,239.3725 L 143.10067,239.3725"
       id="path216" />
    <path
       style="fill:none;stroke:#000000;stroke-width:0.39099982;stroke-miterlimit:4;stroke-dasharray:none"
       d="M 99.533524,249.66682 L 99.460476,236.59119 L 88.996324,236.57841 L 89.045023,249.66012 L 99.533524,249.66012 L 99.533524,249.66682 z "
       id="path218" />
    <path
       style="fill:none;stroke:#000000;stroke-width:0.39099982;stroke-miterlimit:4;stroke-dasharray:none"
       d="M 91.851291,239.32381 L 91.87564,246.90925 L 96.678558,246.92082 L 96.642033,239.32381 L 91.851291,239.32381"
       id="path220" />
    <path
       style="fill:none;stroke:#000000;stroke-width:0.39099982;stroke-miterlimit:4;stroke-dasharray:none"
       d="M 118.5017,249.69056 L 118.453,236.61494 L 107.98276,236.60337 L 108.02537,249.69056 L 118.5017,249.69056"
       id="path222" />
    <path
       style="fill:none;stroke:#000000;stroke-width:0.39099982;stroke-miterlimit:4;stroke-dasharray:none"
       d="M 110.82555,239.33598 L 110.8499,246.92082 L 115.64673,246.94517 L 115.6163,239.33598 L 110.82555,239.33598"
       id="path224" />
    <path
       style="fill:none;stroke:#000000;stroke-width:0.39099982;stroke-miterlimit:4;stroke-dasharray:none"
       d="M 133.12351,249.71552 L 133.05046,236.61494 L 122.58631,236.60337 L 122.63501,249.69056 L 133.12351,249.71552"
       id="path226" />
    <path
       style="fill:none;stroke:#000000;stroke-width:0.39099982;stroke-miterlimit:4;stroke-dasharray:none"
       d="M 125.43519,239.34876 L 125.47171,246.95795 L 130.26854,246.95795 L 130.24419,239.34876 L 125.43519,239.34876"
       id="path228" />
    <path
       style="fill:#ffffff;stroke:none"
       d="M 135.71672,245.69726 L 135.83238,275.89659 L 105.49912,275.84789 L 105.38955,245.67352 L 135.71063,245.69726"
       id="path230" />
    <path
       style="fill:none;stroke:#000000;stroke-width:0.39099982;stroke-miterlimit:4;stroke-dasharray:none"
       d="M 135.71672,245.69726 L 135.83238,275.89659 L 105.49912,275.84789 L 105.38955,245.67352 L 135.71063,245.69726 L 135.71672,245.69726 z "
       id="path232" />
    <path
       style="fill:none;stroke:#000000;stroke-width:0.39099982;stroke-miterlimit:4;stroke-dasharray:none"
       d="M 105.20693,254.31694 L 135.74716,254.34129"
       id="path234" />
    <path
       style="fill:none;stroke:#000000;stroke-width:0.39099982;stroke-miterlimit:4;stroke-dasharray:none"
       d="M 109.01761,275.88442 L 108.91413,254.54218"
       id="path236" />
    <path
       style="fill:none;stroke:#000000;stroke-width:0.39099982;stroke-miterlimit:4;stroke-dasharray:none"
       d="M 132.14345,275.89659 L 132.03996,254.56713"
       id="path238" />
    <path
       style="fill:none;stroke:#000000;stroke-width:0.39099982;stroke-miterlimit:4;stroke-dasharray:none"
       d="M 146.78961,232.8353 L 129.70851,220.36172 L 110.5151,220.33737 L 93.567923,232.7866 L 146.78961,232.8353"
       id="path240" />
    <path
       style="fill:none;stroke:#000000;stroke-width:0.39099982;stroke-miterlimit:4;stroke-dasharray:none;stroke-opacity:1"
       d="M 111.99433,210.00775 L 112.02476,217.61693 L 128.16841,217.62911 L 128.13797,210.01992 L 111.99433,210.00775"
       id="path242" />
    <path
       style="fill:none;stroke:#000000;stroke-width:0.39099982;stroke-miterlimit:4;stroke-dasharray:none"
       d="M 116.37113,211.89482 L 116.39548,215.68663 L 123.80987,215.68663 L 123.78552,211.89482 L 116.37113,211.89482"
       id="path244" />
    <path
       style="fill:none;stroke:#000000;stroke-width:0.39099982;stroke-miterlimit:4;stroke-dasharray:none"
       d="M 120.03571,201.35154 L 129.01455,207.70003 L 111.12383,207.67629 L 120.03571,201.35154"
       id="path246" />
    <path
       style="fill:#ffffff;stroke:none"
       d="M 156.34066,197.04717 C 158.89125,196.9863 159.54869,207.55394 159.55478,212.78906 C 161.74622,213.40388 166.60392,216.46034 168.75276,219.22338 L 144.11117,219.18686 C 146.22957,216.46034 151.05075,213.3917 153.22393,212.77749 C 153.22393,207.53567 153.75962,196.97473 156.34066,197.03561"
       id="path248" />
    <path
       style="fill:none;stroke:#000000;stroke-width:0.39099982;stroke-miterlimit:4;stroke-dasharray:none"
       d="M 156.34066,197.04717 C 158.89125,196.9863 159.54869,207.55394 159.55478,212.78906 C 161.74622,213.40388 166.60392,216.46034 168.75276,219.22338 L 144.11117,219.18686 C 146.22957,216.46034 151.05075,213.3917 153.22393,212.77749 C 153.22393,207.53567 153.75962,196.97473 156.34066,197.03561"
       id="path250" />
    <path
       style="fill:none;stroke:#000000;stroke-width:0.39099982;stroke-miterlimit:4;stroke-dasharray:none"
       d="M 106.8079,246.54401 L 109.01761,246.54401 L 108.37235,247.73043 C 108.37235,247.73043 109.43764,249.1007 108.39062,250.67062 L 108.96891,251.76087 L 106.83834,251.76087 L 107.41664,250.72541 C 107.41664,250.72541 106.327,248.9059 107.46534,247.73043 L 106.8079,246.54401"
       id="path252" />
    <path
       style="fill:none;stroke:#000000;stroke-width:0.39099982;stroke-miterlimit:4;stroke-dasharray:none"
       d="M 111.31254,246.54401 L 113.52225,246.54401 L 112.88308,247.73043 C 112.88308,247.73043 113.94836,249.06417 112.88917,250.67062 L 113.46138,251.76087 L 111.33689,251.76087 L 111.9091,250.72541 C 111.9091,250.72541 110.84382,248.9059 111.96389,247.73043 L 111.31254,246.54401"
       id="path254" />
    <path
       style="fill:none;stroke:#000000;stroke-width:0.39099982;stroke-miterlimit:4;stroke-dasharray:none"
       d="M 116.22503,246.54401 L 118.42865,246.54401 L 117.77122,247.73043 C 117.77122,247.73043 118.84868,249.1007 117.78948,250.67062 L 118.36778,251.78461 L 116.25547,251.76087 L 116.82159,250.72541 C 116.82159,250.72541 115.74413,248.91747 116.8642,247.73043 L 116.21894,246.54401 L 116.22503,246.54401 z "
       id="path256" />
    <path
       style="fill:none;stroke:#000000;stroke-width:0.39099982;stroke-miterlimit:4;stroke-dasharray:none"
       d="M 121.77061,246.55557 L 123.99249,246.55557 L 123.34114,247.75478 C 123.34114,247.75478 124.40643,249.1007 123.34723,250.67671 L 123.94379,251.78461 L 121.80104,251.78461 L 122.37325,250.74976 C 122.37325,250.74976 121.30797,248.91747 122.4463,247.75478 L 121.77669,246.55557 L 121.77061,246.55557 z "
       id="path258" />
    <path
       style="fill:none;stroke:#000000;stroke-width:0.39099982;stroke-miterlimit:4;stroke-dasharray:none"
       d="M 126.70136,246.55557 L 128.90498,246.55557 L 128.25363,247.75478 C 128.25363,247.75478 129.325,249.1007 128.26581,250.67062 L 128.85019,251.78461 L 126.72571,251.78461 L 127.27966,250.74976 C 127.27966,250.74976 126.20828,248.92964 127.36488,247.75478 L 126.70136,246.55557"
       id="path260" />
    <path
       style="fill:none;stroke:#000000;stroke-width:0.39099982;stroke-miterlimit:4;stroke-dasharray:none"
       d="M 131.60167,246.56775 L 133.80529,246.55557 L 133.15395,247.75478 C 133.15395,247.75478 134.24358,249.1007 133.18438,250.67671 L 133.73833,251.78461 L 131.60776,251.78461 L 132.17997,250.74976 C 132.17997,250.74976 131.11469,248.92964 132.25302,247.75478 L 131.60167,246.56775"
       id="path262" />
    <path
       style="fill:#ffff00;stroke:none"
       d="M 120.69923,314.60604 C 132.05822,314.64256 146.02869,312.32328 152.57259,308.93933 L 166.94482,307.66646 L 167.23092,325.20472 C 155.05622,331.91846 126.94485,333.36116 120.76011,333.31246 C 114.56927,333.36116 86.110921,331.89472 73.881439,325.15602 L 74.03971,307.60559 L 88.442376,308.90219 C 94.986275,312.26911 109.38285,314.60604 120.72967,314.60604 L 120.69923,314.60604"
       id="path264" />
    <path
       style="fill:none;stroke:#000000;stroke-width:0.09109616"
       d="M 120.69923,314.60604 C 132.05822,314.64256 146.02869,312.32328 152.57259,308.93933 L 166.94482,307.66646 L 167.23092,325.20472 C 155.05622,331.91846 126.94485,333.36116 120.76011,333.31246 C 114.56927,333.36116 86.110921,331.89472 73.881439,325.15602 L 74.03971,307.60559 L 88.442376,308.90219 C 94.986275,312.26911 109.38285,314.60604 120.72967,314.60604 L 120.69923,314.60604"
       id="path266" />
    <path
       style="fill:#ffff00;stroke:none"
       d="M 36.882538,239.79862 L 49.544222,243.82844 L 45.71528,264.33124 L 33.729292,266.19336 C 33.729292,266.19336 31.708292,255.41267 36.882538,239.78644"
       id="path268" />
    <path
       style="fill:none;stroke:#000000;stroke-width:0.09109616"
       d="M 36.882538,239.79862 L 49.544222,243.82844 L 45.71528,264.33124 L 33.729292,266.19336 C 33.729292,266.19336 31.708292,255.41267 36.882538,239.78644 L 36.882538,239.79862 z "
       id="path270" />
    <path
       style="fill:#7e7e7e;stroke:none"
       d="M 45.709193,264.1054 L 33.729292,266.19336 L 41.30804,255.41267 L 45.709193,264.1054"
       id="path272" />
    <path
       style="fill:none;stroke:#000000;stroke-width:0.09109616"
       d="M 45.709193,264.1054 L 33.729292,266.19336 L 41.30804,255.41267 L 45.709193,264.1054"
       id="path274" />
    <path
       style="fill:#ffff00;stroke:none"
       d="M 29.309877,254.56713 L 41.51501,255.44919 C 41.788941,265.7922 43.042934,305.26257 90.171183,307.40531 L 88.704132,321.76537 C 31.336964,322.36132 26.978423,273.35269 29.309877,254.56713"
       id="path276" />
    <path
       style="fill:none;stroke:#000000;stroke-width:0.09109616"
       d="M 29.309877,254.56713 L 41.51501,255.44919 C 41.788941,265.7922 43.042934,305.26257 90.171183,307.40531 L 88.704132,321.76537 C 31.336964,322.36132 26.978423,273.35269 29.309877,254.56713 z "
       id="path278" />
    <path
       style="fill:none;stroke:#000000;stroke-width:0.09109616"
       d="M 74.106671,324.70495 L 88.491074,321.56388"
       id="path280" />
    <path
       style="fill:#ffff00;stroke:none"
       d="M 203.5176,239.94471 L 190.90462,243.93802 L 194.904,264.41038 L 206.91434,266.33946 C 206.91434,266.33946 208.84403,255.56546 203.5176,239.93315"
       id="path282" />
    <path
       style="fill:none;stroke:#000000;stroke-width:0.09109616"
       d="M 203.5176,239.94471 L 190.90462,243.93802 L 194.904,264.41038 L 206.91434,266.33946 C 206.91434,266.33946 208.84403,255.56546 203.5176,239.93315 L 203.5176,239.94471 z "
       id="path284" />
    <path
       style="fill:#7e7e7e;stroke:none"
       d="M 194.904,264.19671 L 206.91434,266.35163 L 199.23211,255.56546 L 194.904,264.19671"
       id="path286" />
    <path
       style="fill:none;stroke:#000000;stroke-width:0.09109616"
       d="M 194.904,264.19671 L 206.91434,266.35163 L 199.23211,255.56546 L 194.904,264.19671"
       id="path288" />
    <path
       style="fill:#ffff00;stroke:none"
       d="M 211.23027,254.73088 L 199.00688,255.56546 C 198.83034,265.89508 197.92942,305.38371 150.80117,307.47775 L 152.40214,321.82624 C 209.75713,322.48915 213.70174,273.50426 211.23027,254.7254"
       id="path290" />
    <path
       style="fill:none;stroke:#000000;stroke-width:0.09109616"
       d="M 211.23027,254.73088 L 199.00688,255.56546 C 198.83034,265.89508 197.92942,305.38371 150.80117,307.47775 L 152.40214,321.82624 C 209.75713,322.48915 213.70174,273.50426 211.23027,254.7254 L 211.23027,254.73088 z "
       id="path292" />
    <path
       style="fill:none;stroke:#000000;stroke-width:0.09109616"
       d="M 167.03613,324.78408 L 152.6152,321.62536"
       id="path294" />
    <path
       style="fill:#009fc5;stroke:none"
       d="M 113.07179,323.25007 C 112.74916,323.45704 112.31087,323.51244 111.80562,323.48748 L 109.52895,323.37182 L 109.72374,320.52964 L 111.98215,320.65077 C 112.42653,320.68121 112.77959,320.76704 112.99874,320.90036 C 113.45529,321.13776 113.65617,321.57666 113.61356,322.18479 C 113.58312,322.7083 113.4005,323.0498 113.0657,323.25007 M 109.24284,327.72488 L 109.46808,324.26057 L 112.12216,324.4438 C 112.98048,324.51076 113.61965,324.28553 114.05185,323.84663 C 114.50231,323.42052 114.73363,322.86109 114.76407,322.22801 C 114.81885,321.49083 114.63015,320.88818 114.19186,320.4438 C 113.77183,320.01769 113.17527,319.79246 112.42653,319.72002 L 108.63411,319.48261 L 108.1106,327.63905 L 109.23676,327.71271"
       id="path296" />
    <path
       style="fill:#009fc5;stroke:none"
       d="M 117.49729,320.90036 L 120.27312,320.93079 C 120.67488,320.96732 120.99143,321.01602 121.22274,321.12559 C 121.64886,321.32647 121.84974,321.72824 121.84974,322.31262 C 121.84974,322.86109 121.69147,323.22633 121.38102,323.44548 C 121.08274,323.64575 120.65053,323.73706 120.13311,323.73706 L 117.46685,323.70662 L 117.4912,320.90036 M 117.44859,328.12604 L 117.47294,324.64407 L 120.07832,324.68121 C 120.54096,324.68121 120.88185,324.71712 121.11926,324.83278 C 121.50276,325.00932 121.69147,325.38125 121.70973,325.89198 L 121.77669,327.26163 C 121.79496,327.59035 121.80104,327.79184 121.8193,327.92516 C 121.85583,328.02255 121.87409,328.12604 121.92279,328.19969 L 123.32288,328.19969 L 123.29853,328.02255 C 123.14026,327.93733 123.01242,327.77358 122.95764,327.52339 C 122.90894,327.36512 122.88459,327.12771 122.87242,326.82943 L 122.84807,325.7398 C 122.8298,325.24672 122.74458,324.90644 122.55587,324.71712 C 122.39152,324.49798 122.16628,324.30927 121.8193,324.19361 C 122.2089,323.98725 122.50109,323.74984 122.71414,323.45704 C 122.91503,323.13441 123.01851,322.72656 123.01851,322.22801 C 123.01851,321.29055 122.63501,320.65077 121.85583,320.3044 C 121.4358,320.1157 120.90012,320.01769 120.26703,320.00612 L 116.35287,319.96899 L 116.32243,328.15039 L 117.44859,328.15039"
       id="path298" />
    <path
       style="fill:#009fc5;stroke:none"
       d="M 126.13523,326.41549 C 125.63607,325.80737 125.36823,325.04645 125.30736,324.14552 C 125.25257,323.01267 125.47171,322.14887 125.98914,321.56388 C 126.51265,320.93079 127.18835,320.62703 128.07101,320.57834 C 128.95976,320.52964 129.69025,320.81574 130.23202,321.37517 C 130.78597,321.92364 131.10251,322.68456 131.1573,323.63418 C 131.18773,324.54668 131.02946,325.35629 130.60944,326.06851 C 130.1955,326.79352 129.50763,327.20137 128.49104,327.22511 C 127.43184,327.28051 126.64048,327.03092 126.13523,326.41549 M 124.79602,321.2656 C 124.27251,322.07521 124.05945,323.01267 124.11423,324.14552 C 124.19337,325.36847 124.57079,326.37958 125.28301,327.1405 C 126.07436,327.90141 127.12138,328.28431 128.4119,328.21126 C 129.79373,328.15039 130.83467,327.62688 131.5408,326.66568 C 132.11301,325.79519 132.38694,324.78408 132.32607,323.53618 C 132.24693,322.42219 131.9243,321.51518 131.32165,320.83948 C 130.56074,319.93247 129.44675,319.53131 127.93709,319.59218 C 126.51265,319.68289 125.46563,320.2064 124.78993,321.2656"
       id="path300" />
    <path
       style="fill:#009fc5;stroke:none"
       d="M 163.23762,309.49875 C 164.02289,309.36483 164.70467,309.40196 165.32558,309.61441 C 166.23868,309.90052 166.85351,310.57682 167.23701,311.61106 L 166.11085,311.76933 C 165.86735,311.20991 165.52038,310.8264 165.05165,310.61274 C 164.5951,310.41246 164.02289,310.36316 163.36545,310.46116 C 162.59845,310.57682 161.98363,310.95972 161.55143,311.57515 C 161.12531,312.23197 160.99748,313.10916 161.18618,314.22862 C 161.34446,315.15451 161.68535,315.93917 162.24538,316.46268 C 162.76281,316.99837 163.52373,317.18707 164.51596,317.04706 C 165.25862,316.92532 165.85518,316.62765 166.27521,316.1157 C 166.7135,315.62932 166.84133,314.89214 166.69523,313.94252 L 164.07159,314.34489 L 163.93767,313.44396 L 167.59007,312.88332 L 168.30229,317.21142 L 167.5779,317.321 L 167.12744,316.32267 C 166.82307,316.77374 166.5187,317.12072 166.25086,317.321 C 165.80039,317.67467 165.19166,317.8999 164.43074,318.00947 C 163.44459,318.16105 162.54366,317.98452 161.72796,317.461 C 160.83312,316.79748 160.25482,315.81133 160.03568,314.44229 C 159.79827,313.09698 160.01133,311.94587 160.63224,311.03885 C 161.22271,310.16288 162.08102,309.65155 163.23762,309.48658"
       id="path302" />
    <path
       style="fill:#009fc5;stroke:none"
       d="M 171.49815,308.86567 L 174.11571,307.91604 C 174.47486,307.78273 174.78532,307.73951 175.05316,307.77056 C 175.53406,307.80647 175.88713,308.09258 176.08801,308.66479 C 176.27672,309.15177 176.27672,309.57789 176.06366,309.87678 C 175.83843,310.18662 175.48536,310.41246 174.97403,310.60056 L 172.51474,311.48323 L 171.49815,308.86567 M 174.11571,315.62932 L 172.83737,312.34824 L 175.27231,311.47105 C 175.72886,311.32496 176.0454,311.24582 176.28281,311.27078 C 176.71501,311.32496 177.04373,311.58732 177.26287,312.08588 L 177.81682,313.33439 C 177.93857,313.64424 178.03596,313.83294 178.1151,313.91878 C 178.15162,314.02835 178.23076,314.09531 178.29163,314.16775 L 179.61259,313.68137 L 179.53954,313.50484 C 179.34474,313.50484 179.15604,313.39526 179.01603,313.1816 C 178.91254,313.03002 178.81514,312.81088 178.67514,312.55521 L 178.24293,311.53193 C 178.04814,311.08755 177.84726,310.81423 177.61594,310.64926 C 177.38462,310.52143 177.09242,310.4362 176.74545,310.41246 C 177.01329,310.1014 177.20808,309.79095 177.28113,309.4257 C 177.36027,309.05499 177.32374,308.64105 177.14721,308.17841 C 176.81241,307.30792 176.19758,306.8331 175.33318,306.77223 C 174.87663,306.73571 174.35312,306.8331 173.75047,307.04555 L 170.07371,308.35494 L 173.04434,316.04874 L 174.1218,315.65306"
       id="path304" />
    <path
       style="fill:#009fc5;stroke:none"
       d="M 183.69111,311.57515 L 179.02211,304.7628 L 184.14766,301.49389 L 184.71378,302.31629 L 180.51351,305.0002 L 181.95013,307.08208 L 185.82777,304.58626 L 186.35737,305.38371 L 182.47973,307.88013 L 184.06244,310.17506 L 188.33576,307.44123 L 188.90188,308.24537 L 183.68502,311.57515"
       id="path306" />
    <path
       style="fill:#009fc5;stroke:none"
       d="M 187.77572,299.53376 L 189.11494,298.06063 C 189.73585,297.40319 190.39328,297.10491 191.11159,297.19014 C 191.82989,297.25101 192.56038,297.62842 193.33956,298.31021 C 193.55261,298.47457 193.74132,298.68762 193.93612,298.92503 C 194.27701,299.36941 194.47789,299.75961 194.60572,300.14859 C 194.7153,300.63618 194.69095,301.08056 194.5205,301.50667 C 194.41702,301.71912 194.2344,301.9687 193.96047,302.26759 L 192.61516,303.72856 L 187.77572,299.5222 M 194.84922,302.72962 C 195.79885,301.68321 196.00581,300.55705 195.45187,299.28479 C 195.12924,298.59631 194.63616,297.9267 193.95438,297.34232 C 193.09606,296.5814 192.20122,296.19181 191.25768,296.11937 C 190.21066,296.03963 189.32191,296.41765 188.54881,297.26318 L 186.26606,299.7103 L 192.56038,305.20169 L 194.84313,302.74241"
       id="path308" />
    <path
       style="fill:#009fc5;stroke:none"
       d="M 199.72518,296.38052 L 192.48124,292.12546 L 193.07171,291.18862 L 200.32783,295.41933 L 199.73127,296.39269"
       id="path310" />
    <path
       style="fill:#009fc5;stroke:none"
       d="M 202.56798,291.4382 L 194.74573,288.30869 L 197.05284,282.80573 L 198.00246,283.17097 L 196.12147,287.70605 L 198.47728,288.63193 L 200.23652,284.4554 L 201.13745,284.82734 L 199.39647,288.99717 L 202.03229,290.06794 L 203.96198,285.47869 L 204.9116,285.83723 L 202.56189,291.4382"
       id="path312" />
    <path
       style="fill:#009fc5;stroke:none"
       d="M 206.15951,281.83237 L 197.92942,280.01225 L 198.20335,278.73999 L 205.80645,276.17113 L 199.12862,274.69799 L 199.37212,273.69967 L 207.60221,275.47048 L 207.34046,276.70621 L 199.72518,279.33047 L 206.40301,280.77317 L 206.1656,281.83237"
       id="path314" />
    <path
       style="fill:#009fc5;stroke:none"
       d="M 205.50817,271.37978 L 205.61165,270.34493 C 206.08646,270.35771 206.48823,270.28406 206.7926,270.12031 C 207.38916,269.79707 207.73613,269.18286 207.82744,268.27523 C 207.86397,267.84973 207.84571,267.47779 207.74831,267.12472 C 207.57178,266.44355 207.18827,266.06553 206.57345,266.00465 C 206.1169,265.95595 205.78818,266.06553 205.55078,266.31572 C 205.33772,266.60182 205.11249,267.01515 204.94204,267.60015 L 204.56463,268.67761 C 204.32113,269.38313 204.0959,269.87012 203.85241,270.14405 C 203.46282,270.65599 202.91495,270.83253 202.21491,270.78383 C 201.46617,270.70469 200.85743,270.40641 200.42523,269.8342 C 199.98085,269.31069 199.79823,268.56195 199.9078,267.63606 C 199.98085,266.79053 200.26087,266.07831 200.76003,265.5061 C 201.22267,264.98259 201.94098,264.7324 202.86017,264.82979 L 202.77495,265.86464 C 202.32448,265.86464 201.96533,265.94378 201.70357,266.1264 C 201.22876,266.38815 200.967,266.9421 200.88787,267.75172 C 200.82091,268.42194 200.91222,268.87179 201.16789,269.21329 C 201.42355,269.4994 201.74618,269.68141 202.1236,269.71185 C 202.52536,269.74837 202.84191,269.62054 203.06105,269.31069 C 203.21932,269.09702 203.40803,268.63439 203.6637,267.88564 L 204.03503,266.7534 C 204.21765,266.22988 204.43679,265.82812 204.69246,265.54201 C 205.14901,265.0672 205.74557,264.86632 206.49432,264.92171 C 207.40742,265.0185 208.05876,265.39653 208.39357,266.09048 C 208.72228,266.79053 208.85012,267.56362 208.77098,268.4402 C 208.6675,269.43183 208.34487,270.21162 207.74831,270.73513 C 207.15175,271.27021 206.40909,271.45283 205.50817,271.37978"
       id="path316" />
    <path
       style="fill:#009fc5;stroke:none"
       d="M 34.898063,270.88123 L 35.08677,271.90329 C 34.630219,271.9946 34.264978,272.17783 33.997135,272.41524 C 33.516235,272.86509 33.351876,273.5414 33.516235,274.46059 C 33.589283,274.84957 33.729292,275.23307 33.905825,275.53805 C 34.271066,276.15896 34.745879,276.40793 35.348526,276.31053 C 35.792903,276.2314 36.085096,276.06156 36.225105,275.74502 C 36.359026,275.43395 36.456424,274.95914 36.486861,274.35101 L 36.541647,273.1999 C 36.578171,272.48768 36.657306,271.92825 36.815577,271.61719 C 37.065159,271.05715 37.533884,270.71017 38.233929,270.59512 C 38.982673,270.46059 39.640107,270.63104 40.20623,271.05715 C 40.778441,271.45283 41.155856,272.1407 41.295865,273.0538 C 41.472399,273.88838 41.393263,274.63712 41.064546,275.31221 C 40.748004,275.97025 40.139269,276.37141 39.207905,276.54185 L 39.025285,275.50761 C 39.457486,275.34934 39.780116,275.19655 39.993173,274.9841 C 40.358414,274.57564 40.467986,273.98577 40.327977,273.17616 C 40.218405,272.51811 39.993173,272.092 39.652281,271.87955 C 39.317477,271.62936 38.982673,271.53196 38.617432,271.59345 C 38.20958,271.65432 37.941737,271.87955 37.813902,272.24479 C 37.734767,272.48768 37.673893,272.99293 37.619107,273.76663 L 37.564321,274.95914 C 37.533884,275.51918 37.448661,275.98242 37.259954,276.29897 C 36.961674,276.88274 36.456424,277.2419 35.719855,277.35756 C 34.78849,277.51583 34.070183,277.30277 33.558846,276.70621 C 33.035334,276.12182 32.712705,275.42178 32.548346,274.55129 C 32.365726,273.51644 32.499648,272.71291 32.913587,272.06826 C 33.333614,271.40474 33.997135,271.02124 34.898063,270.8934"
       id="path318" />
    <path
       style="fill:#009fc5;stroke:none"
       d="M 34.380638,281.67409 L 42.428112,279.25133 L 44.303015,284.91804 L 43.322952,285.2285 L 41.788941,280.57168 L 39.341827,281.30885 L 40.760179,285.612 L 39.822727,285.91028 L 38.41655,281.59496 L 35.689418,282.41005 L 37.247779,287.17036 L 36.285978,287.4449 L 34.380638,281.67409"
       id="path320" />
    <path
       style="fill:#009fc5;stroke:none"
       d="M 37.947824,291.49847 L 45.350039,287.57273 L 46.141394,288.95395 L 41.052372,294.33517 L 48.485023,293.06291 L 49.252029,294.43318 L 41.868076,298.33517 L 41.344564,297.42754 L 45.703105,295.13322 C 45.861376,295.0413 46.10487,294.90738 46.457937,294.71928 C 46.804915,294.56101 47.194506,294.34734 47.584096,294.14646 L 40.181881,295.40654 L 39.640107,294.44474 L 44.692606,289.08179 L 44.449112,289.20414 C 44.290841,289.29485 44.01691,289.42938 43.645582,289.64182 C 43.280341,289.86766 43.00641,290.00706 42.829877,290.08011 L 38.483511,292.41157 L 37.947824,291.4869"
       id="path322" />
    <path
       style="fill:#009fc5;stroke:none"
       d="M 51.741755,302.40091 C 51.370426,302.31629 51.005185,302.10263 50.646032,301.7313 L 49.081584,300.11815 L 51.187806,298.18846 L 52.764429,299.79613 C 53.068796,300.09441 53.263592,300.38599 53.367077,300.63618 C 53.513173,301.11647 53.367077,301.55537 52.9227,301.9687 C 52.520935,302.34003 52.11917,302.49222 51.741755,302.40091 M 45.794416,303.14965 L 48.375451,300.78167 L 50.207743,302.63831 C 50.798216,303.24096 51.400863,303.51489 52.033947,303.50332 C 52.679206,303.46619 53.233155,303.22878 53.720143,302.76615 C 54.268004,302.27916 54.52976,301.70695 54.52976,301.09273 C 54.523673,300.49557 54.249742,299.93614 53.744492,299.41263 L 51.114758,296.7275 L 44.990886,302.35221 L 45.782241,303.14965"
       id="path324" />
    <path
       style="fill:#009fc5;stroke:none"
       d="M 53.178369,309.72399 L 57.616045,302.76615 L 62.863339,305.95592 L 62.315478,306.7844 L 58.005636,304.20337 L 56.672506,306.30959 L 60.63537,308.71349 L 60.124033,309.51154 L 56.155082,307.11921 L 54.64542,309.4744 L 59.010048,312.09866 L 58.486536,312.92045 L 53.178369,309.72399"
       id="path326" />
    <path
       style="fill:#009fc5;stroke:none"
       d="M 66.314866,308.37868 L 68.981124,309.22543 C 69.35854,309.34048 69.63247,309.48658 69.815091,309.65155 C 70.155982,309.97418 70.247293,310.4362 70.04641,310.99624 C 69.882052,311.48323 69.63247,311.79977 69.24288,311.9343 C 68.895901,311.99457 68.457612,311.99457 67.946275,311.83629 L 65.4322,311.03337 L 66.314866,308.37868 M 64.013848,315.21477 L 65.121745,311.89717 L 67.605383,312.70679 C 68.04976,312.82305 68.372389,312.98132 68.53066,313.14507 C 68.835028,313.41901 68.926338,313.82686 68.774154,314.33272 L 68.402826,315.65306 C 68.317603,315.97569 68.274992,316.18875 68.238468,316.28615 C 68.238468,316.39024 68.238468,316.49981 68.25673,316.57225 L 69.56551,316.99837 L 69.644645,316.80966 C 69.504636,316.70009 69.425501,316.49981 69.431588,316.25023 C 69.462025,316.09744 69.504636,315.85455 69.589859,315.57393 L 69.906401,314.51473 C 70.034235,314.05209 70.082934,313.70511 69.967275,313.45614 C 69.869877,313.19377 69.705519,312.95637 69.431588,312.73174 C 69.845528,312.65809 70.204681,312.53025 70.509048,312.30502 C 70.795154,312.05544 71.038648,311.70846 71.184744,311.22208 C 71.483024,310.33881 71.318666,309.60224 70.661232,309.0422 C 70.332515,308.75062 69.86379,308.50043 69.248967,308.26911 L 65.52351,307.11921 L 62.918126,314.87997 L 64.007761,315.21477"
       id="path328" />
    <path
       style="fill:#bc715f;stroke:none"
       d="M 75.318053,173.97065 C 76.279854,171.65076 85.191732,165.326 114.43535,168.09575 C 114.43535,168.09575 119.37828,171.11507 122.28194,170.72609 C 123.9377,170.51242 121.30797,170.82897 119.14696,169.0332 C 116.94334,167.23804 116.47461,163.55519 121.50885,163.65259 C 126.51874,163.78043 145.27386,164.83962 145.62692,166.52521 C 145.95564,168.22967 135.71063,168.94189 131.89995,168.84449 C 128.07101,168.74161 128.51539,170.67739 132.32607,170.53129 C 144.23292,170.10518 157.22941,165.91039 170.95638,175.62032 C 172.59387,176.80065 166.81698,176.98936 162.34887,175.09011 C 162.34887,175.09011 150.24113,175.71771 145.00601,174.8594 C 145.00601,174.8594 140.98228,178.13378 135.74107,177.81176 C 136.42285,179.50952 133.80529,185.84706 117.32684,181.08006 C 114.6058,181.91464 104.68951,183.57587 105.77306,180.6302 C 103.16158,180.6302 98.583897,181.47026 97.902114,179.98434 C 97.244681,178.52398 105.96176,176.31367 107.48969,174.73156 C 107.48969,174.73156 89.05111,174.9081 85.556973,173.63523 C 85.556973,173.63523 74.678882,176.07626 75.318053,173.95847"
       id="path330" />
    <path
       style="fill:#008737;stroke:none"
       d="M 81.228868,199.79257 C 81.624546,199.25749 81.782817,198.29508 82.622871,198.32004 C 84.449075,198.80642 85.690894,202.14837 87.937126,199.98128 C 88.734568,199.80474 89.038936,200.8889 89.696369,201.01673 C 90.116396,202.87337 91.607797,200.63932 92.721781,200.76654 C 95.101934,199.70734 98.048211,199.45776 100.86665,199.98128 C 100.95188,201.80139 99.527436,203.81022 97.737756,204.84507 C 97.77428,206.67797 99.436126,207.85282 99.405689,209.69668 C 99.119584,210.38516 99.356991,211.4681 98.316054,211.69333 C 96.9951,211.45593 95.692407,211.31592 94.596685,210.57935 C 94.462763,210.44543 94.353191,210.18367 94.073173,210.26889 C 93.939251,210.88372 94.901052,211.49306 95.278467,212.11945 C 94.614947,213.25169 93.513137,212.21684 92.58786,212.22902 C 92.313929,212.88037 92.575685,213.70216 91.906077,214.12218 C 90.737306,214.08566 90.499899,212.81401 89.781592,212.18032 C 89.045023,212.97776 90.299017,213.45258 90.47555,214.08566 C 90.025086,216.48408 90.08596,218.8277 87.687545,220.39824 L 86.080485,221.19629 C 85.642196,219.991 85.916126,218.16418 85.623934,216.9041 C 84.674307,218.45029 83.931651,219.80229 82.537648,221.11046 C 80.906239,220.57477 79.956613,218.65117 79.597459,217.05629 C 78.915676,215.19965 79.305266,212.97776 80.772317,211.63246 C 80.273155,210.65848 78.56261,210.88372 78.319116,209.49641 C 75.756342,207.82787 74.33799,212.41834 72.682232,210.03149 C 72.146545,207.80413 72.785717,205.03377 74.398864,203.37193 C 74.03971,202.45943 72.84659,202.69684 72.140458,202.17333 C 70.527311,200.80307 68.201944,199.35489 68.317603,196.88282 C 72.73093,195.21549 78.008661,196.43905 81.216694,199.79257"
       id="path332" />
    <path
       style="fill:#ffff00;stroke:none"
       d="M 83.517711,199.54359 C 83.414226,201.56399 84.881277,200.09085 85.970912,201.3144 C 85.118684,200.9796 84.497774,202.78754 83.663808,201.75269 L 83.140296,202.25246 C 83.444663,202.94581 84.035136,203.03712 83.420314,203.79804 C 82.507211,204.14502 82.324591,203.00121 81.898477,202.55014 C 81.825428,202.34986 82.038486,201.97184 81.703681,201.83792 C 81.186257,202.27621 80.644483,202.43448 79.932263,202.36204 C 79.737468,201.97184 79.360052,201.46111 79.743555,201.16283 C 80.4436,200.21868 81.527148,201.50311 82.056748,200.8402 C 82.141971,200.25581 81.630633,199.54359 82.294154,199.14122 C 82.750705,199.22036 83.335091,198.97138 83.523799,199.54359"
       id="path334" />
    <path
       style="fill:#ffff00;stroke:none"
       d="M 88.978062,201.19874 C 89.032848,201.58894 88.77718,202.1362 89.288517,202.41074 C 89.952038,202.05097 90.65817,202.3249 91.041673,202.98295 C 91.035586,203.3354 91.145158,203.79804 90.68252,203.96849 L 89.647671,203.7743 C 89.720719,203.57281 89.392002,203.44559 89.264168,203.25079 C 88.807617,203.11078 88.539773,203.4815 88.198882,203.70673 C 88.45455,204.09632 89.045023,204.30938 88.905014,204.80915 C 88.296279,205.41728 87.997999,204.28564 87.328391,204.57114 C 86.87184,204.39521 87.492749,203.44559 86.774442,203.15948 C 85.922214,203.15948 86.488337,204.55896 85.398702,204.01171 C 85.009111,203.57281 84.625608,202.98295 85.045636,202.48987 C 85.502187,202.1849 86.27528,202.26403 86.66487,202.65971 C 87.328391,201.92375 87.395352,199.08096 88.98415,201.19874"
       id="path336" />
    <path
       style="fill:#ffff00;stroke:none"
       d="M 82.178495,204.13285 C 82.622871,204.77263 82.081097,205.64251 82.64722,206.35473 C 83.535973,204.69349 84.394289,206.71388 85.453488,206.55561 C 85.776117,206.95129 85.56306,207.49976 85.623934,207.94961 C 84.315154,208.29659 82.738531,208.71053 81.581934,207.66351 L 81.259305,208.03484 C 81.947175,208.67462 82.598522,209.3984 82.05066,210.46978 C 81.070597,210.68283 79.554848,210.70718 79.061772,209.69668 C 78.806104,208.86332 79.658333,208.26068 78.757405,207.59046 C 78.106059,208.40008 78.136496,209.48423 76.779017,208.74706 C 75.938963,208.28442 75.689382,207.32931 76.109409,206.52517 C 76.985987,205.14335 78.519998,206.56839 79.469625,205.89209 C 79.603546,204.70506 79.165257,203.67021 80.254893,203.01338 C 81.186257,202.84842 81.618459,203.54846 82.184582,204.13285"
       id="path338" />
    <path
       style="fill:#ffffff;stroke:none"
       d="M 85.891777,204.85724 C 85.453488,206.87824 83.931651,204.75376 83.219431,204.66853 C 84.169057,202.98295 84.765617,205.217 85.891777,204.85724"
       id="path340" />
    <path
       style="fill:#ffffff;stroke:none"
       d="M 90.633821,207.05538 C 89.574622,207.35305 89.738981,206.0321 89.215469,205.51467 L 89.623321,205.14335 C 90.006824,205.60598 90.299017,206.44056 90.633821,207.05538"
       id="path342" />
    <path
       style="fill:#ffff00;stroke:none"
       d="M 89.197207,206.65301 C 89.501574,207.35305 88.509337,207.9137 89.355478,208.42443 C 89.623321,208.1998 89.952038,207.88874 90.092047,207.76091 C 90.816441,207.97457 91.656495,208.10241 92.161745,208.8201 C 92.703519,210.30603 91.199944,210.26889 90.347716,210.68283 L 89.501574,210.64631 C 89.702457,210.23237 89.136333,210.05584 88.996324,209.77034 C 88.606734,209.67294 88.284105,209.79408 88.06496,210.1228 C 88.253668,211.06694 89.404177,211.80291 88.217144,212.64296 C 87.212731,212.57661 85.65437,212.96559 85.745681,211.57767 C 85.368265,210.79241 86.768355,209.58102 85.270867,209.53293 C 84.777792,210.59213 84.236018,211.6142 82.951588,210.61039 L 83.109859,209.10073 C 84.339503,209.13665 85.794379,209.3497 86.348328,207.97457 C 86.701394,206.97625 85.733506,206.05706 86.597909,205.2657 C 87.851903,204.9796 88.558035,205.81965 89.197207,206.65301"
       id="path344" />
    <path
       style="fill:#000000;stroke:none"
       d="M 88.296279,208.92359 C 88.612821,209.67294 87.760593,209.72164 87.358828,210.09236 C 86.817054,210.13558 86.439638,209.92191 86.110921,209.55667 C 85.867427,208.64966 86.543123,208.55835 87.060548,208.1998 C 87.663195,207.94961 87.912776,208.64966 88.296279,208.92359"
       id="path346" />
    <path
       style="fill:#ffffff;stroke:none"
       d="M 87.55971,209.41058 C 87.425789,209.58711 87.237081,209.53293 87.036198,209.58102 L 86.847491,208.67462 C 87.249255,208.71053 87.772767,208.83837 87.55971,209.41058"
       id="path348" />
  </g>
</svg>
