<?xml version="1.0" encoding="UTF-8" standalone="no"?>
<!-- Created with Inkscape (http://www.inkscape.org/) -->
<svg
   xmlns:dc="http://purl.org/dc/elements/1.1/"
   xmlns:cc="http://creativecommons.org/ns#"
   xmlns:rdf="http://www.w3.org/1999/02/22-rdf-syntax-ns#"
   xmlns:svg="http://www.w3.org/2000/svg"
   xmlns="http://www.w3.org/2000/svg"
   xmlns:xlink="http://www.w3.org/1999/xlink"
   xmlns:sodipodi="http://sodipodi.sourceforge.net/DTD/sodipodi-0.dtd"
   xmlns:inkscape="http://www.inkscape.org/namespaces/inkscape"
   version="1.0"
   width="2000"
   height="1000"
   id="Kazakhstan_svg"
   sodipodi:version="0.32"
   inkscape:version="0.46"
   sodipodi:docname="Flag_of_Kazakhstan.svg"
   inkscape:output_extension="org.inkscape.output.svg.inkscape">
  <metadata
     id="metadata64">
    <rdf:RDF>
      <cc:Work
         rdf:about="">
        <dc:format>image/svg+xml</dc:format>
        <dc:type
           rdf:resource="http://purl.org/dc/dcmitype/StillImage" />
      </cc:Work>
    </rdf:RDF>
  </metadata>
  <sodipodi:namedview
     inkscape:window-height="669"
     inkscape:window-width="640"
     inkscape:pageshadow="2"
     inkscape:pageopacity="0.0"
     guidetolerance="10.0"
     gridtolerance="10.0"
     objecttolerance="10.0"
     borderopacity="1.0"
     bordercolor="#666666"
     pagecolor="#ffffff"
     id="base"
     showgrid="false"
     inkscape:zoom="0.272"
     inkscape:cx="1000"
     inkscape:cy="500"
     inkscape:window-x="46"
     inkscape:window-y="46"
     inkscape:current-layer="Kazakhstan_svg" />
  <desc
     id="desc4286">Flag of the Republic of Kazakhstan</desc>
  <defs
     id="defs4288">
    <inkscape:perspective
       sodipodi:type="inkscape:persp3d"
       inkscape:vp_x="0 : 500 : 1"
       inkscape:vp_y="0 : 1000 : 0"
       inkscape:vp_z="2000 : 500 : 1"
       inkscape:persp3d-origin="1000 : 333.33333 : 1"
       id="perspective66" />
    <path
       d="M 0,-76.45 C 4,-76.5 5.5,-79 5.5,-82 C 5.5,-86 0,-105.05 0,-105.05 C 0,-105.05 -5.5,-86 -5.5,-82 C -5.5,-79 -4,-76.45 0,-76.45 L 0,-76.45 z"
       id="be" />
    <path
       d="M -1,15 C -1,5 8,-0.14 15.072121,-0.14 C 24.6,-0.14 29.67324,5.5429809 29.67324,12.982057 C 29.67324,17.199 28.89871,19.84505 26.949517,23.881429 C 26.949517,23.881429 11.232327,56.486937 5.1137557,69.098798 C 4.3506632,70.671717 4.1044619,72.462248 4.1044619,75.087275 C 4.1044619,79.141224 8.0460365,82.454615 12.178813,82.556049 C 15.946272,82.650047 20.051305,79.052198 20.051305,74.952702 C 20.051305,69.973065 17.461945,67.753072 14.802977,67.753072 C 11.531226,67.753072 10.227511,69.094843 10.227511,71.38653 C 10.227511,72.983378 11.000593,73.674263 12.111527,73.674263 C 14.91779,73.674263 14.130114,69.906232 14.130114,69.906232 C 15.523896,70.210636 16.668963,71.631261 16.01413,73.405118 C 17.033704,73.631586 17.988792,74.165521 18.739224,75.019988 C 17.986945,75.74755 17.124043,76.309176 16.01413,76.500286 C 16.67135,78.664697 15.793133,79.722271 13.894613,80.167388 C 14.277724,79.334786 14.290906,78.568919 14.163757,77.846011 C 11.174887,78.693888 6.5940534,77.344608 6.5940534,72.193965 C 6.5940534,67.08021 10.151694,62.774364 16.821565,63.850469 C 15.234698,63.093596 14.427615,61.544954 14.264687,59.813294 C 15.475839,60.284298 16.821565,60.351584 16.821565,60.351584 C 16.041676,58.979728 14.958426,57.79719 15.004835,55.103255 C 16.241582,55.664112 17.389899,56.702686 18.974725,56.045263 C 16.487428,51.162666 19.543319,44.446508 27.318221,42.857157 C 24.472701,46.184414 23.079188,49.777263 23.079188,53.353813 C 23.079188,64.945481 26.308927,66.893455 26.308927,74.952702 C 26.308927,78.32444 24.571421,81.965678 21.127885,84.440065 L 21.127885,84.305492 C 23.404326,84.912519 24.861687,86.031471 25.7,87.55 C 20.49988,89.02142 12.941391,88.993633 8.8817862,87.40066 C 4.2161824,86.86237 0.95971684,83.290648 0,81.479469 C -0.95971684,79.66829 -2.8236958,73.114579 0,67.214782 C 3.0903362,60.75787 17.661431,29.937676 22.204465,20.248974 C 23.168066,18.19395 23.752049,16.014637 23.752049,13.65492 C 23.752049,7.7199823 18.301863,5.6478554 15.206695,5.6478554 C 11.50595,5.6478554 7.7379198,8.4603205 7.7379198,11.972764 C 7.7379198,14.198379 8.9490725,15.538935 10.698515,15.538935 C 14.881836,15.538935 14.627762,11.98893 13.793683,9.7523172 C 16.397163,10.919875 17.910448,13.004341 17.494428,15.202504 C 18.968382,15.403909 20.371469,16.101382 21.666175,17.557523 C 20.647466,18.840724 19.405016,19.810686 17.494428,19.845256 C 18.328868,23.25524 16.040174,24.697462 13.793683,25.497302 C 14.504358,22.994613 14.970869,20.114401 10.698515,20.114401 C 7.5835529,20.114401 5.1305772,19.576111 3.7007442,17.557523 C 3.6166365,20.248973 3.3643129,30.880202 3.3643129,30.880202 C 3.184883,34.875197 8.7247852,34.760959 12.2461,33.571652 C 10.917154,38.173425 8.1918319,40.661436 1.8840153,40.031134 C 3.4147776,40.670353 5.0464694,42.107348 5.0464694,44.875744 C 5.0464694,48.622585 2,52.772886 0,54 L -1,15 z"
       id="orn" />
    <path
       d="M 0,-35.598637 C 0,-35.598637 4.7530782,-39.583055 6.3671251,-37.584572 C 8.9631893,-34.370174 -1.6148703,-18.359773 -1.6148703,-12.721308 C -1.6148703,-3.4663271 4.5753036,-0.9495749 12.219049,0.37164156 C 17.347761,1.258136 25.7,0 25.7,0 C 24.127458,-2.1078802 23.104712,-2.7289755 20.455023,-2.8975143 C 23.404894,-4.4252648 26.408867,-7.7416056 26.408867,-12.90486 C 26.408867,-20.866568 23.123385,-24.147608 23.123385,-33.123391 C 23.123385,-38.102574 27.216302,-44.441008 27.216302,-44.441008 C 19.982003,-43.718733 16.396176,-37.036315 18.436436,-31.696034 C 17.284843,-31.530555 16.239265,-31.78914 15.341267,-32.638042 C 14.811816,-31.157744 15.647621,-29.439553 16.767224,-27.959255 C 15.865491,-27.478574 15.203266,-27.766834 13.767214,-28.062576 C 13.903389,-26.537421 14.81955,-24.917108 17.060859,-23.391953 C 10.556777,-25.076417 6.5546382,-20.554385 6.5546382,-15.820438 C 6.5546382,-12.244602 9.0665766,-9.6818822 11.521697,-9.6818822 C 12.315163,-9.6818822 13.480714,-10.007886 14.138278,-10.497481 C 14.601801,-9.5133367 14.362949,-8.1961425 13.885459,-7.2119982 C 15.685071,-7.686535 16.827225,-8.7527235 16.01413,-10.971863 C 17.396346,-11.098529 18.495865,-11.564431 19.243871,-12.452148 C 18.486057,-13.420288 17.336466,-13.977953 16.01413,-13.932434 C 17.020519,-16.004247 15.898976,-17.164115 14.264687,-18.104209 C 14.264687,-18.104209 15.304002,-13.932461 12.649817,-13.932461 C 11.456315,-13.932461 10.368847,-14.320046 10.368847,-16.074657 C 10.368847,-17.602563 11.707809,-19.71908 14.802977,-19.584507 C 17.898145,-19.449935 20.407444,-17.455622 20.407444,-12.526793 C 20.407444,-7.9800039 16.731198,-5.7186754 11.886919,-5.5726384 C 7.5180943,-5.4380659 4.2207273,-7.7989729 4.2207273,-12.294502 C 4.2207273,-18.277988 12.879547,-31.9162 12.879547,-37.248961 C 12.879547,-41.249522 9.273139,-43.482674 5.7444019,-43.482674 C 1.1689361,-43.482674 -2.6914504,-38.96295 -2.6914504,-38.96295 L 0,-35.598637 z"
       id="uorn" />
  </defs>
  <rect
     width="2000"
     height="1000"
     x="0"
     y="0"
     id="rect4293"
     style="fill:#00afca;fill-opacity:1" />
  <use
     transform="matrix(1.960637,0.3899949,-0.3899949,1.960637,1080.4716,420)"
     id="use3938"
     style="fill:#fec50c;fill-opacity:1"
     x="0"
     y="0"
     width="1000"
     height="500"
     xlink:href="#be" />
  <use
     transform="matrix(1.8468795,0.7650026,-0.7650026,1.8468795,1080.4716,420)"
     id="use3940"
     style="fill:#fec50c;fill-opacity:1"
     x="0"
     y="0"
     width="1000"
     height="500"
     xlink:href="#be" />
  <use
     transform="matrix(1.6621476,1.1106115,-1.1106115,1.6621476,1080.4716,420)"
     id="use3942"
     style="fill:#fec50c;fill-opacity:1"
     x="0"
     y="0"
     width="1000"
     height="500"
     xlink:href="#be" />
  <use
     transform="matrix(1.4135403,1.4135403,-1.4135403,1.4135403,1080.4716,420)"
     id="use3944"
     style="fill:#fec50c;fill-opacity:1"
     x="0"
     y="0"
     width="1000"
     height="500"
     xlink:href="#be" />
  <use
     transform="matrix(1.1106115,1.6621476,-1.6621476,1.1106115,1080.4716,420)"
     id="use3946"
     style="fill:#fec50c;fill-opacity:1"
     x="0"
     y="0"
     width="1000"
     height="500"
     xlink:href="#be" />
  <use
     transform="matrix(0.7650026,1.8468795,-1.8468795,0.7650026,1080.4716,420)"
     id="use3948"
     style="fill:#fec50c;fill-opacity:1"
     x="0"
     y="0"
     width="1000"
     height="500"
     xlink:href="#be" />
  <use
     transform="matrix(0.3899949,1.960637,-1.960637,0.3899949,1080.4716,420)"
     id="use3950"
     style="fill:#fec50c;fill-opacity:1"
     x="0"
     y="0"
     width="1000"
     height="500"
     xlink:href="#be" />
  <use
     transform="matrix(0,1.9990481,-1.9990481,0,1080.4716,420)"
     id="use3952"
     style="fill:#fec50c;fill-opacity:1"
     x="0"
     y="0"
     width="1000"
     height="500"
     xlink:href="#be" />
  <use
     transform="matrix(-0.3899949,1.960637,-1.960637,-0.3899949,1080.4716,420)"
     id="use3954"
     style="fill:#fec50c;fill-opacity:1"
     x="0"
     y="0"
     width="1000"
     height="500"
     xlink:href="#be" />
  <use
     transform="matrix(-0.7650026,1.8468795,-1.8468795,-0.7650026,1080.4716,420)"
     id="use3956"
     style="fill:#fec50c;fill-opacity:1"
     x="0"
     y="0"
     width="1000"
     height="500"
     xlink:href="#be" />
  <use
     transform="matrix(-1.1106115,1.6621476,-1.6621476,-1.1106115,1080.4716,420)"
     id="use3958"
     style="fill:#fec50c;fill-opacity:1"
     x="0"
     y="0"
     width="1000"
     height="500"
     xlink:href="#be" />
  <use
     transform="matrix(-1.4135403,1.4135403,-1.4135403,-1.4135403,1080.4716,420)"
     id="use3960"
     style="fill:#fec50c;fill-opacity:1"
     x="0"
     y="0"
     width="1000"
     height="500"
     xlink:href="#be" />
  <use
     transform="matrix(-1.6621476,1.1106115,-1.1106115,-1.6621476,1080.4716,420)"
     id="use3962"
     style="fill:#fec50c;fill-opacity:1"
     x="0"
     y="0"
     width="1000"
     height="500"
     xlink:href="#be" />
  <use
     transform="matrix(-1.8468795,0.7650026,-0.7650026,-1.8468795,1080.4716,420)"
     id="use3964"
     style="fill:#fec50c;fill-opacity:1"
     x="0"
     y="0"
     width="1000"
     height="500"
     xlink:href="#be" />
  <use
     transform="matrix(-1.6621476,-1.1106115,1.1106115,-1.6621476,1080.4716,420)"
     id="use3974"
     style="fill:#fec50c;fill-opacity:1"
     x="0"
     y="0"
     width="1000"
     height="500"
     xlink:href="#be" />
  <use
     transform="matrix(-1.4135403,-1.4135403,1.4135403,-1.4135403,1080.4716,420)"
     id="use3976"
     style="fill:#fec50c;fill-opacity:1"
     x="0"
     y="0"
     width="1000"
     height="500"
     xlink:href="#be" />
  <use
     transform="matrix(-1.1106115,-1.6621476,1.6621476,-1.1106115,1080.4716,420)"
     id="use3978"
     style="fill:#fec50c;fill-opacity:1"
     x="0"
     y="0"
     width="1000"
     height="500"
     xlink:href="#be" />
  <use
     transform="matrix(-0.7650026,-1.8468795,1.8468795,-0.7650026,1080.4716,420)"
     id="use3980"
     style="fill:#fec50c;fill-opacity:1"
     x="0"
     y="0"
     width="1000"
     height="500"
     xlink:href="#be" />
  <use
     transform="matrix(-0.3899949,-1.960637,1.960637,-0.3899949,1080.4716,420)"
     id="use3982"
     style="fill:#fec50c;fill-opacity:1"
     x="0"
     y="0"
     width="1000"
     height="500"
     xlink:href="#be" />
  <use
     transform="matrix(0,-1.9990481,1.9990481,0,1080.4716,420)"
     id="use3984"
     style="fill:#fec50c;fill-opacity:1"
     x="0"
     y="0"
     width="1000"
     height="500"
     xlink:href="#be" />
  <use
     transform="matrix(0.3899949,-1.960637,1.960637,0.3899949,1080.4716,420)"
     id="use3986"
     style="fill:#fec50c;fill-opacity:1"
     x="0"
     y="0"
     width="1000"
     height="500"
     xlink:href="#be" />
  <use
     transform="matrix(0.7650026,-1.8468795,1.8468795,0.7650026,1080.4716,420)"
     id="use3988"
     style="fill:#fec50c;fill-opacity:1"
     x="0"
     y="0"
     width="1000"
     height="500"
     xlink:href="#be" />
  <use
     transform="matrix(1.1106115,-1.6621476,1.6621476,1.1106115,1080.4716,420)"
     id="use3990"
     style="fill:#fec50c;fill-opacity:1"
     x="0"
     y="0"
     width="1000"
     height="500"
     xlink:href="#be" />
  <use
     transform="matrix(1.4135403,-1.4135403,1.4135403,1.4135403,1080.4716,420)"
     id="use3992"
     style="fill:#fec50c;fill-opacity:1"
     x="0"
     y="0"
     width="1000"
     height="500"
     xlink:href="#be" />
  <circle
     cx="0"
     cy="0"
     r="68.699997"
     transform="matrix(1.9585107,0,0,1.9585107,1080.3005,420.17107)"
     id="circle3934"
     style="fill:#fec50c;fill-opacity:1" />
  <use
     transform="matrix(1.9990481,0,0,1.9990481,1080.4716,420)"
     id="use3936"
     style="fill:#fec50c;fill-opacity:1"
     x="0"
     y="0"
     width="1000"
     height="500"
     xlink:href="#be" />
  <use
     transform="matrix(-1.960637,0.3899949,-0.3899949,-1.960637,1080.4716,420)"
     id="use3966"
     style="fill:#fec50c;fill-opacity:1"
     x="0"
     y="0"
     width="1000"
     height="500"
     xlink:href="#be" />
  <use
     transform="matrix(-1.9990481,0,0,-1.9990481,1080.4716,420)"
     id="use3968"
     style="fill:#fec50c;fill-opacity:1"
     x="0"
     y="0"
     width="1000"
     height="500"
     xlink:href="#be" />
  <use
     transform="matrix(-1.960637,-0.3899949,0.3899949,-1.960637,1080.4716,420)"
     id="use3970"
     style="fill:#fec50c;fill-opacity:1"
     x="0"
     y="0"
     width="1000"
     height="500"
     xlink:href="#be" />
  <use
     transform="matrix(-1.8468795,-0.7650026,0.7650026,-1.8468795,1080.4716,420)"
     id="use3972"
     style="fill:#fec50c;fill-opacity:1"
     x="0"
     y="0"
     width="1000"
     height="500"
     xlink:href="#be" />
  <use
     transform="matrix(1.6621476,-1.1106115,1.1106115,1.6621476,1080.4716,420)"
     id="use3994"
     style="fill:#fec50c;fill-opacity:1"
     x="0"
     y="0"
     width="1000"
     height="500"
     xlink:href="#be" />
  <use
     transform="matrix(1.8468795,-0.7650026,0.7650026,1.8468795,1080.4716,420)"
     id="use3996"
     style="fill:#fec50c;fill-opacity:1"
     x="0"
     y="0"
     width="1000"
     height="500"
     xlink:href="#be" />
  <use
     transform="matrix(1.960637,-0.3899949,0.3899949,1.960637,1080.4716,420)"
     id="use3998"
     style="fill:#fec50c;fill-opacity:1"
     x="0"
     y="0"
     width="1000"
     height="500"
     xlink:href="#be" />
  <path
     d="M 1075.7862,654.95081 L 1073.4646,659.59405 L 1070.885,665.52708 L 1069.3373,668.36461 L 1068.0475,670.94419 L 1067.0157,673.00785 L 1065.7259,674.29764 L 1062.6304,671.71806 L 1059.2769,669.39644 L 1055.6655,667.59074 L 1051.7962,666.04299 L 1047.6688,665.01116 L 1043.5415,663.97933 L 1039.4142,663.20546 L 1035.0289,662.68954 L 1026.0004,661.91567 L 1016.9719,661.65771 L 1008.2013,661.14179 L 999.94664,660.10996 L 995.3034,659.33609 L 990.91812,658.30426 L 988.59649,657.53038 L 986.27487,656.75651 L 984.21121,655.72468 L 982.40551,654.69285 L 979.56797,652.88714 L 976.73043,650.82348 L 973.63494,648.50186 L 970.7974,645.92228 L 964.86437,640.24721 L 958.93134,634.57214 L 952.99831,629.15502 L 947.5812,624.25382 L 945.00162,622.44812 L 942.42204,620.64241 L 940.10042,619.61058 L 937.7788,618.83671 L 933.39352,617.80488 L 929.52415,616.51509 L 925.65478,615.2253 L 921.78542,613.41959 L 918.43196,611.87185 L 915.07851,609.80818 L 911.98302,607.74452 L 909.14548,605.68086 L 906.04999,603.35924 L 903.47041,601.03762 L 900.89083,598.45804 L 898.31125,595.87846 L 893.41005,590.46135 L 888.76681,584.78628 L 879.48033,572.66226 L 869.67793,560.28028 L 864.00286,554.34725 L 858.06983,548.41422 L 854.71638,545.31873 L 851.36293,542.48119 L 847.75152,539.90161 L 843.88215,537.06408 L 843.10828,537.32203 L 842.3344,538.09591 L 841.56053,539.12774 L 841.04461,540.41753 L 840.27074,542.73915 L 840.01278,543.77098 L 838.20708,542.99711 L 836.65933,542.22323 L 834.85363,541.44936 L 833.30588,540.93344 L 829.95243,540.93344 L 828.14672,541.44936 L 826.34102,542.22323 L 828.14672,544.54485 L 830.46834,547.64035 L 832.78996,551.25176 L 834.85363,555.12112 L 836.91729,559.24845 L 838.46504,563.11782 L 838.98095,565.18148 L 839.49687,566.72923 L 839.75483,568.53493 L 839.75483,570.08268 L 836.91729,570.08268 L 825.8251,570.08268 L 827.88877,573.17817 L 830.21039,576.27367 L 832.78996,579.36916 L 835.6275,582.2067 L 838.46504,585.04423 L 841.30257,587.88177 L 844.14011,590.20339 L 846.71969,592.00909 L 843.88215,592.26705 L 840.01278,592.52501 L 836.14342,593.04093 L 833.30588,593.29888 L 835.6275,595.36255 L 838.46504,597.42621 L 841.56053,599.74783 L 844.91398,602.06945 L 848.26743,604.13311 L 851.62089,605.93882 L 854.71638,606.97065 L 857.55392,607.74452 L 858.84371,608.00248 L 859.87554,608.26044 L 860.64941,608.5184 L 861.16533,609.03431 L 861.42328,609.29227 L 861.42328,610.3241 L 861.16533,610.84002 L 860.64941,612.38776 L 860.39145,613.93551 L 860.13349,614.96734 L 860.13349,615.74122 L 860.39145,617.031 L 860.64941,618.06284 L 861.16533,618.57875 L 861.9392,619.09467 L 862.97103,619.61058 L 864.26082,619.86854 L 865.55061,620.38446 L 866.8404,620.90037 L 868.13019,621.41629 L 869.16202,622.19016 L 869.41998,622.44812 L 869.41998,622.96403 L 869.16202,623.22199 L 868.13019,623.99587 L 867.09836,624.76974 L 866.06652,625.80157 L 865.03469,627.09136 L 865.03469,628.12319 L 864.77674,629.15502 L 865.03469,630.44481 L 865.29265,631.99256 L 869.67793,633.54031 L 874.32118,635.08805 L 876.38484,635.60397 L 878.4485,636.37784 L 879.99625,637.15172 L 881.28604,637.92559 L 872.77343,644.63249 L 875.09505,646.69615 L 877.93258,648.2439 L 881.54399,650.04961 L 885.1554,651.3394 L 889.28273,652.62919 L 893.1521,653.40306 L 896.50555,654.17693 L 899.60104,654.17693 L 896.76351,656.24059 L 893.1521,658.56222 L 889.28273,660.62588 L 886.44519,662.68954 L 889.02477,664.49525 L 892.63618,666.30095 L 896.76351,668.36461 L 901.66471,670.68623 L 913.01485,675.58743 L 925.39683,680.48863 L 938.29472,685.13187 L 950.93465,689.2592 L 956.60972,691.0649 L 961.76888,692.35469 L 966.41212,693.64448 L 970.53945,694.41835 L 962.2848,693.64448 L 954.54606,692.61265 L 946.80733,691.32286 L 939.58451,689.77511 L 932.36169,687.71145 L 925.39683,685.64779 L 918.68992,683.32617 L 912.24098,680.74659 L 899.60104,675.58743 L 887.73498,670.42828 L 882.05991,668.10665 L 876.38484,665.78503 L 870.96772,663.72137 L 865.55061,661.65771 L 866.8404,660.88384 L 868.38815,660.36792 L 870.45181,659.59405 L 872.77343,659.07813 L 877.67463,657.53038 L 882.05991,655.98264 L 874.32118,654.69285 L 863.7449,652.62919 L 858.58575,651.08144 L 854.20046,649.79165 L 852.39476,649.01778 L 850.84701,648.2439 L 849.55722,647.47003 L 848.78335,646.69615 L 848.78335,646.4382 L 849.04131,646.18024 L 849.81518,645.92228 L 850.58905,645.40637 L 852.65272,644.63249 L 855.49025,643.85862 L 861.68124,642.05291 L 866.8404,640.24721 L 854.20046,637.92559 L 844.39807,636.37784 L 840.78666,635.60397 L 837.94912,634.57214 L 836.91729,634.05622 L 835.88546,633.28235 L 835.11158,632.76643 L 834.59567,631.99256 L 835.36954,631.47664 L 837.69116,630.96073 L 841.04461,630.44481 L 844.91398,629.67094 L 849.04131,629.15502 L 852.65272,628.12319 L 854.45842,627.60728 L 856.00617,627.09136 L 857.038,626.31749 L 858.06983,625.54361 L 856.00617,624.76974 L 853.94251,623.99587 L 851.36293,623.47995 L 848.78335,622.96403 L 842.85032,622.19016 L 836.91729,621.41629 L 833.8218,620.64241 L 830.98426,620.1265 L 828.14672,619.09467 L 825.30919,618.06284 L 822.72961,616.77305 L 820.40799,614.96734 L 818.34433,613.16164 L 816.79658,610.84002 L 817.31249,610.58206 L 818.34433,610.3241 L 819.63411,610.3241 L 821.69778,610.58206 L 826.34102,610.84002 L 831.50018,611.09797 L 837.17525,611.61389 L 844.39807,611.61389 L 846.46173,611.35593 L 848.00948,610.84002 L 849.04131,610.3241 L 842.85032,607.74452 L 834.59567,604.13311 L 829.95243,601.81149 L 825.05123,599.48987 L 820.15003,596.91029 L 815.24883,594.33071 L 810.60559,591.49318 L 806.22031,588.39768 L 802.09298,585.30219 L 798.48157,582.2067 L 796.93383,580.40099 L 795.38608,578.85325 L 794.35425,577.3055 L 793.32242,575.49979 L 792.29058,573.95205 L 791.77467,572.14634 L 791.51671,570.59859 L 791.25875,568.79289 L 793.06446,568.79289 L 795.12812,569.05085 L 797.19178,569.82472 L 799.25545,570.59859 L 803.38277,573.17817 L 808.02601,575.75775 L 810.08968,577.04754 L 812.4113,578.33733 L 814.73292,579.36916 L 816.79658,580.14303 L 819.1182,580.65895 L 821.18186,580.91691 L 823.50348,580.91691 L 825.56715,580.14303 L 819.37616,575.49979 L 812.4113,569.56676 L 804.4146,562.6019 L 796.41791,554.86317 L 788.42122,546.60852 L 780.94044,538.35387 L 777.58699,533.96858 L 774.23354,529.84126 L 771.396,525.71393 L 768.81642,521.84456 L 768.30051,520.81273 L 768.30051,519.00703 L 768.55846,518.23315 L 768.81642,517.45928 L 769.5903,516.94337 L 770.36417,516.16949 L 771.13804,515.65358 L 772.16987,515.39562 L 773.20171,515.13766 L 775.26537,515.13766 L 776.55516,515.39562 L 777.58699,515.65358 L 778.61882,516.42745 L 779.39269,517.20132 L 784.03593,521.84456 L 789.45305,527.26168 L 795.12812,533.19471 L 801.31911,539.12774 L 807.5101,544.54485 L 813.70108,549.70401 L 816.79658,551.76767 L 819.63411,553.57338 L 822.72961,555.12112 L 825.56715,556.15296 L 823.50348,554.86317 L 821.18186,552.54155 L 818.08637,549.44605 L 814.73292,545.57668 L 807.25214,536.54816 L 798.99749,525.97189 L 794.87016,520.29682 L 791.0008,514.62174 L 787.38939,508.94667 L 783.77798,503.52956 L 780.68248,498.3704 L 778.1029,493.72716 L 776.2972,489.34188 L 774.74945,485.73047 L 774.49149,484.44068 L 774.49149,482.37702 L 774.74945,481.60314 L 775.26537,480.82927 L 775.78128,480.0554 L 776.2972,479.53948 L 777.07107,479.02356 L 778.87678,478.50765 L 780.42452,477.99173 L 784.03593,477.99173 L 785.06777,478.24969 L 785.84164,478.50765 L 786.87347,479.02356 L 787.64734,479.79744 L 789.71101,481.60314 L 791.77467,484.18272 L 796.41791,490.11575 L 801.31911,497.59653 L 806.99418,505.59322 L 812.92721,513.84787 L 816.02271,517.71724 L 819.1182,521.58661 L 822.47165,524.94006 L 826.08306,528.03555 L 821.69778,519.52294 L 816.79658,509.72055 L 814.217,504.30343 L 811.89538,498.88632 L 809.57376,493.21124 L 807.5101,487.53617 L 805.70439,481.60314 L 803.89869,475.92807 L 802.6089,470.253 L 801.57707,464.57793 L 801.06115,459.16081 L 800.80319,454.00165 L 801.06115,451.42208 L 801.31911,449.10046 L 801.57707,446.77884 L 802.09298,444.45721 L 802.6089,443.68334 L 802.86686,442.90947 L 803.64073,442.13559 L 804.15664,441.61968 L 805.96235,440.8458 L 807.76805,440.32989 L 809.57376,440.32989 L 811.12151,440.58785 L 811.89538,440.8458 L 812.4113,441.10376 L 812.66925,441.61968 L 812.92721,442.39355 L 815.50679,450.6482 L 817.82841,459.41877 L 820.15003,468.44729 L 822.47165,477.21786 L 824.79327,485.98843 L 827.88877,494.24308 L 829.43651,498.11244 L 831.24222,501.98181 L 833.30588,505.59322 L 835.6275,509.20463 L 834.07975,501.72385 L 833.04792,495.01695 L 832.01609,488.82596 L 831.50018,483.15089 L 830.98426,478.24969 L 830.7263,473.86441 L 830.98426,470.253 L 831.24222,467.1575 L 831.75813,464.57793 L 832.53201,462.51426 L 833.04792,461.74039 L 833.56384,460.96652 L 834.07975,460.4506 L 834.85363,459.93468 L 835.6275,459.67673 L 837.94912,459.67673 L 840.01278,460.4506 L 842.07645,461.48243 L 843.88215,469.73708 L 845.68786,477.73377 L 847.75152,485.21455 L 850.07314,492.43737 L 852.65272,499.66019 L 855.49025,506.88301 L 858.58575,514.36379 L 862.19716,521.84456 L 864.77674,526.74576 L 867.35631,531.64696 L 870.19385,536.54816 L 873.03139,541.44936 L 876.12688,546.0926 L 879.22237,550.73584 L 882.57583,555.37908 L 885.92928,560.02232 L 892.12027,567.76106 L 898.56921,574.98388 L 905.27612,582.2067 L 912.24098,588.9136 L 919.4638,595.6205 L 926.94457,601.81149 L 934.68331,607.74452 L 942.68,613.41959 L 948.09712,617.031 L 953.77219,620.38446 L 959.70522,623.73791 L 965.38029,626.8334 L 974.40881,631.21868 L 983.17938,635.34601 L 992.46586,638.95742 L 1001.7523,642.31087 L 1010.5229,645.14841 L 1019.5514,647.47003 L 1028.8379,649.53369 L 1037.8664,651.3394 L 1047.4109,652.62919 L 1056.6974,653.66102 L 1066.2418,654.43489 L 1075.7862,654.95081"
     id="path13"
     style="fill:#fec50c;fill-opacity:1;fill-rule:evenodd;stroke:none" />
  <path
     d="M 1099.2604,733.36999 L 1103.6457,733.8859 L 1105.7094,734.65978 L 1106.2253,734.91773 L 1106.2253,735.17569 L 1105.7094,735.17569 L 1105.1934,735.43365 L 1101.0661,736.20752 L 1097.7127,736.20752 L 1086.8784,735.43365 L 1073.7226,735.17569 L 1059.5349,734.91773 L 1044.8313,735.17569 L 1037.8664,735.43365 L 1030.9016,735.94956 L 1024.7106,736.46548 L 1018.7776,736.9814 L 1013.8764,737.75527 L 1009.4911,738.7871 L 1007.9433,739.30302 L 1006.3956,739.81893 L 1005.1058,740.33485 L 1004.074,741.10872 L 1004.5899,738.52914 L 1005.6217,735.94956 L 1003.816,736.46548 L 1002.0103,736.9814 L 1000.4626,737.75527 L 998.91481,738.52914 L 997.62502,739.30302 L 996.59319,740.33485 L 995.81931,741.62464 L 995.56136,742.91443 L 994.78748,741.10872 L 994.27157,739.56097 L 994.01361,737.75527 L 993.75565,736.20752 L 994.01361,734.91773 L 994.27157,733.36999 L 994.52952,732.0802 L 995.3034,730.79041 L 995.81931,729.75858 L 996.85115,728.46879 L 997.88298,727.43696 L 998.91481,726.40512 L 1001.7523,724.59942 L 1004.8478,722.79372 C 1006.5193,723.80756 1008.3986,724.5423 1010.265,725.11534 C 1011.8833,725.33005 1013.8088,725.06773 1015.6821,724.59942 C 1018.8301,727.37161 1023.0401,727.03044 1025.7424,724.0835 C 1026.2356,723.54565 1026.8309,722.72162 1027.0322,722.01984 C 1027.4589,720.53207 1027.3767,718.58318 1027.0322,716.86069 L 1030.1277,716.60273 L 1033.7391,716.08681 L 1037.6085,715.05498 L 1041.7358,714.02315 L 1045.8631,713.24928 L 1049.7325,712.21744 L 1053.3439,711.70153 L 1056.4394,711.44357 L 1055.1496,712.4754 L 1052.0541,714.79702 L 1048.4427,717.63456 L 1045.8631,719.44026 L 1049.2166,720.21414 L 1052.0541,720.73005 L 1049.9905,723.05167 L 1047.9268,725.37329 L 1045.8631,727.69491 L 1044.3154,729.75858 L 1046.379,730.53245 L 1048.4427,731.04837 L 1050.7643,731.56428 L 1055.4076,731.56428 L 1057.7292,731.04837 L 1060.0508,730.53245 L 1061.8565,729.50062 L 1063.9202,730.53245 L 1065.9838,731.30632 L 1068.0475,731.82224 L 1070.1112,732.33816 L 1074.7544,732.85407 L 1079.6556,733.36999 L 1099.2604,733.36999"
     id="path17"
     style="fill:#fec50c;fill-opacity:1;fill-rule:evenodd;stroke:none" />
  <path
     d="M 1020.0674,718.66639 L 1020.8412,718.92435 L 1021.6151,719.18231 L 1021.8731,719.95618 L 1022.131,720.73005 L 1021.8731,721.50393 L 1021.6151,722.2778 L 1020.8412,722.79372 L 1019.0355,722.79372 L 1018.5196,722.2778 L 1018.0037,721.50393 L 1017.7457,720.73005 L 1018.0037,719.95618 L 1018.5196,719.18231 L 1019.0355,718.92435 L 1020.0674,718.66639"
     id="path21"
     style="fill:#fec50c;fill-opacity:1;fill-rule:evenodd;stroke:none" />
  <path
     d="M 1019.8094,719.69822 L 1020.3253,719.95618 L 1020.5833,720.47209 L 1020.3253,720.98801 L 1019.8094,721.24597 L 1019.2935,720.98801 L 1019.0355,720.47209 L 1019.2935,719.95618 L 1019.8094,719.69822"
     id="path25"
     style="fill:#fec50c;fill-opacity:1;fill-rule:evenodd;stroke:none" />
  <path
     d="M 1019.9778,723.25149 C 1018.6712,723.2524 1017.6115,722.19346 1017.6115,720.88687 C 1017.6115,719.58029 1018.6712,718.52135 1019.9778,718.52226 C 1021.2843,718.52135 1022.344,719.58029 1022.344,720.88687 C 1022.344,722.19346 1021.2843,723.2524 1019.9778,723.25149 z"
     id="path3166"
     style="fill:#fec50c;fill-opacity:1;stroke:none;stroke-opacity:1" />
  <path
     d="M 1212.2459,746.00992 L 1210.4402,746.78379 L 1208.6345,747.04175 L 1207.0868,747.29971 L 1205.797,747.04175 L 1204.5072,746.78379 L 1203.2174,746.26788 L 1202.1856,745.75196 L 1200.8958,744.97809 L 1198.8321,743.43034 L 1196.7685,741.88259 L 1195.7366,741.10872 L 1194.4468,740.59281 L 1193.415,740.33485 L 1192.1252,740.33485 L 1189.8036,745.23605 L 1186.7081,751.42703 L 1185.6763,752.97478 L 1184.6444,754.26457 L 1183.6126,755.03844 L 1182.5808,755.81232 L 1181.291,756.32823 L 1180.0012,756.32823 L 1178.7114,755.81232 L 1177.1637,755.03844 L 1176.6478,754.26457 L 1176.1318,753.4907 L 1175.6159,752.45887 L 1175.1,751.16908 L 1174.5841,748.84746 L 1174.3261,747.29971 L 1172.7784,748.5895 L 1171.2306,750.3952 L 1169.9409,752.45887 L 1168.3931,754.78049 L 1166.5874,757.10211 L 1164.7817,758.90781 L 1163.7499,759.93964 L 1162.4601,760.71352 L 1161.1703,761.22943 L 1159.6225,761.74535 L 1158.8487,761.74535 L 1157.5589,762.00331 L 1156.2691,761.74535 L 1155.2373,761.22943 L 1152.1418,757.61802 L 1148.7883,754.00661 L 1146.4667,757.61802 L 1143.8871,760.71352 L 1142.5973,762.00331 L 1141.3075,763.29309 L 1140.0177,764.32493 L 1138.728,765.0988 L 1137.6961,765.61472 L 1136.4063,765.87267 L 1135.1165,765.87267 L 1134.0847,765.61472 L 1133.0529,765.0988 L 1132.279,764.32493 L 1131.2472,763.03514 L 1130.7313,761.48739 L 1130.2153,759.93964 L 1129.1835,757.36006 L 1128.9256,756.07028 L 1128.4096,755.03844 L 1127.8937,754.52253 L 1127.3778,754.52253 L 1120.4129,765.87267 L 1119.3811,766.9045 L 1117.5754,767.67838 L 1115.5117,768.19429 L 1113.4481,768.71021 L 1111.1265,768.71021 L 1109.3208,768.19429 L 1108.8048,767.93634 L 1108.031,767.16246 L 1107.773,766.64655 L 1107.773,765.61472 L 1108.8048,754.26457 L 1108.031,754.52253 L 1106.9991,755.03844 L 1105.9673,755.55436 L 1104.9355,756.58619 L 1102.8718,758.90781 L 1100.5502,761.48739 L 1098.2286,764.32493 L 1095.391,766.64655 L 1094.1012,767.67838 L 1092.8115,768.71021 L 1091.2637,769.48408 L 1089.9739,769.74204 L 1088.1682,770 L 1086.8784,769.74204 L 1086.3625,769.48408 L 1085.8466,768.96817 L 1085.5886,768.19429 L 1085.5886,767.42042 L 1085.8466,764.06697 L 1086.3625,760.71352 L 1086.6205,758.90781 L 1086.3625,757.36006 L 1086.1046,755.81232 L 1085.0727,754.00661 L 1083.525,756.32823 L 1080.9454,759.68169 L 1077.8499,763.03514 L 1074.4965,766.38859 L 1072.6907,767.67838 L 1070.885,768.96817 L 1069.3373,769.48408 L 1068.0475,770 L 1067.5316,769.74204 L 1066.7577,769.74204 L 1066.2418,769.22613 L 1065.9838,768.96817 L 1065.4679,768.19429 L 1065.21,767.42042 L 1065.21,766.38859 L 1064.952,765.0988 L 1065.21,755.2964 L 1058.761,759.68169 L 1051.0223,764.58288 L 1049.2166,765.35676 L 1047.1529,766.38859 L 1045.3472,766.9045 L 1043.2836,767.42042 L 1041.4779,767.93634 L 1039.6721,767.93634 L 1037.8664,767.67838 L 1036.3187,767.16246 L 1037.0926,765.0988 L 1037.8664,763.29309 L 1038.6403,761.48739 L 1039.6721,759.93964 L 1040.704,758.3919 L 1041.7358,756.84415 L 1043.0256,755.55436 L 1044.3154,754.26457 L 1047.1529,752.20091 L 1050.5064,750.13725 L 1053.8598,748.5895 L 1057.7292,747.29971 L 1061.5986,746.26788 L 1065.9838,745.494 L 1070.3691,744.72013 L 1074.7544,744.20422 L 1084.2989,743.6883 L 1094.1012,743.43034 L 1113.706,743.43034 L 1118.6072,743.17238 L 1123.2505,742.91443 L 1127.8937,742.65647 L 1132.279,742.14055 L 1136.6643,741.36668 L 1140.5337,740.59281 L 1144.403,739.56097 L 1148.0144,738.01323 L 1151.3679,736.46548 L 1154.2054,734.40182 L 1157.043,732.33816 L 1159.3646,729.50062 L 1156.785,724.34146 L 1158.8487,724.0835 L 1160.9123,723.56759 L 1162.976,722.53576 L 1164.7817,721.24597 L 1165.5556,720.73005 L 1166.3294,719.95618 L 1166.8454,718.92435 L 1167.3613,718.15047 L 1167.6192,717.11864 L 1167.6192,715.31294 L 1167.1033,714.28111 L 1171.4886,713.50723 L 1176.1318,712.99132 L 1181.033,712.73336 L 1186.1922,712.73336 L 1196.7685,713.24928 L 1207.6027,714.02315 L 1218.6949,715.31294 L 1229.5291,716.34477 L 1240.1054,717.3766 L 1249.9078,717.89252 L 1249.9078,721.50393 L 1249.6498,723.05167 L 1249.1339,724.59942 L 1248.618,726.14717 L 1248.1021,727.43696 L 1247.3282,728.46879 L 1246.2964,729.75858 L 1244.4907,731.56428 L 1242.169,733.11203 L 1239.8474,734.14386 L 1237.2678,734.65978 L 1234.4303,735.17569 L 1231.5928,734.91773 L 1229.0132,734.65978 L 1226.1757,733.8859 L 1223.5961,732.59611 L 1221.0165,731.30632 L 1218.9528,729.50062 L 1216.8892,727.43696 L 1216.8892,731.82224 L 1216.1153,737.49731 L 1215.5994,740.33485 L 1214.8255,742.91443 L 1214.3096,743.94626 L 1213.5357,744.72013 L 1213.0198,745.494 L 1212.2459,746.00992 M 1004.8478,721.76188 L 1010.7809,724.34146 L 1012.3286,723.05167 L 1014.3923,721.50393 L 1016.7139,720.21414 L 1018.7776,718.92435 L 1026.5163,715.82885 L 1033.2232,712.73336 L 1036.5767,711.44357 L 1039.4142,709.89582 L 1042.2517,708.34808 L 1044.5733,706.80033 L 1050.5064,702.93096 L 1056.4394,699.06159 L 1062.1145,695.45019 L 1067.2736,691.83878 L 1071.143,688.74328 L 1074.2385,685.90575 L 1077.5919,682.81025 L 1081.2034,679.4568 L 1082.4931,678.16701 L 1084.0409,677.13518 L 1085.8466,676.10335 L 1087.9103,675.07152 L 1092.2955,673.00785 L 1096.6808,671.46011 L 1102.6139,669.91236 L 1109.0628,668.36461 L 1115.7697,667.07482 L 1123.2505,665.78503 L 1132.279,664.7532 L 1141.3075,663.46341 L 1150.594,662.43158 L 1159.6225,660.88384 L 1162.718,660.36792 L 1165.5556,659.59405 L 1168.6511,658.82017 L 1171.7466,658.0463 L 1174.842,654.17693 L 1179.7432,648.75982 L 1183.0967,645.40637 L 1186.9661,642.31087 L 1191.3514,638.95742 L 1196.5105,635.60397 L 1204.2492,630.96073 L 1212.5039,626.8334 L 1221.0165,622.44812 L 1229.2712,618.57875 L 1237.0099,614.70938 L 1244.2327,611.09797 L 1250.1657,608.00248 L 1254.809,604.90699 L 1256.0988,601.03762 L 1257.9045,597.16825 L 1260.2261,593.29888 L 1263.0636,589.42952 L 1266.1591,585.30219 L 1270.0285,581.17487 L 1274.1558,576.53162 L 1279.315,571.63043 L 1283.9582,567.5031 L 1288.8594,563.37578 L 1291.439,561.57007 L 1294.0186,559.76437 L 1296.8561,558.21662 L 1299.6936,556.66887 L 1302.5312,555.37908 L 1305.3687,554.34725 L 1308.4642,553.57338 L 1311.3017,552.7995 L 1314.3972,552.54155 L 1317.2348,552.28359 L 1320.3303,552.54155 L 1323.1678,553.05746 L 1322.9098,556.15296 L 1322.136,559.24845 L 1321.1041,562.34394 L 1319.8144,565.6974 L 1318.0086,569.05085 L 1315.687,572.4043 L 1312.8495,576.01571 L 1309.496,579.62712 L 1312.0756,579.36916 L 1314.3972,578.85325 L 1316.2029,578.33733 L 1318.0086,577.56346 L 1319.5564,577.04754 L 1321.3621,576.53162 L 1323.6837,576.27367 L 1326.2633,576.01571 L 1326.5213,577.82141 L 1326.5213,579.62712 L 1326.2633,581.43282 L 1325.7474,582.98057 L 1324.9735,584.52832 L 1323.9417,586.07606 L 1322.9098,587.36585 L 1321.6201,588.65564 L 1316.2029,593.8148 L 1310.7858,598.716 L 1313.8813,598.97396 L 1317.2348,600.00579 L 1320.5882,601.03762 L 1323.1678,601.55353 L 1320.0723,603.87515 L 1316.4609,606.19678 L 1312.8495,608.5184 L 1308.7222,610.84002 L 1304.5948,613.16164 L 1300.4675,615.74122 L 1296.3402,618.57875 L 1292.4708,621.67425 L 1294.2765,621.9322 L 1296.5981,622.96403 L 1297.63,623.22199 L 1298.6618,623.73791 L 1299.4357,623.99587 L 1300.2096,623.73791 L 1295.0504,626.57544 L 1288.6015,629.67094 L 1285.506,631.21868 L 1282.9264,632.76643 L 1281.6366,633.54031 L 1280.8627,634.31418 L 1280.3468,635.08805 L 1279.8309,635.86193 L 1280.0888,636.89376 L 1280.6048,637.66763 L 1281.6366,638.4415 L 1282.4105,639.21538 L 1282.1525,640.24721 L 1281.6366,641.02108 L 1280.6048,641.79496 L 1279.5729,642.56883 L 1277.2513,643.85862 L 1274.1558,645.14841 L 1271.0603,646.18024 L 1268.2228,647.21207 L 1266.1591,648.2439 L 1264.6114,649.01778 L 1269.7705,654.17693 L 1267.9648,655.98264 L 1266.1591,657.27243 L 1264.6114,658.0463 L 1262.8057,658.82017 L 1259.1943,659.33609 L 1254.2931,659.33609 L 1254.809,661.65771 L 1255.5829,663.97933 L 1256.0988,666.55891 L 1256.6147,669.13849 L 1252.2294,672.49194 L 1246.8123,676.36131 L 1240.8793,680.23067 L 1234.1724,684.10004 L 1230.303,686.1637 L 1226.4336,687.96941 L 1222.3063,689.51715 L 1217.921,691.0649 L 1213.2778,692.61265 L 1208.3766,693.64448 L 1203.2174,694.67631 L 1197.8003,695.45019 L 1207.3447,695.70814 L 1215.5994,695.70814 L 1223.3381,694.93427 L 1230.303,694.1604 L 1236.7519,692.87061 L 1242.427,691.32286 L 1248.1021,689.2592 L 1253.5192,687.19553 L 1260.742,683.84208 L 1267.7069,679.97272 L 1274.4138,675.84539 L 1281.3786,671.71806 L 1277.2513,669.6544 L 1273.124,668.36461 L 1271.0603,667.59074 L 1268.9967,666.55891 L 1266.675,665.52708 L 1264.3534,664.23729 L 1266.4171,662.68954 L 1268.7387,661.65771 L 1271.5762,660.62588 L 1274.6717,659.852 L 1280.8627,658.56222 L 1287.3117,657.78834 L 1292.9867,657.01447 L 1298.1459,656.49855 L 1300.2096,655.98264 L 1302.0153,655.46672 L 1303.0471,654.95081 L 1303.821,654.17693 L 1303.563,653.91897 L 1303.0471,653.40306 L 1302.2732,653.1451 L 1301.2414,652.62919 L 1298.4039,652.11327 L 1294.7924,651.59735 L 1291.181,651.3394 L 1287.5696,650.82348 L 1284.4741,650.04961 L 1282.4105,649.27573 L 1289.3753,647.72799 L 1296.3402,646.18024 L 1302.5312,644.89045 L 1307.6903,643.60066 L 1312.0756,642.31087 L 1315.945,640.76312 L 1317.7507,639.98925 L 1319.0405,639.21538 L 1320.3303,638.4415 L 1321.3621,637.40967 L 1321.1041,637.15172 L 1320.5882,636.6358 L 1319.5564,636.37784 L 1318.2666,636.11988 L 1314.9132,635.86193 L 1311.0438,635.86193 L 1306.9165,635.60397 L 1303.0471,635.34601 L 1299.6936,634.83009 L 1297.63,634.31418 L 1299.4357,633.54031 L 1301.2414,632.76643 L 1307.4324,630.96073 L 1312.8495,629.41298 L 1317.7507,628.12319 L 1322.3939,626.57544 L 1327.2951,625.0277 L 1332.1963,622.96403 L 1334.5179,621.67425 L 1336.5816,620.38446 L 1337.3555,619.61058 L 1338.1294,618.57875 L 1338.9032,617.80488 L 1339.1612,617.031 L 1338.9032,616.25713 L 1338.1294,615.74122 L 1337.3555,615.48326 L 1330.1327,615.48326 L 1326.7792,615.74122 L 1322.136,615.74122 L 1320.8462,615.48326 L 1319.8144,614.96734 L 1318.7825,614.45143 L 1329.1008,607.74452 L 1338.6453,601.55353 L 1347.1579,596.13642 L 1354.6387,590.97726 L 1357.7342,588.39768 L 1360.5717,585.81811 L 1362.8933,583.23853 L 1364.957,580.65895 L 1366.5047,577.82141 L 1367.7945,574.98388 L 1368.5684,571.88838 L 1368.5684,568.53493 L 1366.7627,568.53493 L 1364.957,568.79289 L 1362.8933,569.56676 L 1360.8296,570.34064 L 1356.7023,572.92021 L 1352.317,575.49979 L 1349.9954,576.78958 L 1347.9318,578.07937 L 1345.6101,579.1112 L 1343.2885,579.88508 L 1341.2249,580.40099 L 1339.1612,580.65895 L 1336.8396,580.65895 L 1334.7759,579.88508 L 1340.9669,575.24184 L 1347.9318,569.30881 L 1355.9284,562.34394 L 1363.9251,554.60521 L 1371.9218,546.35056 L 1379.4026,538.09591 L 1382.7561,533.71062 L 1386.1095,529.5833 L 1388.9471,525.45597 L 1391.5266,521.58661 L 1392.0425,520.55478 L 1392.3005,519.7809 L 1392.0425,518.74907 L 1391.7846,517.9752 L 1391.5266,517.20132 L 1390.7528,516.68541 L 1389.9789,515.91153 L 1389.205,515.65358 L 1388.1732,515.13766 L 1387.1413,514.8797 L 1385.0777,514.8797 L 1384.0459,515.13766 L 1382.7561,515.39562 L 1381.9822,516.16949 L 1380.9504,516.94337 L 1376.3071,521.58661 L 1370.89,527.00372 L 1365.2149,532.93675 L 1359.0239,538.86978 L 1352.833,544.2869 L 1346.642,549.44605 L 1343.5465,551.50971 L 1340.7089,553.31542 L 1337.6134,554.86317 L 1335.0339,556.15296 L 1336.8396,554.60521 L 1339.1612,552.28359 L 1342.2567,549.18809 L 1345.6101,545.31873 L 1353.0909,536.2902 L 1361.3456,525.71393 L 1365.4729,520.03886 L 1369.3423,514.36379 L 1373.2116,508.94667 L 1376.5651,503.2716 L 1379.6606,498.11244 L 1382.2401,493.4692 L 1384.3038,489.08392 L 1385.5936,485.47251 L 1385.8516,484.18272 L 1385.8516,482.11906 L 1385.5936,481.34518 L 1385.0777,480.57131 L 1384.5618,479.79744 L 1384.0459,479.28152 L 1383.272,479.02356 L 1381.7242,478.24969 L 1379.9185,477.73377 L 1376.3071,477.73377 L 1375.2753,477.99173 L 1374.5014,478.24969 L 1373.4696,478.76561 L 1372.6957,479.53948 L 1370.632,481.34518 L 1368.5684,483.92476 L 1363.9251,489.85779 L 1359.0239,497.33857 L 1353.6068,505.33526 L 1347.6738,513.58991 L 1344.3203,517.45928 L 1341.2249,521.32865 L 1337.8714,524.6821 L 1334.26,527.77759 L 1338.9032,519.26499 L 1343.5465,509.46259 L 1346.1261,504.04547 L 1348.4477,498.62836 L 1350.7693,492.95329 L 1352.833,487.27821 L 1354.6387,481.34518 L 1356.4444,475.67011 L 1357.7342,469.99504 L 1358.766,464.31997 L 1359.2819,458.90285 L 1359.5399,453.7437 L 1359.2819,451.16412 L 1359.0239,448.8425 L 1358.766,446.52088 L 1358.2501,444.19926 L 1357.9921,443.42538 L 1357.4762,442.65151 L 1356.7023,441.87764 L 1356.1864,441.36172 L 1354.3807,440.58785 L 1352.575,440.07193 L 1350.7693,440.07193 L 1349.2215,440.32989 L 1348.7056,440.58785 L 1347.9318,440.8458 L 1347.6738,441.36172 L 1347.4158,442.13559 L 1344.8363,450.6482 L 1342.5146,459.16081 L 1340.193,468.18934 L 1337.8714,476.9599 L 1335.5498,485.73047 L 1332.4543,493.98512 L 1330.9065,498.11244 L 1329.1008,501.72385 L 1327.0372,505.59322 L 1324.7155,508.94667 L 1326.2633,501.4659 L 1327.2951,494.75899 L 1328.327,488.568 L 1328.8429,482.89293 L 1329.3588,477.99173 L 1329.6167,473.60645 L 1329.3588,469.99504 L 1329.1008,466.89955 L 1328.5849,464.31997 L 1327.811,462.2563 L 1327.2951,461.48243 L 1326.7792,460.70856 L 1326.2633,460.19264 L 1325.4894,459.93468 L 1324.7155,459.67673 L 1323.9417,459.41877 L 1323.1678,459.41877 L 1322.3939,459.67673 L 1320.3303,460.19264 L 1318.2666,461.22447 L 1316.4609,469.47912 L 1314.6552,477.47582 L 1312.5915,484.95659 L 1310.2699,492.17941 L 1307.6903,499.40223 L 1304.8528,506.62505 L 1301.7573,514.10583 L 1298.1459,521.58661 L 1295.5663,526.48781 L 1292.9867,531.389 L 1290.1492,536.2902 L 1287.3117,541.1914 L 1284.2162,545.83464 L 1281.1207,550.47788 L 1277.7672,555.12112 L 1274.4138,559.76437 L 1268.2228,567.5031 L 1261.7738,574.72592 L 1255.0669,581.94874 L 1248.1021,588.65564 L 1240.8793,595.36255 L 1233.3985,601.55353 L 1225.6597,607.48656 L 1217.663,613.16164 L 1212.2459,616.77305 L 1206.5709,620.38446 L 1200.8958,623.73791 L 1195.2207,627.09136 L 1186.1922,631.21868 L 1177.1637,635.34601 L 1167.8772,638.69946 L 1158.5907,642.05291 L 1150.852,644.37453 L 1143.1132,646.69615 L 1135.1165,648.50186 L 1127.1199,650.30756 L 1119.1232,651.59735 L 1110.8685,652.62919 L 1102.8718,653.66102 L 1094.6172,654.17693 L 1093.8433,654.43489 L 1093.0694,654.69285 L 1091.5217,655.46672 L 1089.716,656.75651 L 1087.1364,659.07813 L 1083.7829,662.17362 L 1079.6556,666.30095 L 1074.7544,671.71806 L 1070.1112,677.13518 L 1064.6941,683.06821 L 1061.8565,685.90575 L 1059.019,688.74328 L 1055.6655,691.32286 L 1052.3121,693.90244 L 1049.7325,695.70814 L 1047.1529,697.25589 L 1044.3154,698.54568 L 1041.4779,699.83547 L 1035.2869,702.41505 L 1029.0959,704.73667 L 1022.9049,707.05829 L 1017.4878,709.12195 L 1015.1662,710.15378 L 1012.8445,711.44357 L 1010.7809,712.4754 L 1009.2331,713.50723 L 1007.6854,715.05498 L 1006.3956,716.34477 L 1005.6217,717.63456 L 1005.1058,718.92435 L 1004.8478,720.73005 L 1004.8478,721.76188"
     id="path29"
     style="fill:#fec50c;fill-opacity:1;fill-rule:evenodd;stroke:none" />
  <path
     d="M 1019.7937,721.46812 C 1019.2607,721.46849 1018.8284,721.03653 1018.8284,720.50354 C 1018.8284,719.97055 1019.2607,719.53858 1019.7937,719.53895 C 1020.3267,719.53858 1020.7589,719.97055 1020.7589,720.50354 C 1020.7589,721.03653 1020.3267,721.46849 1019.7937,721.46812 z"
     id="path3938"
     style="fill:#fec50c;fill-opacity:1;stroke:#00ff00;stroke-width:0.38127393;stroke-miterlimit:4;stroke-dasharray:none;stroke-opacity:1" />
  <use
     transform="matrix(2.0220238,0,0,2.0033454,120,674.47414)"
     id="use4309"
     style="fill:#fec50c;fill-opacity:1"
     x="0"
     y="0"
     width="1000"
     height="500"
     xlink:href="#orn" />
  <use
     transform="matrix(2.0220238,0,0,-2.1390928,120,849.93662)"
     id="use4325"
     style="fill:#fec50c;fill-opacity:1"
     x="0"
     y="0"
     width="1000"
     height="500"
     xlink:href="#uorn" />
  <use
     transform="matrix(2.0220238,0,0,-2.0033454,120,675.43745)"
     id="use4315"
     style="fill:#fec50c;fill-opacity:1"
     x="0"
     y="0"
     width="1000"
     height="500"
     xlink:href="#orn" />
  <use
     transform="matrix(-1,0,0,1,240.00001,0)"
     id="use2526"
     x="0"
     y="0"
     width="2000"
     height="1000"
     xlink:href="#use4325" />
  <use
     transform="matrix(-1,0,0,1,240,4.8689464e-6)"
     id="use2528"
     x="0"
     y="0"
     width="2000"
     height="1000"
     xlink:href="#use4309" />
  <use
     transform="matrix(-1,0,0,1,240,1.692921e-6)"
     id="use2530"
     x="0"
     y="0"
     width="2000"
     height="1000"
     xlink:href="#use4315" />
  <g
     transform="matrix(1,0,0,-1.016159,0,1015.2703)"
     id="use2633">
    <use
       transform="matrix(2.0220238,0,0,1.9714881,120,678.776)"
       id="use2673"
       style="fill:#fec50c;fill-opacity:1"
       x="0"
       y="0"
       width="1000"
       height="500"
       xlink:href="#orn" />
    <use
       transform="matrix(2.0220238,0,0,-2.1050769,120,851.44827)"
       id="use2675"
       style="fill:#fec50c;fill-opacity:1"
       x="0"
       y="0"
       width="1000"
       height="500"
       xlink:href="#uorn" />
    <use
       transform="matrix(2.0220238,0,0,-1.9714881,120,679.72399)"
       id="use2677"
       style="fill:#fec50c;fill-opacity:1"
       x="0"
       y="0"
       width="1000"
       height="500"
       xlink:href="#orn" />
    <use
       transform="matrix(-1,0,0,1,240.00001,0)"
       id="use2679"
       x="0"
       y="0"
       width="2000"
       height="1000"
       xlink:href="#use4325" />
    <use
       transform="matrix(-1,0,0,1,240,4.7915202e-6)"
       id="use2681"
       x="0"
       y="0"
       width="2000"
       height="1000"
       xlink:href="#use4309" />
    <use
       transform="matrix(-1,0,0,1,240,1.6660001e-6)"
       id="use2683"
       x="0"
       y="0"
       width="2000"
       height="1000"
       xlink:href="#use4315" />
  </g>
</svg>
