<?xml version="1.0" encoding="UTF-8" standalone="no"?>
<!-- Created with Inkscape (http://www.inkscape.org/) -->
<svg
   xmlns:svg="http://www.w3.org/2000/svg"
   xmlns="http://www.w3.org/2000/svg"
   xmlns:xlink="http://www.w3.org/1999/xlink"
   version="1.0"
   width="900"
   height="500"
   id="svg548">
  <defs
     id="defs550">
    <linearGradient
       x1="0"
       y1="0"
       x2="1"
       y2="0"
       id="linearGradient604"
       gradientUnits="objectBoundingBox"
       spreadMethod="pad">
      <stop
         id="stop605"
         style="stop-color:#000000;stop-opacity:1"
         offset="0" />
      <stop
         id="stop606"
         style="stop-color:#fff;stop-opacity:1"
         offset="1" />
    </linearGradient>
    <radialGradient
       cx="0.5"
       cy="0.5"
       r="0.5"
       fx="0.5"
       fy="0.5"
       id="radialGradient607"
       xlink:href="#linearGradient604"
       gradientUnits="objectBoundingBox"
       spreadMethod="pad" />
    <linearGradient
       x1="1.04e-06"
       y1="-2e-07"
       x2="1.0000011"
       y2="-2e-07"
       id="linearGradient608"
       xlink:href="#linearGradient604"
       gradientUnits="objectBoundingBox"
       gradientTransform="translate(1.039138e-6,-2.002184e-7)"
       spreadMethod="pad" />
  </defs>
  <rect
     width="900"
     height="500"
     x="0"
     y="-1.6431301e-14"
     id="rect781"
     style="font-size:12px;fill:#da2d1c;fill-rule:evenodd;stroke-width:1pt" />
  <rect
     width="389.76379"
     height="248.03151"
     x="0"
     y="1.4749145e-07"
     id="rect578"
     style="font-size:12px;fill:#2042a1;fill-rule:evenodd;stroke-width:1pt" />
  <path
     d="M 227.0559,125.31765 C 227.0559,143.13058 212.41808,157.58758 194.38257,157.58758 C 176.34748,157.58758 161.70965,143.13058 161.70965,125.31765 C 161.70965,107.50473 176.34748,93.048137 194.38257,93.048137 C 212.41808,93.048137 227.0559,107.50473 227.0559,125.31765 z M 125.19302,118.09324 L 129.03672,103.16255 L 139.60763,107.49736 L 145.37339,95.456273 L 136.24382,89.676664 L 145.37339,77.15411 L 154.02224,85.823319 L 163.6317,77.15411 L 157.86594,67.521156 L 171.79983,60.296748 L 175.16323,72.337429 L 188.1365,68.484493 L 186.69516,57.406739 L 201.59008,56.925275 L 200.62905,68.484493 L 214.08263,72.819301 L 217.44603,60.778211 L 230.89961,67.521156 L 224.65313,77.635574 L 235.22403,85.823319 L 243.39216,77.15411 L 252.52132,88.713328 L 242.91185,95.456273 L 249.15793,107.49736 L 259.72883,103.64402 L 263.09223,118.57471 L 252.04101,119.53804 L 251.56029,133.02393 L 262.61151,133.98727 L 259.24811,149.39983 L 248.19731,144.58315 L 243.39216,157.10611 L 252.52132,162.88572 L 243.39216,174.9264 L 235.70434,166.2572 L 225.13385,174.9264 L 231.37992,185.04082 L 217.44603,191.78377 L 213.60232,180.22455 L 200.62905,183.59602 L 202.07039,195.15524 L 186.69516,195.63711 L 188.1365,184.07749 L 175.64395,180.70601 L 171.31952,191.78377 L 158.34625,185.04082 L 164.59273,175.40828 L 153.54152,167.22012 L 145.37339,175.40828 L 135.76351,163.84906 L 145.8537,156.62424 L 139.60763,145.06502 L 129.51744,148.91796 L 125.19302,133.98727 L 137.20526,133.02393 L 137.20526,119.53804 L 125.19302,118.09324 z"
     id="path577"
     style="font-size:12px;fill:#fff;fill-rule:evenodd;stroke-width:1pt" />
  <polygon
     points="390.906,29.178 360.233,7.70501 329.44,29.0038 340.384,-6.80287 310.612,-29.5076 348.047,-30.1644 360.441,-65.4955 372.634,-30.0947 410.065,-29.2258 380.165,-6.69013 390.906,29.178 "
     transform="matrix(0.3404428,0,0,0.3327494,72.207272,39.510041)"
     id="polygon579"
     style="font-size:12px;fill:#fff;fill-rule:evenodd;stroke-width:1pt" />
  <path
     d="M 240.44344,93.196788 C 247.0174,116.32861 242.4487,128.83783 240.70612,129.06711 C 238.47487,128.09023 238.30651,104.50398 228.80824,98.497056 C 219.85388,92.978321 225.19959,87.619639 227.63572,85.53783 C 230.11847,84.434004 237.64626,83.489975 240.44344,93.196788 z"
     id="path596"
     style="font-size:12px;fill:#fff;fill-rule:evenodd;stroke:#2042a1;stroke-width:1.24377668" />
  <path
     d="M 215.47416,123.31636 C 198.6608,161.50668 205.14999,187.38824 198.73923,187.20636 C 192.15238,187.26028 190.41034,163.43379 202.58328,123.57077 C 217.93444,73.462352 237.47489,77.649573 239.84309,91.671191 C 226.92003,97.785251 225.17211,99.30518 215.47416,123.31636 z"
     id="path594"
     style="font-size:12px;fill:#fff;fill-rule:evenodd;stroke:#2042a1;stroke-width:1.47132003" />
  <path
     d="M 237.05256,136.01894 C 239.78391,160.74364 231.59634,171.51273 229.47279,171.1789 C 227.03327,169.50912 236.3822,154.27872 222.04432,137.47581 C 213.82373,127.99369 222.76147,131.47997 226.11771,130.22441 C 229.31424,129.9401 235.86056,125.63137 237.05256,136.01894 z"
     id="path597"
     style="font-size:12px;fill:#fff;fill-rule:evenodd;stroke:#2042a1;stroke-width:1.38153362" />
  <path
     d="M 209.61951,160.45184 C 203.13072,175.36258 200.30398,193.52671 192.71729,191.29591 C 184.86923,189.23928 192.36645,163.73244 202.41473,145.94452 C 214.81863,124.18897 237.04891,118.66644 236.67393,134.33515 C 221.34712,136.78407 214.61555,148.40072 209.61951,160.45184 z"
     id="path598"
     style="font-size:12px;fill:#fff;fill-rule:evenodd;stroke:#2042a1;stroke-width:1.63427913" />
  <path
     d="M 153.40125,120.68924 C 146.92381,148.79879 148.28263,166.14151 150.04721,165.6672 C 152.4632,165.96059 151.74265,138.83355 163.04202,127.77988 C 173.50148,117.10231 167.63425,119.25823 165.24627,115.28514 C 160.37906,113.30641 156.65746,107.53432 153.40125,120.68924 z"
     id="path599"
     style="font-size:12px;fill:#fff;fill-rule:evenodd;stroke:#2042a1;stroke-width:1.60534549" />
  <path
     d="M 179.24024,151.00085 C 187.00667,169.97148 191.98656,193.24094 198.37642,190.13373 C 205.02077,187.24229 194.34929,154.95279 183.61331,132.11855 C 174.4469,114.06787 167.65671,111.84112 157.51632,112.41817 C 169.33874,117.12903 173.18241,135.66066 179.24024,151.00085 z"
     id="path600"
     style="font-size:12px;fill:#fff;fill-rule:evenodd;stroke:#2042a1;stroke-width:1.74426925" />
  <path
     d="M 180.57559,140.47159 C 186.34563,164.56651 188.83201,193.507 195.62426,190.59597 C 202.64994,187.98145 195.40154,147.31432 187.05487,118.12461 C 179.77055,94.958037 168.55356,95.328153 158.25031,94.658694 C 174.75081,102.90499 176.13428,121.01781 180.57559,140.47159 z"
     id="path602"
     style="font-size:12px;fill:#fff;fill-rule:evenodd;stroke:#2042a1;stroke-width:1.94351923" />
  <path
     d="M 156.5098,95.750378 C 141.39552,108.15625 141.4776,133.29242 144.35127,133.69012 C 147.34742,134.1963 148.97026,113.82051 158.21212,106.18806 C 167.99853,98.411467 169.42315,102.64093 180.47683,103.4681 C 177.52449,96.953105 168.90644,85.092223 156.5098,95.750378 z"
     id="path601"
     style="font-size:12px;fill:#fff;fill-rule:evenodd;stroke:#2042a1;stroke-width:1.78872788" />
  <ellipse
     cx="372.06726"
     cy="394.76855"
     rx="11.774277"
     ry="25.314713"
     transform="matrix(0.3708211,-0.1691271,0.1468337,0.2886458,-11.642778,21.797456)"
     id="path672"
     style="font-size:12px;fill:#fff;fill-rule:evenodd;stroke:#2042a1;stroke-width:1pt" />
  <ellipse
     cx="372.06726"
     cy="394.76855"
     rx="11.774277"
     ry="25.314713"
     transform="matrix(0.3844616,-0.1350994,0.1204097,0.3006857,-6.4180078,15.101263)"
     id="path670"
     style="font-size:12px;fill:#fff;fill-rule:evenodd;stroke:#2042a1;stroke-width:1pt" />
  <ellipse
     cx="372.06726"
     cy="394.76855"
     rx="11.774277"
     ry="25.314713"
     transform="matrix(0.4059706,-3.4188114e-2,4.1378088e-2,0.3213408,24.358002,-33.658771)"
     id="path671"
     style="font-size:12px;fill:#fff;fill-rule:evenodd;stroke:#2042a1;stroke-width:1pt" />
  <ellipse
     cx="372.06726"
     cy="394.76855"
     rx="11.774277"
     ry="25.314713"
     transform="matrix(0.4024701,-6.3341305e-2,6.4306063e-2,0.3175296,11.208657,-8.3406978)"
     id="path668"
     style="font-size:12px;fill:#fff;fill-rule:evenodd;stroke:#2042a1;stroke-width:1pt" />
  <ellipse
     cx="372.06726"
     cy="394.76855"
     rx="11.774277"
     ry="25.314713"
     transform="matrix(0.4024701,-6.3341305e-2,6.4306063e-2,0.3175296,11.208657,1.773732)"
     id="path666"
     style="font-size:12px;fill:#fff;fill-rule:evenodd;stroke:#2042a1;stroke-width:1pt" />
  <ellipse
     cx="372.06726"
     cy="394.76855"
     rx="11.774277"
     ry="25.314713"
     transform="matrix(0.4054609,3.980405e-2,-1.7146485e-2,0.3235505,50.256889,-50.733672)"
     id="path669"
     style="font-size:12px;fill:#fff;fill-rule:evenodd;stroke:#2042a1;stroke-width:1pt" />
  <ellipse
     cx="372.06726"
     cy="394.76855"
     rx="11.774277"
     ry="25.314713"
     transform="matrix(0.4054609,3.980405e-2,-1.7146485e-2,0.3235505,50.256889,-40.619254)"
     id="path667"
     style="font-size:12px;fill:#fff;fill-rule:evenodd;stroke:#2042a1;stroke-width:1pt" />
  <ellipse
     cx="372.06726"
     cy="394.76855"
     rx="11.774277"
     ry="25.314713"
     transform="matrix(0.4069141,1.9948433e-2,-1.3946722e-3,0.3240033,30.11879,-21.091303)"
     id="path638"
     style="font-size:12px;fill:#fff;fill-rule:evenodd;stroke:#2042a1;stroke-width:1pt" />
  <ellipse
     cx="372.06726"
     cy="394.76855"
     rx="11.774277"
     ry="25.314713"
     transform="matrix(0.4069141,1.9948433e-2,-1.3946722e-3,0.3240033,37.326062,-21.068612)"
     id="path639"
     style="font-size:12px;fill:#fff;fill-rule:evenodd;stroke:#2042a1;stroke-width:1pt" />
  <ellipse
     cx="372.06726"
     cy="394.76855"
     rx="11.774277"
     ry="25.314713"
     transform="matrix(0.3889362,0.1215514,-8.2368908e-2,0.3133101,84.15241,-54.624651)"
     id="path640"
     style="font-size:12px;fill:#fff;fill-rule:evenodd;stroke:#2042a1;stroke-width:1pt" />
  <ellipse
     cx="372.06726"
     cy="394.76855"
     rx="11.774277"
     ry="25.314713"
     transform="matrix(0.4069141,1.9948433e-2,-1.3946722e-3,0.3240033,29.6383,-10.013647)"
     id="path635"
     style="font-size:12px;fill:#fff;fill-rule:evenodd;stroke:#2042a1;stroke-width:1pt" />
  <ellipse
     cx="372.06726"
     cy="394.76855"
     rx="11.774277"
     ry="25.314713"
     transform="matrix(0.4069141,1.9948433e-2,-1.3946722e-3,0.3240033,36.845569,-12.880797)"
     id="path636"
     style="font-size:12px;fill:#fff;fill-rule:evenodd;stroke:#2042a1;stroke-width:1pt" />
  <ellipse
     cx="372.06726"
     cy="394.76855"
     rx="11.774277"
     ry="25.314713"
     transform="matrix(0.3889362,0.1215514,-8.2368908e-2,0.3133101,83.671937,-44.510274)"
     id="path637"
     style="font-size:12px;fill:#fff;fill-rule:evenodd;stroke:#2042a1;stroke-width:1pt" />
  <ellipse
     cx="372.06726"
     cy="394.76855"
     rx="11.774277"
     ry="25.314713"
     transform="matrix(0.5262208,-3.8491167e-2,4.9736382e-2,0.407245,-20.079955,36.427172)"
     id="path603"
     style="font-size:12px;fill:#fff;fill-rule:evenodd;stroke:#2042a1;stroke-width:1pt" />
  <ellipse
     cx="372.06726"
     cy="394.76855"
     rx="11.774277"
     ry="25.314713"
     transform="matrix(0.4069141,1.9948433e-2,-1.3946722e-3,0.3240033,26.274905,1.0640457)"
     id="path632"
     style="font-size:12px;fill:#fff;fill-rule:evenodd;stroke:#2042a1;stroke-width:1pt" />
  <ellipse
     cx="372.06726"
     cy="394.76855"
     rx="11.774277"
     ry="25.314713"
     transform="matrix(0.4069141,1.9948433e-2,-1.3946722e-3,0.3240033,34.923618,-1.3214614)"
     id="path633"
     style="font-size:12px;fill:#fff;fill-rule:evenodd;stroke:#2042a1;stroke-width:1pt" />
  <ellipse
     cx="372.06726"
     cy="394.76855"
     rx="11.774277"
     ry="25.314713"
     transform="matrix(0.3889362,0.1215514,-8.2368908e-2,0.3133101,80.308558,-33.432561)"
     id="path634"
     style="font-size:12px;fill:#fff;fill-rule:evenodd;stroke:#2042a1;stroke-width:1pt" />
  <ellipse
     cx="372.06726"
     cy="394.76855"
     rx="11.774277"
     ry="25.314713"
     transform="matrix(0.3991537,8.1752277e-2,-5.0537851e-2,0.3200215,52.399105,-10.497945)"
     id="path629"
     style="font-size:12px;fill:#fff;fill-rule:evenodd;stroke:#2042a1;stroke-width:1pt" />
  <ellipse
     cx="372.06726"
     cy="394.76855"
     rx="11.774277"
     ry="25.314713"
     transform="matrix(0.3991537,8.1752277e-2,-5.0537851e-2,0.3200215,59.519081,-9.3767363)"
     id="path630"
     style="font-size:12px;fill:#fff;fill-rule:evenodd;stroke:#2042a1;stroke-width:1pt" />
  <ellipse
     cx="372.06726"
     cy="394.76855"
     rx="11.774277"
     ry="25.314713"
     transform="matrix(0.365969,0.1794325,-0.1289476,0.2971076,111.03815,-36.355581)"
     id="path631"
     style="font-size:12px;fill:#fff;fill-rule:evenodd;stroke:#2042a1;stroke-width:1pt" />
  <ellipse
     cx="372.06726"
     cy="394.76855"
     rx="11.774277"
     ry="25.314713"
     transform="matrix(0.4062693,-3.0406919e-2,3.8399014e-2,0.3217118,22.779447,55.866587)"
     id="path609"
     style="font-size:12px;fill:#fff;fill-rule:evenodd;stroke:#2042a1;stroke-width:1pt" />
  <ellipse
     cx="372.06726"
     cy="394.76855"
     rx="11.774277"
     ry="25.314713"
     transform="matrix(0.3811206,0.1442967,-0.1006297,0.3079044,100.47418,-3.6841551)"
     id="path610"
     style="font-size:12px;fill:#fff;fill-rule:evenodd;stroke:#2042a1;stroke-width:1pt" />
  <ellipse
     cx="372.06726"
     cy="394.76855"
     rx="11.774277"
     ry="25.314713"
     transform="matrix(0.4069745,1.866814e-2,-3.802418e-4,0.3240062,44.552764,35.256749)"
     id="path611"
     style="font-size:12px;fill:#fff;fill-rule:evenodd;stroke:#2042a1;stroke-width:1pt" />
  <ellipse
     cx="372.06726"
     cy="394.76855"
     rx="11.774277"
     ry="25.314713"
     transform="matrix(0.4069745,1.866814e-2,-3.802418e-4,0.3240062,34.943059,23.697417)"
     id="path612"
     style="font-size:12px;fill:#fff;fill-rule:evenodd;stroke:#2042a1;stroke-width:1pt" />
  <ellipse
     cx="372.06726"
     cy="394.76855"
     rx="11.774277"
     ry="25.314713"
     transform="matrix(0.4069745,1.866814e-2,-3.802418e-4,0.3240062,42.150353,23.697417)"
     id="path613"
     style="font-size:12px;fill:#fff;fill-rule:evenodd;stroke:#2042a1;stroke-width:1pt" />
  <ellipse
     cx="372.06726"
     cy="394.76855"
     rx="11.774277"
     ry="25.314713"
     transform="matrix(0.3893144,0.1203275,-8.1387475e-2,0.3135674,86.946452,-21.083375)"
     id="path616"
     style="font-size:12px;fill:#fff;fill-rule:evenodd;stroke:#2042a1;stroke-width:1pt" />
  <ellipse
     cx="372.06726"
     cy="394.76855"
     rx="11.774277"
     ry="25.314713"
     transform="matrix(0.3893144,0.1203275,-8.1387475e-2,0.3135674,88.868387,-10.969011)"
     id="path614"
     style="font-size:12px;fill:#fff;fill-rule:evenodd;stroke:#2042a1;stroke-width:1pt" />
  <ellipse
     cx="372.06726"
     cy="394.76855"
     rx="11.774277"
     ry="25.314713"
     transform="matrix(0.3893144,0.1203275,-8.1387475e-2,0.3135674,94.63419,-9.0424566)"
     id="path615"
     style="font-size:12px;fill:#fff;fill-rule:evenodd;stroke:#2042a1;stroke-width:1pt" />
  <ellipse
     cx="372.06726"
     cy="394.76855"
     rx="11.774277"
     ry="25.314713"
     transform="matrix(0.3893144,0.1203275,-8.1387475e-2,0.3135674,91.270835,-32.642707)"
     id="path617"
     style="font-size:12px;fill:#fff;fill-rule:evenodd;stroke:#2042a1;stroke-width:1pt" />
  <ellipse
     cx="372.06726"
     cy="394.76855"
     rx="11.774277"
     ry="25.314713"
     transform="matrix(0.4063685,2.905104e-2,-8.6116061e-3,0.3238917,63.883778,-47.549794)"
     id="path628"
     style="font-size:12px;fill:#fff;fill-rule:evenodd;stroke:#2042a1;stroke-width:1pt" />
  <ellipse
     cx="372.06726"
     cy="394.76855"
     rx="11.774277"
     ry="25.314713"
     transform="matrix(0.3893144,0.1203275,-8.1387475e-2,0.3135674,93.673243,-22.046699)"
     id="path618"
     style="font-size:12px;fill:#fff;fill-rule:evenodd;stroke:#2042a1;stroke-width:1pt" />
  <ellipse
     cx="372.06726"
     cy="394.76855"
     rx="11.774277"
     ry="25.314713"
     transform="matrix(0.3893144,0.1203275,-8.1387475e-2,0.3135674,99.439046,-20.60176)"
     id="path619"
     style="font-size:12px;fill:#fff;fill-rule:evenodd;stroke:#2042a1;stroke-width:1pt" />
  <ellipse
     cx="372.06726"
     cy="394.76855"
     rx="11.774277"
     ry="25.314713"
     transform="matrix(0.4063685,2.905104e-2,-8.6116061e-3,0.3238917,59.078926,-37.435377)"
     id="path626"
     style="font-size:12px;fill:#fff;fill-rule:evenodd;stroke:#2042a1;stroke-width:1pt" />
  <ellipse
     cx="372.06726"
     cy="394.76855"
     rx="11.774277"
     ry="25.314713"
     transform="matrix(0.4044958,4.8676913e-2,-2.4196177e-2,0.3230977,74.096066,-44.424085)"
     id="path627"
     style="font-size:12px;fill:#fff;fill-rule:evenodd;stroke:#2042a1;stroke-width:1pt" />
  <ellipse
     cx="372.06726"
     cy="394.76855"
     rx="11.774277"
     ry="25.314713"
     transform="matrix(0.4063685,2.905104e-2,-8.6116061e-3,0.3238917,58.117971,-28.284308)"
     id="path624"
     style="font-size:12px;fill:#fff;fill-rule:evenodd;stroke:#2042a1;stroke-width:1pt" />
  <ellipse
     cx="372.06726"
     cy="394.76855"
     rx="11.774277"
     ry="25.314713"
     transform="matrix(0.4044958,4.8676913e-2,-2.4196177e-2,0.3230977,73.135115,-34.309708)"
     id="path625"
     style="font-size:12px;fill:#fff;fill-rule:evenodd;stroke:#2042a1;stroke-width:1pt" />
  <ellipse
     cx="372.06726"
     cy="394.76855"
     rx="11.774277"
     ry="25.314713"
     transform="matrix(0.4063685,2.905104e-2,-8.6116061e-3,0.3238917,59.078922,-16.243295)"
     id="path620"
     style="font-size:12px;fill:#fff;fill-rule:evenodd;stroke:#2042a1;stroke-width:1pt" />
  <ellipse
     cx="372.06726"
     cy="394.76855"
     rx="11.774277"
     ry="25.314713"
     transform="matrix(0.3893144,0.1203275,-8.1387475e-2,0.3135674,97.997585,-34.569339)"
     id="path621"
     style="font-size:12px;fill:#fff;fill-rule:evenodd;stroke:#2042a1;stroke-width:1pt" />
  <ellipse
     cx="372.06726"
     cy="394.76855"
     rx="11.774277"
     ry="25.314713"
     transform="matrix(0.3893144,0.1203275,-8.1387475e-2,0.3135674,104.24386,-32.642789)"
     id="path622"
     style="font-size:12px;fill:#fff;fill-rule:evenodd;stroke:#2042a1;stroke-width:1pt" />
  <ellipse
     cx="372.06726"
     cy="394.76855"
     rx="11.774277"
     ry="25.314713"
     transform="matrix(0.4044958,4.8676913e-2,-2.4196177e-2,0.3230977,75.057037,-23.232008)"
     id="path623"
     style="font-size:12px;fill:#fff;fill-rule:evenodd;stroke:#2042a1;stroke-width:1pt" />
  <use
     transform="translate(-40.360724,8.669523)"
     id="use2752"
     x="0"
     y="0"
     width="900"
     height="500"
     xlink:href="#polygon579" />
  <use
     transform="translate(-32.672962,23.118689)"
     id="use2754"
     x="0"
     y="0"
     width="900"
     height="500"
     xlink:href="#use2752" />
  <use
     transform="translate(-16.336422,34.677977)"
     id="use2756"
     x="0"
     y="0"
     width="900"
     height="500"
     xlink:href="#use2754" />
  <use
     transform="translate(-4.1e-5,38.531081)"
     id="use2758"
     x="0"
     y="0"
     width="900"
     height="500"
     xlink:href="#use2756" />
  <use
     transform="translate(16.336463,38.531041)"
     id="use2760"
     x="0"
     y="0"
     width="900"
     height="500"
     xlink:href="#use2758" />
  <use
     transform="translate(31.231534,27.934951)"
     id="use2762"
     x="0"
     y="0"
     width="900"
     height="500"
     xlink:href="#use2760" />
  <use
     transform="translate(40.360691,9.632791)"
     id="use2764"
     x="0"
     y="0"
     width="900"
     height="500"
     xlink:href="#use2762" />
  <use
     transform="translate(42.282699,-7.706159)"
     id="use2766"
     x="0"
     y="0"
     width="900"
     height="500"
     xlink:href="#use2764" />
  <use
     transform="translate(31.231334,-27.935029)"
     id="use2768"
     x="0"
     y="0"
     width="900"
     height="500"
     xlink:href="#use2766" />
  <use
     transform="translate(17.29753,-38.531039)"
     id="use2770"
     x="0"
     y="0"
     width="900"
     height="500"
     xlink:href="#use2768" />
  <use
     transform="translate(-2.8830002,-37.56778)"
     id="use2772"
     x="0"
     y="0"
     width="900"
     height="500"
     xlink:href="#use2770" />
  <use
     transform="translate(-17.29737,-35.641277)"
     id="use2774"
     x="0"
     y="0"
     width="900"
     height="500"
     xlink:href="#use2772" />
  <use
     transform="translate(-26.907114,-25.045239)"
     id="use2776"
     x="0"
     y="0"
     width="900"
     height="500"
     xlink:href="#use2774" />
</svg>
