<?xml version="1.0" encoding="UTF-8" standalone="no"?>
<!-- Created with Inkscape (http://www.inkscape.org/) -->
<svg
   xmlns:svg="http://www.w3.org/2000/svg"
   xmlns="http://www.w3.org/2000/svg"
   xmlns:xlink="http://www.w3.org/1999/xlink"
   version="1.0"
   width="2880"
   height="1440"
   id="svg1353">
  <defs
     id="defs1358" />
  <rect
     width="2880"
     height="1440"
     x="0"
     y="0"
     id="red area"
     style="fill:#ce1126" />
  <rect
     width="1440"
     height="720"
     x="0"
     y="0"
     id="blue quarter"
     style="fill:#002b7f" />
  <polygon
     points="0,-1 0.58778525,0.80901699 -0.95105652,-0.30901699 0.95105652,-0.30901699 -0.58778525,0.80901699 0,-1 "
     transform="matrix(105.14622,0,0,105.14622,719.99993,604.93494)"
     id="polygon1441"
     style="fill:#ffffff" />
  <polygon
     points="0,-1 0.58778525,0.80901699 -0.95105652,-0.30901699 0.95105652,-0.30901699 -0.58778525,0.80901699 0,-1 "
     transform="matrix(84.116958,0,0,82.917961,499.99995,292.918)"
     id="polygon1449"
     style="fill:#ffffff" />
  <polygon
     points="0,-1 0.58778525,0.80901699 -0.95105652,-0.30901699 0.95105652,-0.30901699 -0.58778525,0.80901699 0,-1 "
     transform="matrix(78.859659,0,0,77.390097,944.99991,257.3901)"
     id="polygon1451"
     style="fill:#ffffff" />
  <use
     transform="translate(220,-180)"
     id="use2402"
     x="0"
     y="0"
     width="288"
     height="144"
     xlink:href="#polygon1449" />
  <polygon
     points="0,-1 0.58778525,0.80901699 -0.95105652,-0.30901699 0.95105652,-0.30901699 -0.58778525,0.80901699 0,-1 "
     transform="matrix(52.573095,0,0,52.573095,829.99992,417.46729)"
     id="polygon1455"
     style="fill:#ffffff" />
</svg>
