<?xml version="1.0" encoding="UTF-8" standalone="no"?>
<!-- Created with Inkscape (http://www.inkscape.org/) -->

<svg
   xmlns:svg="http://www.w3.org/2000/svg"
   xmlns="http://www.w3.org/2000/svg"
   version="1.0"
   width="900"
   height="450"
   id="svg1307">
  <defs
     id="defs3" />
  <rect
     width="900"
     height="450"
     x="0"
     y="0"
     id="blue"
     style="fill:#0038a8" />
  <rect
     width="900"
     height="225"
     x="0"
     y="225"
     id="red"
     style="fill:#ce1126" />
  <path
     d="M 389.983,225.0004 0,450 7.8142663e-4,0 389.983,225.0004 z"
     id="path279"
     style="fill:#ffffff" />
  <path
     d="m 151.91574,182.53822 8.08404,-30.988 -5.38769,-6.71 -6.64357,37.698 3.94722,0 z m -16.78966,0 -4.68526,-41.998 9.45035,-10.54 9.32628,10.54 -4.70583,41.998 -9.38554,0 z m -7.41036,0 -7.71594,-30.988 5.47505,-6.71 6.19434,37.698 -3.95345,0 z"
     id="path426-7-1"
     style="fill:#fcd116;fill-opacity:1" />
  <circle
     cx="82.530502"
     cy="149.8075"
     r="30.915501"
     transform="matrix(1.4555805,0,0,1.4555805,19.86999,6.94313)"
     id="circle1323-7"
     style="fill:#fcd116;fill-opacity:1" />
  <path
     d="m 128.08382,267.46178 -8.08404,30.988 5.38769,6.71 6.64357,-37.698 -3.94722,0 z m 16.78966,0 4.68526,41.998 -9.45035,10.54 -9.32628,-10.54 4.70583,-41.998 9.38554,0 z m 7.41036,0 7.71594,30.988 -5.47505,6.71 -6.19434,-37.698 3.95345,0 z"
     id="path2879"
     style="fill:#fcd116;fill-opacity:1" />
  <path
     d="m 182.46156,236.91596 30.988,8.08404 6.71,-5.38769 -37.698,-6.64357 0,3.94722 z m 0,-16.78966 41.998,-4.68526 10.54,9.45035 -10.54,9.32628 -41.998,-4.70583 0,-9.38554 z m 0,-7.41036 30.988,-7.71594 6.71,5.47505 -37.698,6.19434 0,-3.95345 z"
     id="path2894"
     style="fill:#fcd116;fill-opacity:1" />
  <circle
     cx="82.530502"
     cy="149.8075"
     r="30.915501"
     transform="matrix(0,1.4555805,-1.4555805,0,358.05665,104.87021)"
     id="circle2896"
     style="fill:#fcd116;fill-opacity:1" />
  <path
     d="M 97.538,213.08404 66.55,205 l -6.71,5.38769 37.698,6.64357 0,-3.94722 z m 0,16.78966 -41.998,4.68526 -10.54,-9.45035 10.54,-9.32628 41.998,4.70583 0,9.38554 z m 0,7.41036 L 66.55,245 l -6.71,-5.47505 37.698,-6.19434 0,3.95345 z"
     id="path2898"
     style="fill:#fcd116;fill-opacity:1" />
  <path
     d="m 118.40063,186.54913 -16.19555,-27.62811 -8.55436,-0.93501 21.9588,31.35422 2.79111,-2.7911 z m -11.87208,11.87208 -33.01005,-26.38409 -0.7705,-14.13531 14.04758,0.85823 26.36955,33.02459 -6.63658,6.63658 z m -5.23992,5.23992 -27.36782,-16.45583 -0.87324,-8.61614 31.03657,22.27646 -2.79551,2.79551 z"
     id="path2954"
     style="fill:#fcd116;fill-opacity:1" />
  <circle
     cx="82.530502"
     cy="149.8075"
     r="30.915501"
     transform="matrix(1.0292508,-1.0292508,1.0292508,1.0292508,-99.13432,155.7551)"
     id="circle2956"
     style="fill:#fcd116;fill-opacity:1" />
  <path
     d="m 161.59894,263.45087 16.19555,27.6281 8.55436,0.93501 -21.9588,-31.35422 -2.79111,2.79111 z m 11.87208,-11.87209 33.01005,26.38409 0.7705,14.13532 -14.04758,-0.85823 -26.36954,-33.0246 6.63657,-6.63658 z m 5.23992,-5.23991 27.36782,16.45583 0.87324,8.61613 -31.03657,-22.27645 2.79551,-2.79551 z"
     id="path2958"
     style="fill:#fcd116;fill-opacity:1" />
  <path
     d="m 178.45065,203.40084 27.62811,-16.19554 0.93501,-8.55436 -31.35422,21.9588 2.7911,2.7911 z m -11.87208,-11.87208 26.38409,-33.01005 14.13531,-0.7705 -0.85822,14.04758 -33.0246,26.36955 -6.63658,-6.63658 z m -5.23991,-5.23992 16.45583,-27.36782 8.61613,-0.87324 -22.27645,31.03657 -2.79551,-2.79551 z"
     id="path2960"
     style="fill:#fcd116;fill-opacity:1" />
  <circle
     cx="82.530502"
     cy="149.8075"
     r="30.915501"
     transform="matrix(1.0292508,1.0292508,-1.0292508,1.0292508,209.24469,-14.13408)"
     id="circle2962"
     style="fill:#fcd116;fill-opacity:1" />
  <path
     d="m 101.54892,246.59915 -27.62811,16.19555 -0.93501,8.55436 31.35422,-21.9588 -2.7911,-2.79111 z m 11.87208,11.87209 -26.38409,33.01005 -14.13531,0.77049 0.85823,-14.04758 33.02459,-26.36954 6.63658,6.63658 z m 5.23991,5.23991 -16.45583,27.36782 -8.61613,0.87324 22.27645,-31.03657 2.79551,2.79551 z"
     id="path2964"
     style="fill:#fcd116;fill-opacity:1" />
  <path
     d="m 295.51186,241.27423 11.91752,-16.24894 -11.95037,-16.22484 19.13642,6.3131 11.73784,-16.37919 -0.0792,20.15063 19.20489,6.10191 -19.19223,6.1407 0.11873,20.15039 -11.77069,-16.35548 -19.12375,6.35172 z"
     id="path2036"
     style="fill:#fcd116" />
  <path
     d="M 60.74334,73.152925 40.712585,70.956519 32.636646,89.418264 28.535741,69.689088 8.4820252,67.713415 25.972583,57.706689 21.654547,38.023811 36.568665,51.57442 53.96005,41.396401 45.681134,59.767858 60.74376,73.153652 z"
     id="path3879"
     style="fill:#fcd116" />
  <path
     d="m 60.74334,376.84708 -20.030755,2.1964 -8.075939,-18.46174 -4.100905,19.72917 -20.0537158,1.97567 17.4905578,10.00673 -4.318036,19.68288 14.914118,-13.55061 17.391385,10.17802 -8.278916,-18.37146 15.062626,-13.38579 z"
     id="path3899"
     style="fill:#fcd116;fill-opacity:1" />
</svg>
