<?xml version="1.0" encoding="UTF-8"?><svg xmlns="http://www.w3.org/2000/svg" xmlns:xlink="http://www.w3.org/1999/xlink" width="209" height="110">
  <path d="M 0,0 209,0 209,10 209,20 209,30 209,40 209,50 209,60 209,70 209,80 209,90 209,100 209,110 0,110 0,100 0,90 0,80 0,70 0,60 0,0 z" fill="#bf0a30"/>
  <path d="M 0,10 209,10 209,20 0,20 0,30 209,30 209,40 0,39.963367 0,50 209,50 209,60 0,60 0,50 0,10 z M 0,70 209,70 209,80 0,80 0,70 z M 0,90 209,90 209,100 0,100 0,90 z" fill="#fff"/>
  <rect width="50" height="50" fill="#002868"/>
  <path d="M 16.18179,37.137082 25.003,30.739839 33.828497,37.1558 30.45084,26.766835 39.271291,20.364601 28.369319,20.364601 25.003,9.9974502 21.632008,20.35846 10.729905,20.364105 19.550004,26.766835 16.18179,37.137082 z" fill="#fff"/>
 </svg>
