<?xml version="1.0" encoding="UTF-8" standalone="no"?>
<!-- Created with Inkscape (http://www.inkscape.org/) -->
<svg
   xmlns:svg="http://www.w3.org/2000/svg"
   xmlns="http://www.w3.org/2000/svg"
   version="1.0"
   width="800"
   height="400"
   id="Flag of Macedonia">
  <defs
     id="defs15" />
  <rect
     width="800"
     height="400"
     x="0"
     y="0"
     id="red background"
     style="fill:#d20000" />
  <polygon
     points="0,0 120,0 680,400 800,400 0,0 "
     transform="translate(0,1.4e-5)"
     id="yellow ray 1"
     style="fill:#ffe600" />
  <polygon
     points="360,0 440,0 360,400 440,400 360,0 "
     transform="translate(0,1.4e-5)"
     id="yellow ray 2"
     style="fill:#ffe600" />
  <polygon
     points="680,0 800,0 0,400 120,400 680,0 "
     transform="translate(0,1.4e-5)"
     id="yellow ray 3"
     style="fill:#ffe600" />
  <polygon
     points="0,160 0,240 800,160 800,240 0,160 "
     transform="translate(0,1.4e-5)"
     id="yellow ray 4"
     style="fill:#ffe600" />
  <circle
     cx="400"
     cy="200"
     r="60"
     transform="matrix(1.1904763,0,0,1.1904763,-76.190515,-38.095244)"
     id="outer circle"
     style="fill:#d20000" />
  <circle
     cx="400"
     cy="200"
     r="50"
     transform="matrix(1.1428572,0,0,1.1428572,-57.142858,-28.571415)"
     id="inner circle"
     style="fill:#ffe600" />
</svg>
